<svg width="108" height="97" viewBox="0 0 108 97" fill="none" xmlns="http://www.w3.org/2000/svg">
<path d="M64.0799 5.99999C60.9599 6.11999 58.4399 8.75999 58.4399 11.88V80.04C58.4399 83.16 60.9599 85.8 64.0799 85.92C64.3199 85.92 64.5599 86.16 64.5599 86.4V87.48C64.5599 87.72 64.3199 87.96 64.0799 87.96H43.1999C42.9599 87.96 42.7199 87.72 42.7199 87.48V79.44C42.7199 79.32 42.5999 79.2 42.3599 79.08C42.2399 78.96 41.9999 79.08 41.8799 79.2C37.4399 84.6 31.6799 87.96 25.1999 87.96C11.2799 87.96 -9.4533e-05 72.12 -9.4533e-05 52.8C-9.4533e-05 33.36 11.2799 17.64 25.1999 17.64C31.6799 17.64 37.4399 20.88 41.8799 26.28C41.9999 26.4 42.2399 26.52 42.3599 26.4C42.5999 26.4 42.7199 26.16 42.7199 26.04V0.479991C42.7199 0.239994 42.9599 -1.00136e-05 43.1999 0.119996L64.0799 3.95999C64.3199 3.95999 64.5599 4.19999 64.5599 4.43999V5.51999C64.5599 5.75999 64.3199 5.87999 64.0799 5.99999ZM15.7199 52.8C15.7199 96.6 42.7199 96.6 42.7199 52.8C42.7199 8.87999 15.7199 8.87999 15.7199 52.8ZM88.9021 19.32C100.422 23.16 107.982 32.16 107.982 45.36C107.862 45.6 107.742 45.72 107.502 45.84C92.6221 49.44 74.6221 54.48 59.6221 58.44C59.3821 58.56 59.2621 58.8 59.2621 58.92C61.5421 73.56 71.2621 84.72 82.9021 84.6C92.2621 84.6 99.8221 76.44 103.662 67.92C103.782 67.68 104.142 67.56 104.382 67.56H105.342C105.582 67.56 105.822 67.68 106.062 67.8C106.182 68.04 106.182 68.28 106.062 68.52C101.022 79.92 91.4221 87.84 77.0221 87.84C60.8221 87.84 44.9821 73.92 43.3021 56.04C43.1821 54.72 43.0621 53.52 43.1821 52.2C43.3021 39.96 50.2621 28.08 61.9021 21.84C62.7421 21.48 63.5821 21 64.4221 20.52C71.8621 17.04 81.1021 16.68 88.9021 19.32ZM89.5021 48.48C92.6221 47.64 92.2621 45.36 92.0221 42.6C90.9421 27.96 85.0621 19.68 78.5821 19.56C69.3421 19.44 58.9021 34.44 58.9021 52.92C58.9021 54 58.9021 54.96 59.0221 56.04C59.0221 56.16 59.0221 56.28 59.1421 56.4C59.2621 56.52 59.3821 56.52 59.5021 56.4L89.5021 48.48Z" fill="#011C23"/>
</svg>
