<svg width="64" height="64" viewBox="0 0 330 387" fill="none" xmlns="http://www.w3.org/2000/svg">
<path d="M158.351 382.633C155.538 379.156 152.42 374.164 150.269 370.269C149.592 369.048 150.425 369.338 149.98 368.482C149.108 366.804 147.927 365.487 147.118 363.8C146.853 363.24 147.973 363.421 147.68 362.845C146.069 359.693 144.099 357.007 142.354 353.888C133.787 338.548 125.58 323.446 117.63 307.687C114.993 302.466 112.425 295.869 109.4 290.66C109.047 290.054 108.579 290.76 108.465 290.669C106.69 289.231 108.331 289.175 107.893 287.874C106.127 282.66 103.533 277.301 100.958 272.719C99.8696 270.787 99.536 273.424 99.2903 271.063C99.272 270.9 100.222 271.058 100.029 270.477C99.5905 269.159 98.3286 266.9 97.9075 265.896C97.1116 263.984 96.9554 263.681 96.1129 261.93C94.97 259.537 93.9485 256.537 92.5399 254.03C92.2385 253.499 91.8672 254.574 91.3215 253.759C90.775 252.942 89.7236 250.607 89.5216 249.752C89.3187 248.896 90.0457 248.952 90.1099 248.752C90.6654 247.096 87.839 245.124 87.638 244.803C83.9858 238.866 82.2589 233.063 79.3912 227.178C77.2287 222.744 74.5853 218.083 72.5489 213.906C70.0712 208.821 68.3367 204.445 65.7427 199.64C65.4726 199.139 64.9459 200.167 64.6148 199.557C61.0583 193.011 57.6469 186.547 54.4481 179.877C54.1273 179.208 55.3257 179.606 55.047 178.912C53.392 174.735 50.882 167.749 46.3416 167.517C44.7843 164.948 42.7501 161.853 41.7097 159.297C41.0323 157.647 42.7932 158.445 41.153 156.969C40.7797 156.634 40.5563 157.625 40.0458 157.092C37.9152 154.871 35.9704 152.212 33.6326 150.348C33.162 149.977 32.7633 150.586 32.5565 150.555C30.888 150.295 30.3432 147.4 30.0531 146.973C27.8244 143.666 25.3172 142.136 22.3039 140.17C21.6115 139.727 21.923 141.044 21.2489 140.659C19.6342 139.737 17.8649 138.82 16.1941 138.057C13.9015 137.017 11.6701 135.825 9.58737 134.413C8.73652 133.824 9.96758 133.588 9.57278 133.264C7.88343 131.836 6.61591 132.865 4.96307 131.214C4.61366 130.855 5.26585 130.484 5.24267 130.369C4.97464 128.642 2.96024 128.998 2.64093 128.7C0.785558 127.091 -0.472074 124.238 0.170184 121.391C0.841521 118.555 2.69813 117.068 4.26429 115.546C4.66823 115.175 3.12929 115.282 4.33818 114.277C6.94429 112.235 9.66344 111.009 12.4037 109.95C18.0847 107.786 24.1514 106.521 29.9576 106.177C31.2884 106.1 30.4373 106.884 30.5326 106.953C32.0277 108.029 32.6807 106.252 33.1117 106.142C36.4833 105.324 39.6716 106.649 41.9818 104.628C56.4309 105.33 71.0912 107.892 83.2381 115.536C83.3917 115.631 82.7477 116.255 83.0538 116.44C86.7103 118.714 86.5173 117.193 89.8255 117.136C90.6696 117.131 91.6536 119.893 91.7394 120.11C92.0876 120.912 90.833 121.626 90.9853 121.83C92.2337 123.48 94.0796 119.766 96.3556 121.185C96.4221 121.235 95.7221 121.691 95.8701 121.873C96.3266 122.442 97.0652 122.559 97.4863 123.148C97.5433 123.229 97.5944 123.312 97.6407 123.396C98.2997 124.672 97.9312 126.479 100.337 126.593C100.66 126.593 101.432 124.38 103.287 125.485C104.02 125.956 107.512 127.501 108.47 127.989C109.415 128.509 108.467 128.956 108.525 129.013C110.96 130.946 109.78 130.953 110.806 132.826C111.901 134.678 112.435 131.176 113.112 130.954C113.784 130.742 115.7 132.01 116.191 132.377C116.673 132.755 115.92 133.106 116.371 133.351C119.426 134.903 118.019 131.844 119.098 131.43C121.541 130.38 123.216 133.025 125.545 133.148C126.157 133.175 125.622 132.62 126.149 132.523C128.2 132.121 129.641 132.721 131.769 131.385C132.15 131.164 133.384 129.145 134.903 129.73C135.128 129.813 134.917 130.613 135.798 130.387C137.119 130.065 139.352 128.981 140.408 127.952C141.183 127.203 139.582 127.049 140.829 126.538C141.386 126.296 140.892 127.47 141.922 126.953C142.252 126.784 142.709 126.471 143.195 126.078C144.226 125.245 145.42 124.164 145.985 123.645C146.82 122.876 145.818 122.682 145.85 122.58C146.059 121.978 147.43 120.242 147.575 120.115C154.776 113.605 162.382 108.691 169.157 102.087C169.69 101.569 168.754 101.258 168.829 101.172C170.493 99.2207 170.499 102.247 172.331 101.64C170.99 100.513 171.982 100.054 173.195 98.7256C173.778 98.0845 172.982 97.8935 172.996 97.79C173.277 96.1797 174.816 96.5748 175.166 96.6244C176.456 96.8046 176.37 95.3177 177.24 95.4314C178.107 95.5415 177.761 97.1492 179.036 96.0025C178.985 95.2193 176.957 94.8504 177.758 93.7902C180.778 89.7884 188.487 84.6587 191.532 82.1379C194.572 79.6223 195.449 78.6923 197.318 77.3366C200.693 74.8882 198.757 74.9965 200.321 72.8758C201.891 70.7502 202.913 73.7981 203.612 74.0279C204.307 74.262 204.171 73.508 204.742 73.4689C205.313 73.4307 204.867 74.4035 205.75 73.7965C206.633 73.1891 208.061 70.4135 207.902 69.6656C207.565 68.0822 205.603 67.8444 208.055 66.3665C208.197 66.2822 208.32 67.2131 208.836 66.8608C212.92 64.0438 216.774 60.6793 220.808 57.8145C221.363 57.4215 221.484 58.4704 221.814 58.249C225.25 55.9451 223.185 55.8244 223.792 53.121C224.845 55.0704 226.65 55.2346 228.988 53.1811C230.394 51.9472 229.528 51.4554 229.993 50.1561C230.132 49.7656 231.552 49.3724 231.438 48.8817C231.069 47.273 229.061 46.8858 231.891 45.2421C232.016 45.1717 232.207 46.0624 232.602 45.7759C235.164 43.9268 234.441 42.5432 236.863 40.1528C238.762 38.279 242.92 35.8297 245.29 33.9314C246.851 35.7893 248.627 33.4742 248.388 31.4518C249.907 30.1981 251.436 28.7178 253.013 27.6295C253.555 27.2544 253.699 28.0653 253.811 28.0673C255.548 28.1189 255.11 26.3337 255.385 26.0042C258.421 22.4871 262.047 20.9228 264.538 17.1071C264.625 16.9712 263.698 15.5424 265.393 15.6844C265.506 15.6975 264.928 17.2336 266.514 15.9074C268.101 14.5811 271.618 12.673 273.249 10.1855C273.644 9.58429 274.052 7.39555 275.816 7.2606C276.053 7.24468 276.22 7.74269 276.601 7.76419C277.825 7.82433 277.054 6.23225 278.785 6.63211C280.12 6.94069 281.809 6.64783 283.202 5.27246C283.566 4.90796 283.925 4.47504 284.305 3.95097C284.347 3.89123 284.182 2.36844 285.056 1.96386C286.41 1.31339 288.514 1.03293 290.016 0.950237C290.74 0.905186 290.242 0.0940279 290.369 0.0718479C290.552 0.0480392 290.734 0.0294394 290.915 0.0157974C295.897 -0.228207 299.565 2.41501 302.122 6.78472C302.362 7.21392 303.099 7.9074 303.665 8.88641C303.929 9.33244 304.177 9.81236 304.351 10.3071C304.537 10.831 304.618 11.3793 304.534 11.8956C304.008 14.1215 299.869 13.1241 301.036 16.5172C301.319 17.5113 304.334 19.6067 303.637 21.9507C303.439 22.5977 302.984 23.1921 302.129 23.6844C300.332 30.0589 296.806 35.2178 295.269 41.7147C295.199 42.0066 296.209 43.4156 295.934 44.0581C295.523 45.0107 294.681 45.29 294.367 45.9623C293.037 48.7728 292.536 51.6276 291.352 54.3767C290.905 55.421 290.396 54.7929 289.861 56.0384C289.328 57.2834 289.859 58.4636 288.769 60.0054C287.942 61.1687 285.671 61.761 284.79 63.3904C286.503 64.1423 286.003 65.3029 285.637 67.5722C285.568 68.0088 286.343 67.8174 286.341 68.0362C286.348 68.9321 285.564 69.4491 285.614 70.3169C285.625 70.5276 286.215 70.7705 286.258 70.9559C286.642 72.542 284.499 74.0586 284.128 74.3179C282.713 75.3146 283.237 76.2484 282.482 77.1431C281.727 78.0361 281.901 76.3238 281.215 77.4441C280.398 78.7786 279.664 80.4172 278.992 82.0485C278.495 83.2561 278.032 84.4597 277.595 85.533C277.188 86.5411 278.253 86.1644 278.214 86.3159C277.589 88.4858 275.911 90.267 277.032 92.0496C272.378 91.8869 276.93 93.4666 274.933 96.1321C274.774 96.3414 272.725 95.8784 272.799 94.8628C272.872 93.8474 274.017 92.7154 274.07 91.2871C274.084 90.9492 272.947 88.534 272.929 88.2587C272.79 86.1027 275.777 86.9844 275.973 86.9508C278.114 86.5354 276.986 83.6874 277.067 83.0869C277.147 82.5002 277.266 81.949 277.408 81.4229C277.932 79.4855 278.768 77.8879 279.072 76.1041C279.328 74.6219 277.491 73.7417 277.974 72.689C279.577 69.1891 282.706 68.9821 281.751 64.7103C281.549 63.7954 279.2 63.6977 281.847 61.7504C282.013 61.6282 284.258 60.293 283.757 58.8115C283.693 58.6252 283.09 58.392 283.112 58.1881C283.271 56.8263 284.076 56.1936 284.376 54.7602C284.677 53.3269 284.972 51.5772 285.782 50.1248C286.269 49.2492 287.858 48.5066 288.307 48.1728C289.591 47.2364 288.823 45.3853 290.087 44.9899C291.357 44.5899 292.217 46.6924 293.647 44.8922C292.113 44.1989 290.577 43.391 289.052 42.6481C290.878 38.1866 293.126 33.9751 294.833 29.4496C295.043 28.8879 293.977 29.1262 294.181 28.5155C295.043 25.9405 296.513 23.9741 297.307 21.2641C297.462 20.7334 297.576 20.1725 297.671 19.5949C297.697 18.5325 297.311 17.4886 297.165 16.6304C298.962 16.0509 298.443 14.1449 297.927 12.8739C297.84 12.6414 297.758 12.4126 297.687 12.1889C297.543 11.7386 297.628 11.4941 297.722 11.261C297.823 11.1296 297.928 10.9981 297.931 10.8184C297.861 9.29593 296.657 10.7179 296.275 10.579C294.667 10.3092 297.509 7.53729 295.489 6.27766C295.33 6.16126 293.305 7.47115 293.192 7.59805C292.062 8.11279 293.27 6.86032 292.681 6.54543C292.085 6.25238 291.539 5.98112 290.915 5.91007C290.388 5.85143 289.8 5.9459 289.204 6.36288C288.765 6.64131 288.418 8.0832 287.33 7.57543C287.178 7.51272 286.892 6.89552 286.794 6.90646C285.874 7.05517 285.756 7.69931 285.903 8.32293C285.875 9.05978 286.031 9.82829 285.717 10.573C285.067 12.1123 282.349 12.5549 281.714 12.5517C280.059 12.5527 282.114 11.5713 282.093 11.4462C281.834 9.96495 280.709 11.2556 279.667 12.0348C278.141 10.5957 276.866 11.8924 278.591 12.8488C278.782 12.9512 279.408 12.1361 279.667 12.0348C280.173 14.3239 278.855 15.8423 275.936 15.8687C274.57 15.8803 274.605 14.4507 272.515 16.8135C271.566 17.8851 272.93 18.5976 272.252 19.7227C270.7 22.292 267.023 23.7563 264.952 25.873C264.201 26.6412 265.505 26.5381 265.009 27.0835C263.695 28.5326 262.02 29.2273 260.759 30.7486C260.645 30.8872 261.515 31.2175 261.067 31.6279C257.685 34.7518 254.334 37.0145 250.727 40.1903C248.984 41.7251 246.177 44.8182 244.315 46.3449C241.092 48.9945 236.458 51.4983 233.985 54.0779C232.369 55.7577 233.297 56.0369 232.925 57.1173C232.208 59.2059 228.37 60.0005 227.827 60.078C227.81 60.0798 229.178 58.6089 228.099 58.9994C227.05 58.7506 227.842 60.0602 227.827 60.078C227.473 60.1314 224.359 62.6391 223.87 63.2828C223.605 63.6329 224.303 64.0577 224.155 64.2292C220.621 68.2929 216.748 71.9882 212.452 75.3058C212.37 75.3572 211.898 74.6081 211.713 74.7371C209.109 76.5253 208.314 78.6563 206.799 80.8459C205.284 83.0349 203.608 84.2354 201.468 84.1276C200.133 85.5624 197.598 86.9218 196.126 87.6886C194.654 88.4553 195.613 89.8772 195.529 89.9963C192.934 93.7324 190.376 94.6979 186.843 97.6249C185.161 99.0143 182.087 102.066 180.444 103.77C179.146 105.12 178.041 105.566 176.923 106.897C176.772 107.076 177.449 107.488 177.416 107.556C176.58 109.506 176.043 107.51 175.527 107.525C173.655 107.577 172.567 107.686 171.103 109.738C170.764 110.211 171.296 113.3 170.626 114.102C169.752 115.14 169.498 114.089 168.598 115.195C168.521 115.289 168.93 115.713 168.264 116.269C165.173 118.856 161.658 121.511 158.563 124.331C158.139 124.715 159.307 124.928 158.705 125.494C155.876 128.148 152.672 130.939 149.554 133.116C149.527 133.135 149.5 133.153 149.474 133.168C148.609 133.735 148.726 132.815 148.417 132.836C146.519 132.941 145.79 135.563 145.462 135.815C138.359 141.476 130.882 141.746 122.496 142.404C122.068 142.472 118.252 144.084 116.871 142.272C116.759 142.153 115.506 140.356 113.99 141.173C113.891 141.222 114.683 142.229 113.045 141.81C111.424 141.392 108.633 141.233 106.77 139.637C106.165 139.13 105.18 137.099 102.779 137.475C102.649 137.537 98.4001 138.801 98.238 136.457C98.2176 136.069 99.3456 134.317 96.6756 134.093C96.1598 134.044 96.685 134.882 95.4443 134.517C94.2149 134.151 92.988 133.252 91.6261 132.498C91.0142 132.174 90.3474 131.915 89.5965 131.835C89.2199 131.792 87.286 132.273 86.8725 130.768C86.8059 130.532 87.457 130.097 86.9771 129.724C84.6857 127.942 81.8093 126.951 79.3868 125.268C78.523 124.674 79.4863 123.865 78.6173 123.132C77.7509 122.398 75.818 121.253 74.5579 121.316C73.3044 121.38 73.7884 123.515 72.174 123.047C65.192 121.062 58.5276 118.261 51.3493 117.23C50.2906 117.084 51.0941 117.823 49.5398 117.674C43.7533 117.002 34.0592 118.035 28.991 117.712C24.8524 117.393 29.6637 115.58 26.5241 115.755C24.976 115.861 23.9203 118.313 23.6065 118.467C21.009 119.737 18.853 119.903 16.5851 120.724C16.1076 120.898 15.6569 121.095 15.2011 121.346C14.6884 121.634 15.5513 122.189 15.126 122.423C13.6974 123.212 12.1283 123.692 11.6277 124.214C11.4457 124.411 11.915 124.879 11.881 124.839C11.8639 124.768 12.1755 124.297 12.28 123.299C12.4098 122.313 11.9993 121.051 11.5123 120.739C11.47 120.707 11.315 120.907 11.126 121.02C10.9413 121.148 10.7117 121.098 10.6249 120.948C10.2139 120.585 11.4209 122.822 13.6097 123.365C14.2733 123.553 15.0088 122.273 15.7487 123.865C15.907 124.192 14.7312 125.617 16.9971 125.039C17.3723 124.979 20.245 124.465 21.5016 125.686C21.692 125.845 21.8553 126.026 21.9835 126.232C22.333 126.772 22.8911 128.649 23.9884 128.964C24.1437 129.004 23.9588 128.001 24.8414 128.377C27.9352 129.723 30.8086 131.745 33.5204 133.539C34.2579 134.03 33.7301 132.558 34.8207 133.324C37.8958 135.49 40.9752 138.701 43.1191 141.352C43.9057 142.327 42.8118 142.169 42.8205 142.287C42.9205 144.17 44.7049 143.707 45.1084 144.013C47.5841 145.938 48.3559 148.09 50.2508 150.167C50.7679 150.74 51.0489 149.828 51.1985 149.906C52.6794 150.703 50.8675 150.659 51.3319 151.517C52.6081 153.902 54.5137 156.435 56.0923 158.553C56.6886 159.353 56.8011 157.913 57.3291 158.642C60.5186 163.027 63.3751 167.761 65.5183 172.348C65.9279 173.227 65.0169 173.061 64.982 173.315C64.7221 175.066 67.0725 176.08 67.4282 176.409C69.039 177.879 68.9049 178.897 69.9187 180.466C74.8755 188.106 79.6682 198.261 83.2174 205.918C87.8589 215.913 90.9806 223.905 95.6862 233.251C95.987 233.851 96.5304 232.837 96.8005 233.349C100.193 239.866 103.024 246.592 106.496 253.134C106.777 253.667 107.191 252.501 107.669 253.343C108.655 255.068 109.716 257.359 110.352 259.302C110.664 260.249 109.402 259.39 109.73 260.337C110.496 262.55 111.507 264.756 112.683 266.822C113.184 267.697 113.321 265.936 113.909 267.105C117.935 275.063 121.97 282.75 125.07 291.277C125.28 291.857 123.9 293.178 124.815 294.174C125.312 294.027 125.84 293.746 126.342 293.533C132.571 304.855 138.114 316.363 144.511 327.57C144.781 328.043 145.147 326.741 145.675 327.654C148.727 332.921 152 337.855 154.452 343.633C154.698 344.206 153.078 344.84 154.265 346.251C154.474 346.499 156.132 348.704 156.828 349.103C156.926 349.155 157.331 348.305 157.825 349.038C160.673 353.289 163.474 357.89 165.937 362.386C166.334 363.114 165.138 362.863 165.415 363.386C167.392 367.099 170.527 370.455 172.229 374.14C173.371 376.612 171.604 376.669 171.277 378.676C171.231 378.96 172.191 380.326 171.566 380.893C169.996 382.327 167.648 383.039 166.031 384.644C165.681 384.989 167.454 386.51 165.71 386.122C165.591 386.093 164.298 384.993 163.737 384.898C163.347 384.831 162.959 385.749 162.333 385.488C161.706 385.226 161.91 384.289 161.012 383.752C160.11 383.218 159.566 384.131 158.351 382.633ZM189.505 91.1508C187.847 91.5283 189.666 93.9131 190.399 92.308C190.432 92.2277 189.589 91.1298 189.505 91.1508ZM295.214 34.8289C297.157 33.5002 295.843 31.5468 294.39 32.4518C292.938 33.357 294.624 35.2345 295.214 34.8289ZM288.684 53.9863C290.488 52.2491 286.675 50.3575 286.576 52.9423C286.569 53.0921 288.578 54.088 288.684 53.9863ZM167.07 373.525C167.049 373.565 167.712 374.565 167.761 374.566C168.903 374.535 167.581 372.539 167.07 373.525ZM282.29 73.0308C283.085 72.58 283.221 70.4318 282.233 70.9918C281.437 71.4427 281.3 73.5926 282.29 73.0308ZM125.701 134.601C125.673 134.56 124.801 134.566 124.828 134.814C124.919 135.628 126.155 135.324 125.701 134.601ZM269.81 104.762C271.809 100.136 276.19 98.5815 273.807 103.539C273.375 104.437 273.554 101.137 272.796 102.197C271.411 104.138 272.893 106.375 270.929 108.138C270.571 108.456 269.689 105.024 269.809 104.752C269.809 104.756 269.81 104.759 269.81 104.762ZM186.48 89.0309C186.432 89.021 185.511 89.7865 185.516 89.8349C185.66 90.9754 187.515 89.4338 186.48 89.0309ZM79.9302 114.953C79.9058 114.841 77.3304 113.692 77.2124 113.739C75.3014 114.631 80.427 116.917 79.9302 114.953ZM245.369 33.9481C245.713 32.3672 246.808 31.2472 248.383 31.4549C247.369 32.2677 246.385 33.1269 245.369 33.9481ZM278.848 111.76C279 112.084 278.623 112.281 278.178 112.368C278.039 112.396 277.56 112.165 277.443 112.175C277.213 112.196 277.419 112.381 277.153 112.386C277.063 112.387 276.297 112.039 276.22 112.047C275.804 112.092 275.935 112.341 275.696 112.459C274.521 113.039 273.877 113.812 273.16 114.586C272.924 114.841 272.07 114.928 272.257 115.362C272.28 115.413 272.974 115.662 273.028 115.691C273.85 116.141 272.48 115.559 272.268 115.557C271.431 115.551 271.245 115.839 271.402 116.214C271.471 116.374 272.879 116.797 272.069 116.611C272.014 116.598 271.297 116.282 271.207 116.283C271.004 116.285 271.081 116.473 271.001 116.505C270.844 116.567 270.844 116.587 270.796 116.685C270.724 116.817 270.297 116.838 270.403 117.052C270.428 117.098 271.191 117.351 271.298 117.452C271.405 117.552 271.289 117.661 271.095 117.637C270.901 117.612 270.322 117.361 270.185 117.316C269.024 116.934 270.535 117.709 270.566 117.744C271.085 118.369 270.066 118.326 269.934 118.668C269.836 118.928 270.022 119.321 269.885 119.551C269.718 119.824 269.215 119.913 269.172 120.225C269.167 120.258 270.058 120.569 270.053 120.61C270.002 121.04 269.753 121.39 269.007 121.544C268.932 121.559 268.181 121.205 268.06 121.202C267.332 121.19 265.663 120.966 268.961 122.432C268.766 122.542 268.554 122.685 267.82 122.562C267.349 122.483 266.545 122.061 266.858 122.317C266.928 122.374 267.676 122.631 267.725 122.695C267.929 122.964 267.62 123.048 267.936 123.359C268.002 123.423 268.664 123.674 268.779 123.73C269.709 124.187 268.07 123.69 267.943 123.673C266.998 123.549 267.274 123.84 267.174 124.032C267.15 124.077 268.057 124.371 268.066 124.427C268.101 124.709 267.929 124.92 267.447 124.993C267.338 125.008 266.603 124.664 266.512 124.656C266.12 124.625 267.534 125.211 267.186 125.192C267.115 125.188 266.474 124.921 266.402 124.897C265.266 124.52 266.82 125.196 266.849 125.225C267.245 125.613 265.549 125.092 265.706 125.378C265.726 125.412 266.563 125.683 266.57 125.761C266.624 126.284 266.219 126.654 265.396 126.826C265.27 126.853 264.675 126.563 264.598 126.537C263.39 126.139 264.955 126.809 265.006 126.854C265.367 127.195 263.977 126.831 265.815 127.693C264.874 128.162 265.646 129.304 263.673 129.358C263.65 129.36 262.877 129.036 262.834 129.04C262.309 129.087 263.537 129.523 264.961 130.254C265.318 130.438 263.486 129.843 263.351 129.801C262.854 129.647 261.709 129.151 261.611 129.127C260.837 128.936 264.677 130.434 264.625 130.569C264.617 130.571 263.918 130.275 263.844 130.258C263.61 130.206 263.876 130.352 263.62 130.29C263.027 130.147 261.153 129.439 262.189 129.987C262.324 130.058 264.508 130.894 264.358 130.974C264.296 131.005 264.25 131.231 264.085 131.235C263.921 131.239 263.236 130.921 263.204 130.914C262.214 130.708 261.854 130.495 260.451 130.034C259.052 129.574 262.321 130.839 262.672 131.016C263.022 131.192 262.211 131.007 261.934 130.931C261.656 130.855 261.225 130.643 261.065 130.609C260.014 130.391 262.653 131.323 263.149 131.583C264.322 132.199 261.863 131.347 261.579 131.374C261.502 131.381 262.063 131.572 262.103 131.622C262.254 131.815 261.473 131.586 262.112 131.99C262.217 132.056 263.628 132.736 262.535 132.384C262.377 132.333 261.785 132.067 261.631 132.063C261.399 132.056 261.215 132.137 261.386 132.295C261.512 132.412 262.531 132.737 262.193 132.689C262.043 132.667 261.486 132.377 261.252 132.356C261.017 132.333 260.981 132.499 260.978 132.566C260.975 132.634 261.741 132.899 261.79 132.923C262.069 133.067 262.387 133.324 262.382 133.334C262.275 133.876 260.821 133.841 261.047 134.5C261.063 134.551 261.867 134.839 261.878 134.85C262.159 135.114 260.089 134.175 259.345 133.989C260.962 134.612 260.649 134.551 260.789 134.714C260.857 134.793 261.491 135.015 261.553 135.044C262.475 135.485 261.232 135.048 260.977 134.961C260.039 134.642 261.108 135.12 260.48 134.906C259.857 134.695 258.979 134.268 258.955 134.362C259.522 134.615 261.056 135.144 261.273 135.308C262.096 135.929 260.725 135.94 260.52 136.098C260.317 136.255 260.397 136.363 260.141 136.401C259.679 136.468 260.828 136.83 261.287 137.167C261.746 137.504 259.02 136.351 258.421 136.137C257.822 135.923 258.422 136.184 258.088 136.079C257.754 135.974 257.372 135.764 257.228 135.772C257.084 135.779 258.076 136.346 258.687 136.61C259.981 137.169 261.383 137.644 260.842 137.6C260.81 137.597 260.097 137.284 260.011 137.287C259.353 137.324 259.213 137.577 258.619 137.639C258.536 137.647 257.744 137.297 257.687 137.298C257.087 137.309 258.475 137.768 259.936 138.481C257.94 137.662 256.687 137.242 256.611 137.4C256.565 137.494 257.448 137.823 258.04 138.13C258.219 138.223 257.59 138.054 257.997 138.229C259.328 138.803 260.862 139.333 260.196 139.263C260.164 139.259 259.436 138.945 259.381 138.952C259.024 139.001 260.426 139.577 260.526 139.821C260.605 140.013 259.649 139.921 259.446 140.023C257.192 139.129 257.649 139.482 259.181 140.157C259.077 140.235 259.121 140.38 258.867 140.394C258.78 140.4 258.136 140.119 258.063 140.096C256.93 139.724 258.426 140.367 258.477 140.412C258.958 140.88 257.734 140.623 258.765 141.294C258.802 141.318 260.364 141.95 259.195 141.56C259.115 141.532 258.432 141.175 258.334 141.261C258.236 141.347 257.316 141.218 257.983 141.655C258.144 141.76 259.38 142.354 258.357 142.035C258.218 141.991 257.773 141.803 257.517 141.719C256.702 141.45 258.276 142.1 256.909 141.622C255.543 141.145 254.491 140.858 255.36 141.376C255.385 141.391 256.626 141.923 256.587 141.962C256.525 142.025 256.221 142.029 256.198 142.112C256.187 142.151 256.976 142.435 256.988 142.447C257.324 142.874 256.558 142.781 256.148 142.935C256.072 142.962 257.078 143.526 256.199 143.29C255.237 143.033 251.453 141.413 252.269 142.017C252.595 142.26 257.401 144.302 254.815 143.485C255.303 144.075 253.89 143.884 254.644 144.58C254.677 144.611 256.013 145.195 255.98 145.224C255.929 145.266 255.284 145.046 255.227 145.068C254.972 145.155 255.456 145.516 255.31 145.639C255.256 145.686 254.609 145.407 254.545 145.463C254.481 145.519 255.325 145.907 254.87 145.838C254.524 145.785 252.733 145.161 252.49 145.176C254.227 145.866 254.165 145.918 254.578 146.216C254.658 146.274 255.273 146.488 255.342 146.528C255.637 146.695 255.119 146.537 255.443 146.712C255.52 146.754 256.114 146.989 256.211 147.037C257.058 147.451 255.677 147.039 255.437 146.966C254.524 146.693 255.282 147.033 254.911 146.954C254.541 146.874 254.14 146.616 253.903 146.6C253.411 146.568 253.436 146.785 253.353 146.916C253.323 146.97 254.131 147.244 254.145 147.259C254.3 147.456 253.41 147.241 254.963 147.93C250.849 146.399 255.331 148.157 254.448 148.002C254.376 147.989 252.439 147.243 252.176 147.081C251.913 146.918 252.547 147.08 252.133 146.835C252.036 146.777 250.264 145.968 250.16 145.911C249.344 145.471 252.234 146.596 252.395 146.653C254.129 147.267 252.226 146.381 252.103 146.298C251.542 145.914 251.995 145.955 251.601 145.663C251.346 145.474 249.46 144.72 249.541 144.683C249.812 144.558 252.475 145.529 250.264 144.438C249.793 144.205 247.712 143.429 249.393 143.926C249.499 143.957 251.027 144.436 250.112 144.003C249.996 143.948 249.394 143.711 249.348 143.68C249.048 143.482 249.546 143.626 249.346 143.46C249.146 143.294 248.839 143.068 249.077 143.063C249.22 143.059 250.368 143.436 250.652 143.519C251.47 143.762 250.203 143.174 251.178 143.509C252.158 143.846 253.586 144.509 254.253 144.64C252.691 144.018 251.09 143.374 249.52 142.746C249.674 142.517 250.278 142.469 250.308 142.19C250.31 142.155 249.457 141.855 249.438 141.808C249.36 141.614 250.008 141.727 249.827 141.487C249.684 141.299 248.843 140.823 248.666 140.616C250.484 141.25 249.946 140.834 250.16 140.771C250.234 140.748 250.711 140.94 250.879 140.97C251.503 141.077 249.9 140.509 249.664 140.378C248.658 139.817 252.241 141.219 252.219 141.017C252.219 141.007 250.354 140.145 250.241 140.084C249.503 139.683 250.911 140.33 251.075 140.327C251.376 140.321 251.861 140.426 251.352 140.078C251.201 139.976 250.047 139.418 250.995 139.709C251.119 139.747 251.748 140.002 251.788 140.009C252.457 140.114 250.478 139.328 249.837 138.985C249.198 138.641 250.613 139.06 251.017 139.191C252.063 139.529 251.434 139.413 251.532 139.456C252.707 139.967 252.537 139.798 252.664 139.77C254.611 140.527 254.532 140.387 252.788 139.738C252.598 139.667 252.758 139.791 252.664 139.77C250.782 138.958 250.578 138.757 252.405 139.346C253.261 139.622 254.214 140.057 253.923 139.753C253.791 139.616 252.442 139.116 252.103 138.907C251.33 138.429 252.655 138.728 252.519 138.496C252.47 138.412 251.716 138.177 251.657 138.11C251.498 137.93 252.083 138.058 251.842 137.845C251.819 137.825 251.043 137.545 251.046 137.509C251.052 137.234 251.625 137.219 251.738 136.974C251.792 136.856 251.455 136.472 251.589 136.38C251.818 136.22 253.038 136.392 252.84 136.1C252.715 135.91 251.938 135.634 251.436 135.376C250.463 134.876 252.347 135.415 252.637 135.502C252.646 135.505 252.786 135.681 253.202 135.78C254.034 136.072 252.64 135.505 252.637 135.502C252.824 135.558 253.081 135.419 252.95 135.32C252.879 135.265 252.148 134.991 252.124 134.968C251.584 134.433 251.51 134.082 251.961 133.934C251.978 133.934 252.787 134.263 252.816 134.261C253.242 134.24 252.289 133.743 251.752 133.375C251.216 133.007 251.456 132.978 252.882 133.45C252.746 133.279 253.421 133.376 253.828 133.44C254.235 133.504 252.658 132.868 252.63 132.848C251.72 132.222 252.678 132.447 252.913 132.263C253.028 132.177 252.887 131.861 252.763 131.67C252.662 131.518 253.056 131.605 252.854 131.422C252.827 131.398 252.118 131.132 252.093 131.117C251.29 130.685 252.992 131.413 253.308 131.513C254.456 131.88 255.069 132.069 254.594 131.733C254.485 131.656 252.04 130.591 251.917 130.48C251.76 130.338 252.638 130.715 252.452 130.557C252.437 130.543 251.888 130.328 251.93 130.292C252.118 130.124 252.528 130.021 252.559 129.781C252.565 129.749 251.681 129.444 251.676 129.392C251.652 129.15 251.772 128.941 252.257 128.905C252.379 128.897 252.975 129.168 253.16 129.229C254.279 129.596 252.727 128.877 252.702 128.85C252.081 128.188 253.628 128.48 253.088 127.842C253.056 127.806 251.413 126.98 252.901 127.488C253.001 127.522 254.522 128.044 253.524 127.58C253.461 127.551 252.675 127.29 252.783 127.247C252.89 127.204 252.423 126.882 253.309 127.114C253.588 127.187 255.109 127.7 253.958 127.135C253.878 127.096 251.249 125.886 253.124 126.566C253.432 126.678 255.391 127.462 254.43 126.95C254.244 126.851 253.79 126.718 253.54 126.552C253.154 126.298 253.725 126.388 252.894 125.935C252.747 125.855 251.447 125.248 252.483 125.583C252.645 125.635 253.293 125.913 253.38 125.908C253.796 125.884 253.424 125.542 253.943 125.556C254.125 125.56 255.172 126.008 255.48 126.06C255.788 126.111 256.109 126.096 255.65 125.841C255.191 125.586 253.476 124.989 253.379 124.841C252.956 124.194 254.108 124.174 254.417 123.818C254.462 123.765 253.838 123.577 253.863 123.482C253.95 123.131 253.611 122.331 255.008 122.548C256.128 122.722 256.795 123.323 257.284 123.311C257.517 123.304 255.591 122.437 255.538 122.392C254.99 121.942 255.914 122.145 255.719 121.858C255.679 121.799 254.869 121.522 254.843 121.475C254.748 121.311 255.149 121.337 255.125 121.207C255.112 121.148 254.501 120.917 254.565 120.892C254.711 120.831 255.002 120.841 255.611 120.965C255.667 120.977 256.398 121.337 256.456 121.272C256.548 121.166 257.17 121.234 256.646 120.864C256.488 120.753 255.101 120.203 256.095 120.491C256.303 120.551 257.96 121.234 256.562 120.56C256.329 120.447 254.456 119.503 255.743 119.911C256.082 120.018 257.469 120.498 257.274 120.363C257.243 120.343 256.486 120.076 256.43 120.005C256.245 119.761 256.386 119.638 256.212 119.394C256.164 119.328 255.369 119.084 255.322 118.996C255.193 118.753 255.471 118.623 255.777 118.556C255.891 118.532 256.514 118.825 256.585 118.849C257.744 119.225 256.233 118.581 256.153 118.522C255.677 118.167 256.438 118.34 256.301 118.132C256.265 118.075 255.527 117.814 255.465 117.781C254.86 117.454 256.146 118.027 256.309 118.036C256.77 118.063 256.771 117.89 256.732 117.717C256.716 117.653 255.849 117.376 255.845 117.322C255.805 116.999 255.995 116.755 256.563 116.679C256.671 116.665 257.309 116.953 257.462 117.001C258.528 117.342 257.152 116.679 257.026 116.602C256.452 116.251 257.044 116.436 256.974 116.299C256.623 115.624 257.23 115.202 257.638 114.857C258.166 114.406 258.96 114.207 259.014 113.599C259.018 113.561 258.139 113.254 258.132 113.217C258.075 112.75 258.563 112.504 258.466 112.02C258.459 111.981 257.621 111.702 257.583 111.629C257.5 111.475 257.596 111.361 257.9 111.359C258.046 111.357 258.723 111.704 258.856 111.697C259.167 111.681 259.276 111.575 259.194 111.399C259.157 111.324 258.287 111.072 258.304 111C258.405 110.501 258.441 109.986 259.714 109.944C259.801 109.941 261.516 110.585 261.217 110.388C260.746 110.196 260.189 109.976 259.685 109.774C259.68 108.988 260.536 108.55 260.896 107.905C260.911 107.878 259.989 107.571 260.013 107.517C260.153 107.2 260.027 106.789 261.054 106.815C261.155 106.817 262.737 107.461 262.535 107.27C262.497 107.236 262.343 107.007 262.013 106.834C261.963 106.808 261.211 106.542 261.207 106.487C261.202 106.171 261.483 105.954 262.043 105.862C262.135 105.847 262.907 106.206 262.979 106.198C263.485 106.143 262.98 105.666 263.78 105.738C264.319 105.788 265.663 106.379 267.036 106.835C267.23 106.899 267.295 106.824 268.078 107.128C270.049 107.893 272.184 108.785 274.287 109.595C274.74 109.77 274.3 109.461 275.363 109.961C275.434 109.994 275.762 110.222 276.124 110.389C276.374 110.505 277.18 110.793 277.495 110.952C277.811 111.111 277.131 110.88 277.497 111.081C277.867 111.284 278.78 111.62 278.848 111.76ZM255.65 133.723C256.44 133.945 253.662 132.835 254.295 133.182C254.329 133.2 255.611 133.712 255.65 133.723ZM252.375 143.299C253.642 143.682 251.866 142.9 250.89 142.598C249.915 142.296 251.991 143.183 252.375 143.299ZM252.855 144.707C253.869 144.97 249.932 143.393 250.679 143.836C250.721 143.861 252.796 144.692 252.855 144.707ZM267.281 107.334C267.319 107.347 267.38 107.299 267.344 107.283C266.473 106.9 266.352 106.998 267.281 107.334ZM253.417 146.137C253.966 146.311 253.392 145.961 252.71 145.745C252.162 145.571 252.735 145.921 253.417 146.137ZM260.22 130.841C260.262 130.856 260.317 130.826 260.082 130.734C259.326 130.439 259.514 130.586 260.22 130.841ZM252.761 147.932C253.013 147.728 256.335 148.856 255.854 148.997C255.767 149.022 254.859 148.475 254.539 148.425C253.956 148.334 255.971 149.222 254.826 148.912C254.616 148.855 252.739 147.941 252.757 147.93C252.758 147.931 252.76 147.932 252.761 147.932ZM259.009 134.997C259.046 135.01 259.106 134.962 259.07 134.946C258.2 134.563 258.079 134.661 259.009 134.997ZM262.978 128.891C263.058 128.919 263.188 128.803 263.118 128.77C261.704 128.124 261.436 128.356 262.978 128.891ZM259.385 140.002C260.247 140.421 260.319 140.544 259.182 140.157C259.268 140.113 259.304 140.049 259.385 140.002ZM270.762 97.6577C272.203 97.265 274.166 97.506 275.589 97.9628C276.035 98.1036 275.779 98.6213 276.079 98.7446C276.663 98.9869 277.239 98.7757 277.801 99.0847C277.985 99.1898 277.653 99.9973 277.844 100.088C278.878 100.581 279.918 100.534 280.957 100.935C286.024 102.912 290.565 105.455 294.389 109.019C295.662 110.2 296.605 112.155 297.987 113.234C298.15 113.361 298.626 112.785 298.697 112.774C299.81 112.641 298.546 113.453 298.647 113.883C299.052 115.59 299.951 116.986 300.961 118.121C301.391 118.604 302.329 117.31 301.948 118.289C301.922 118.355 301.163 118.605 301.177 118.797C301.209 119.227 301.682 119.813 301.764 120.112C301.911 120.666 301.96 120.762 302.167 121.218C302.173 121.233 302.18 121.248 302.187 121.264C302.444 121.861 302.418 122.725 302.874 123.282C302.973 123.4 303.617 122.883 303.841 123.04C304.065 123.198 304.269 123.796 304.187 124.068C304.105 124.34 303.495 124.525 303.38 124.62C302.405 125.415 304.243 125.36 304.321 125.427C305.686 126.672 305.432 128.404 306.111 129.853C306.169 129.978 306.232 130.102 306.298 130.225C306.905 131.382 307.614 132.594 307.92 133.804C308.326 135.435 308.153 136.891 308.381 138.461C308.403 138.629 309.324 138.343 309.354 138.554C309.662 140.8 309.448 143.137 308.432 145.201C308.329 145.405 307.564 144.983 307.413 145.173C306.852 145.901 305.843 146.72 305.897 147.632C305.961 148.093 306.461 148.608 307.742 149.127C307.461 149.669 307.188 150.336 306.397 150.797C305.888 151.099 305.033 150.636 305.364 151.145C305.438 151.259 306.238 151.206 306.291 151.363C306.517 152.014 306.234 152.694 306.653 153.307C306.74 153.43 307.447 153.38 307.575 153.411C308.612 153.649 306.935 154.186 306.822 154.318C305.966 155.215 306.422 155.819 306.556 156.577C306.587 156.755 307.474 156.352 307.537 156.509C307.852 157.318 308.022 158.16 307.94 159.111C307.921 159.325 307.102 159.457 307.056 159.577C306.871 160.121 308.314 159.603 308.17 160.086C308.143 160.189 307.494 160.439 307.431 160.484C306.455 161.221 308.08 160.685 308.137 160.716C308.93 161.152 307.646 162.466 308.303 163.018C308.381 163.078 309 162.424 309.17 162.616C310.005 163.545 310.743 164.555 311.437 165.678C311.489 165.756 311.541 165.834 311.591 165.912C311.899 166.358 312.17 166.824 312.401 167.304C312.563 167.639 311.903 167.895 311.859 167.968C311.151 169.075 312.566 168.113 312.695 168.164C313.656 168.574 313.003 170.079 315.015 169.42C316.682 172.97 319.23 176.537 317.943 180.632C317.929 180.681 317.087 180.708 317.061 180.804C316.723 181.951 317.987 181.577 319.632 182.275C320.046 182.468 318.146 183.147 318.004 183.188C317.489 183.383 316.239 183.22 316.139 183.282C315.767 183.513 316.509 183.601 317.388 183.722C318.351 183.845 319.477 183.982 319.478 184.312C319.471 184.332 318.712 184.249 318.637 184.302C318.4 184.467 318.701 184.63 318.44 184.792C317.836 185.161 315.833 185.293 316.998 185.857C317.15 185.929 319.488 185.82 319.378 186.384C319.332 186.61 319.372 187.606 319.22 187.886C319.069 188.165 318.315 187.973 318.283 187.993C317.286 188.745 316.873 188.46 315.398 188.836C313.929 189.213 317.434 189.109 317.825 189.262C318.215 189.416 317.393 189.967 317.107 190.103C316.821 190.238 316.342 190.069 316.181 190.189C315.124 190.988 317.92 190.54 318.477 190.803C319.794 191.423 317.195 191.906 316.94 192.474C316.871 192.627 317.463 192.502 317.518 192.639C317.714 193.14 317.033 193.457 317.523 193.991C317.562 194.031 317.608 194.073 317.663 194.115C317.784 194.219 319.351 194.645 318.215 194.972C318.051 195.021 317.399 194.916 317.262 195.143C317.055 195.48 316.946 196.094 317.19 196.435C317.37 196.685 318.411 196.304 318.107 196.653C317.971 196.81 317.326 196.592 317.125 196.888C316.922 197.184 317.027 197.892 317.084 198.157C317.141 198.422 317.924 198.169 317.981 198.184C318.307 198.272 318.765 198.706 318.771 198.748C319.198 200.867 318.41 203.246 319.611 205.189C319.703 205.338 320.462 204.93 320.485 204.95C321.024 205.36 318.738 205.742 318.187 206.419C319.777 205.726 319.573 206.072 319.91 206.387C320.073 206.537 320.649 206.175 320.72 206.166C321.77 206.033 320.641 206.735 320.418 206.896C319.592 207.479 320.749 207.196 320.203 207.593C319.688 207.977 318.731 208.099 318.816 208.44C318.82 208.455 318.826 208.471 318.834 208.487C319.447 208.335 320.778 207.353 321.159 207.549C322.629 208.312 322.309 211.072 322.456 212.059C322.629 213.068 322.818 213.356 322.748 213.983C322.606 215.109 323.683 214.45 324.368 215.001C325.048 215.566 322.078 215.822 321.474 216.041C320.868 216.252 321.529 216.22 321.206 216.394C320.883 216.565 320.415 216.419 320.333 216.689C320.251 216.952 321.479 217.444 322.15 217.442C323.572 217.428 324.988 216.871 324.578 217.682C324.553 217.728 323.764 217.699 323.708 217.869C323.284 219.199 323.349 220.493 322.851 221.739C322.782 221.909 321.913 221.78 321.862 221.877C321.324 222.875 322.777 222.495 324.395 223.09C322.237 222.939 320.921 223.229 320.881 223.95C320.853 224.388 321.797 224.358 322.443 224.694C322.638 224.797 321.97 225.077 322.407 225.168C323.835 225.475 325.482 225.281 324.764 226.072C324.73 226.106 323.951 225.916 323.891 226.036C323.497 226.805 324.993 227.074 325.046 228.007C325.088 228.744 323.952 229.821 323.629 230.55C321.265 230.01 321.653 230.796 323.195 231.507C323.003 231.983 322.945 232.543 322.581 232.947C322.456 233.086 321.817 232.775 321.738 232.773C320.509 232.724 321.996 233.412 322.021 233.54C322.237 234.873 320.749 235.32 321.416 236.822C321.44 236.874 322.958 237.613 321.706 237.402C321.621 237.383 321.071 236.733 320.801 237.194C320.526 237.664 319.294 238.143 319.642 239.147C319.729 239.385 320.705 240.454 319.591 240.252C319.441 240.223 319.046 239.939 318.779 239.866C317.928 239.628 319.338 240.591 317.96 240.08C316.579 239.571 315.416 239.408 315.881 240.521C315.894 240.554 316.932 241.434 316.788 241.611C316.633 241.799 316.346 241.978 316.111 242.166C315.998 242.257 315.896 242.351 315.829 242.452C315.73 242.6 316.48 242.991 316.475 243.025C316.167 244.273 315.066 244.536 314.061 245.395C313.875 245.552 314.419 246.763 313.418 246.612C312.323 246.449 309.259 243.654 309.397 245.157C309.45 245.762 313.373 249.254 310.685 248.372C310.3 250.076 308.309 250.495 308.156 252.369C308.148 252.453 309.205 253.482 309.09 253.61C308.917 253.799 308.281 253.519 308.139 253.642C307.533 254.143 307.607 255.047 307.11 255.593C306.923 255.801 306.404 255.315 306.18 255.563C305.957 255.812 306.587 256.528 305.962 256.636C305.487 256.716 303.744 255.899 303.304 256.139C304.82 257.232 304.61 257.462 304.695 258.196C304.712 258.338 305.309 258.621 305.345 258.707C305.501 259.067 304.952 258.909 305.138 259.278C305.183 259.367 305.703 259.737 305.768 259.831C306.347 260.64 304.864 260.25 304.607 260.182C303.627 259.923 304.209 260.537 303.747 260.543C303.285 260.549 303.138 259.948 302.77 260.075C302.007 260.341 301.604 261.089 301.195 261.617C301.035 261.83 301.835 262.174 301.829 262.215C301.687 262.79 300.626 262.721 301.835 263.95C298.032 261.727 301.991 264.467 300.82 264.602C300.726 264.611 298.986 263.477 298.875 263.107C298.763 262.737 299.501 262.817 299.304 262.273C299.258 262.145 297.929 260.657 297.868 260.539C297.393 259.616 299.964 261.352 300.118 261.43C301.785 262.257 300.39 260.6 300.355 260.399C300.194 259.477 300.874 259.272 300.805 258.548C300.764 258.077 299.126 256.875 299.34 256.68C300.051 256.03 302.555 257.398 301.061 255.255C300.743 254.797 298.821 253.67 300.64 254.121C300.754 254.15 302.351 254.659 301.694 253.837C301.612 253.733 301.083 253.361 301.066 253.29C300.967 252.822 301.512 252.943 301.515 252.512C301.518 252.08 301.462 251.521 301.875 251.318C302.122 251.195 303.287 251.637 303.595 251.712C304.479 251.935 303.544 250.842 304.503 251.27C305.466 251.7 306.518 252.935 307.375 252.882C306.013 251.894 304.631 250.861 303.269 249.858C303.999 248.929 305.113 248.294 305.737 247.284C305.813 247.158 304.988 246.759 305.05 246.61C305.316 245.985 306.177 245.884 306.366 245.173C306.508 244.621 306.065 243.591 306.19 242.997C307.957 243.83 307.901 242.778 308.392 242.389C308.563 242.252 308.974 242.56 309.198 242.534C310.03 242.431 308.489 241.666 308.36 241.385C307.811 240.183 310.986 242.359 311.361 241.665C311.381 241.628 310 240.03 309.936 239.899C309.512 239.056 310.561 240.252 310.845 240.112C311.337 239.871 311.905 239.854 311.837 239.143C311.831 239.108 311.823 239.071 311.812 239.032C311.755 238.804 310.89 237.808 311.864 238.127C311.992 238.168 312.546 238.559 312.596 238.556C313.457 238.45 311.669 237.285 311.209 236.661C310.744 236.042 312.234 236.409 312.652 236.53C313.73 236.856 312.961 236.934 313.047 236.999C314.067 237.79 314.06 237.368 314.291 237.178C316.13 238.171 316.224 237.742 314.522 236.976C314.337 236.892 314.402 237.176 314.291 237.178C312.629 235.953 312.567 235.524 314.481 235.989C315.379 236.202 316.222 236.865 316.187 236.067C316.169 235.706 314.819 235.195 314.576 234.792C314.012 233.887 315.542 233.717 315.573 233.045C315.582 232.808 314.769 232.731 314.747 232.562C314.686 232.121 315.36 231.987 315.2 231.51C315.184 231.467 314.375 231.289 314.403 231.172C314.593 230.283 315.316 229.659 315.545 228.713C315.657 228.255 315.366 227.358 315.527 226.905C315.809 226.128 317.112 225.202 316.866 224.436C316.709 223.946 315.878 224.01 315.326 223.79C314.256 223.386 316.214 222.775 316.514 222.666C316.525 222.662 316.716 223.074 317.141 222.858C318.023 222.733 316.518 222.67 316.514 222.666C316.712 222.608 316.887 221.783 316.721 221.625C316.632 221.54 315.853 221.619 315.821 221.575C315.081 220.544 314.788 219.578 314.986 218.482C314.999 218.461 315.866 218.354 315.885 218.305C316.168 217.615 315.037 217.401 314.315 217.056C313.59 216.708 313.709 216.312 315.082 215.634C314.802 215.309 315.285 214.595 315.567 214.154C315.85 213.713 314.218 214.199 314.178 214.184C312.886 213.714 313.638 212.948 313.424 212.044C313.369 211.806 313.164 211.488 312.926 211.199C312.68 210.845 312.425 210.502 312.228 210.253C311.87 209.804 312.113 209.345 311.689 208.968C311.632 208.916 310.953 209.259 310.918 209.25C309.862 209.036 311.691 208.629 311.958 208.402C312.932 207.579 313.45 207.144 312.689 206.673C312.517 206.571 309.834 206.952 309.588 206.689C309.276 206.356 310.234 206.222 309.891 205.884C309.862 205.855 309.299 206.031 309.249 205.769C309.012 204.554 309.031 203.182 308.733 201.954C308.694 201.785 307.818 202.183 307.747 201.936C307.414 200.78 307.258 199.455 307.578 198.256C307.66 197.962 308.329 198.076 308.516 197.996C309.65 197.521 307.908 197.149 307.869 197.056C307.356 195.977 307.55 194.974 307.751 193.991C307.932 193.281 308.093 192.562 307.746 191.747C307.702 191.653 305.871 190.93 307.442 190.607C307.546 190.585 309.153 190.266 308.054 189.984C307.986 189.966 307.158 190.165 307.243 189.818C307.327 189.471 306.774 188.912 307.683 188.435C307.97 188.284 309.573 187.927 308.295 187.476C308.206 187.447 305.316 186.751 307.31 186.503C307.638 186.462 309.748 186.505 308.666 185.967C308.456 185.864 307.986 186.051 307.692 185.78C307.239 185.365 307.804 184.815 306.864 184.306C306.731 184.234 305.787 183.978 305.973 183.722C306.019 183.688 306.136 183.654 306.352 183.618C306.522 183.59 307.227 183.637 307.305 183.54C307.676 183.067 307.174 182.623 307.6 182.103C307.748 181.913 308.889 181.853 309.164 181.615C309.439 181.38 309.657 180.913 309.104 180.81C308.553 180.717 306.819 181.286 306.622 181.061C305.772 180.142 306.41 178.79 305.975 177.636C305.913 177.472 305.411 177.905 305.281 177.698C304.788 176.889 303.447 176.137 303.848 174.609C304.133 173.336 305.369 173.372 305.27 172.646C305.265 172.617 305.249 172.599 305.224 172.59C305.137 172.549 304.978 172.581 304.787 172.653C304.154 172.818 303.212 173.32 303.114 173.286C301.703 172.816 301.792 171.495 300.85 170.764C300.653 170.608 300.127 171.324 299.964 171.18C299.397 170.689 299.262 169.842 298.825 169.304C298.626 169.062 298.109 169.464 297.994 169.19C297.715 168.538 297.636 167.86 297.858 166.987C297.879 166.91 298.78 166.866 298.575 166.425C298.238 165.702 298.371 164.592 297.452 164.012C297.178 163.842 295.783 164.385 296.526 163.454C296.682 163.257 298.412 162.778 296.73 162.687C296.454 162.695 294.081 162.207 295.212 161.251C295.508 161.001 296.821 160.252 296.521 160.009C296.474 159.975 295.742 160.348 295.599 160.105C295.109 159.237 294.992 158.228 294.6 157.28C294.494 157.024 293.73 157.544 293.597 157.149C293.231 156.057 293.334 154.609 293.581 153.513C293.673 153.109 294.364 153.381 294.438 153.35C295.65 152.891 294.014 152.622 293.921 152.457C293.369 151.469 294.189 150.768 294.079 149.875C294.051 149.625 293.254 149.711 293.19 149.654C292.573 149.055 293.924 149.605 294.117 149.305C294.665 148.471 294.771 147.501 294.873 146.599C294.91 146.266 293.941 146.43 293.987 146.128C294.085 145.452 294.242 144.775 294.464 144.118C294.621 143.715 294.869 143.339 295.256 142.973C295.374 142.862 296.047 143.068 296.209 143.069C297.347 143.056 295.888 142.507 295.751 142.436C295.132 142.061 295.756 142.027 295.663 141.754C295.202 140.473 295.473 139.002 295.405 137.754C295.365 136.93 295.354 136.151 295.209 135.394C294.889 134.294 294.516 133.23 293.919 132.147C293.841 132.004 293.068 132.546 292.99 132.427C292.022 130.883 291.599 129.115 290.59 127.586C290.509 127.46 289.8 128.027 289.643 127.837C289.497 127.665 289.373 127.454 289.284 127.224C289.22 127.037 289.209 126.822 289.269 126.594C289.319 126.394 290.089 126.239 290.123 126.039C290.199 125.567 290.048 125.164 289.721 124.895C289.582 124.784 288.938 125.461 288.82 125.287C287.99 124.107 287.078 123.19 286.844 121.312C286.829 121.185 288.038 119.803 287.618 119.889C287.256 120.246 286.846 120.682 286.468 121.073C284.717 119.824 283.278 118.117 281.242 117.136C281.158 117.096 280.923 118.051 280.765 117.981C279.834 117.579 278.886 117.55 278.09 116.372C278.009 116.257 278.445 114.602 278.059 114.783C277.99 114.815 277.451 114.941 277.264 115.286C277.238 115.338 277.183 116.138 277.031 116.135C276.149 116.106 275.284 115.837 274.398 115.326C274.254 115.243 274.431 114.398 274.325 114.331C273.546 113.863 272.736 114.54 271.925 113.845C271.362 113.381 271.392 111.903 270.912 110.506C270.843 110.308 270.473 110.325 270.332 109.497C269.974 107.413 269.86 105.092 269.459 102.873C269.372 102.394 268.795 103.01 269.008 101.791C269.023 101.709 269.453 101.255 269.526 100.845C269.577 100.561 269.309 99.7338 269.444 99.3614C269.583 98.9893 269.864 99.6767 270.119 99.2331C270.378 98.7855 270.144 97.8286 270.762 97.6577ZM316.769 212.116C317.416 211.517 314.608 212.548 315.394 212.606C315.436 212.608 316.737 212.146 316.769 212.116ZM306.952 249.602C308.304 249.974 306.909 248.588 305.883 248.274C304.858 247.961 306.541 249.49 306.952 249.602ZM304.879 254.201C306.051 254.346 302.639 251.825 302.994 252.808C303.013 252.864 304.811 254.192 304.879 254.201ZM272.338 109.958C272.331 109.918 272.06 109.898 272.057 109.938C271.991 110.895 272.511 110.935 272.338 109.958ZM302.899 258.817C303.468 259.006 303.216 258.214 302.509 257.979C301.94 257.79 302.191 258.582 302.899 258.817ZM315.48 192.489C315.524 192.483 315.565 192.271 315.313 192.276C314.501 192.29 314.73 192.585 315.48 192.489ZM298.117 265.662C298.96 264.747 302.252 266.16 301.154 267.028C300.955 267.185 300.544 265.955 300.108 266.025C299.311 266.156 300.889 267.733 299.593 267.524C299.356 267.485 298.063 265.71 298.114 265.658C298.115 265.659 298.116 265.661 298.117 265.662ZM320.061 210.666C320.096 210.645 320.025 210.357 319.986 210.365C319.046 210.566 319.181 211.129 320.061 210.666ZM317.008 179.912C317.091 179.881 317.033 179.148 316.95 179.141C315.363 179.105 315.456 180.481 317.008 179.912ZM323.563 230.548C324.42 231.089 324.426 231.541 323.197 231.506C323.342 231.194 323.431 230.866 323.563 230.548ZM306.412 272.943C306.464 273.321 306.025 273.46 305.552 273.466C305.404 273.469 304.997 273.127 304.876 273.115C304.64 273.092 304.789 273.332 304.521 273.285C304.43 273.268 303.772 272.744 303.693 272.738C303.262 272.704 303.315 272.999 303.04 273.08C301.682 273.475 300.796 274.181 299.837 274.874C299.521 275.104 298.64 275.03 298.692 275.534C298.698 275.593 299.315 275.997 299.36 276.039C300.043 276.685 298.853 275.79 298.642 275.746C297.806 275.577 297.529 275.85 297.57 276.285C297.589 276.471 298.866 277.201 298.113 276.843C298.062 276.819 297.444 276.337 297.353 276.321C297.15 276.284 297.168 276.501 297.078 276.52C296.901 276.556 296.895 276.578 296.816 276.674C296.703 276.802 296.269 276.741 296.309 276.992C296.319 277.047 297.004 277.468 297.08 277.598C297.155 277.727 297.005 277.821 296.819 277.757C296.633 277.693 296.131 277.31 296.008 277.234C294.965 276.596 296.235 277.726 296.255 277.77C296.58 278.544 295.574 278.299 295.335 278.642C295.156 278.903 295.22 279.363 295.01 279.583C294.758 279.845 294.227 279.842 294.087 280.17C294.071 280.204 294.866 280.714 294.849 280.756C294.663 281.21 294.305 281.538 293.51 281.558C293.43 281.56 292.789 281.032 292.668 281.005C291.944 280.85 290.343 280.283 293.187 282.506C292.958 282.586 292.7 282.698 292.005 282.423C291.557 282.246 290.884 281.634 291.118 281.971C291.169 282.046 291.838 282.469 291.867 282.547C291.988 282.877 291.653 282.907 291.872 283.304C291.918 283.385 292.503 283.785 292.6 283.868C293.388 284.543 291.903 283.687 291.781 283.643C290.874 283.325 291.06 283.693 290.899 283.88C290.861 283.924 291.677 284.418 291.669 284.479C291.615 284.791 291.378 284.984 290.873 284.968C290.758 284.964 290.13 284.449 290.041 284.423C289.659 284.313 290.892 285.22 290.549 285.132C290.479 285.114 289.921 284.701 289.856 284.661C288.837 284.033 290.182 285.064 290.201 285.102C290.477 285.597 288.942 284.704 289.01 285.043C289.019 285.084 289.773 285.539 289.755 285.624C289.646 286.198 289.125 286.518 288.248 286.542C288.113 286.546 287.608 286.118 287.539 286.075C286.454 285.411 287.812 286.437 287.849 286.496C288.104 286.934 286.825 286.271 288.397 287.558C287.309 287.879 287.725 289.26 285.733 288.933C285.709 288.93 285.037 288.43 284.993 288.426C284.453 288.375 285.546 289.085 286.743 290.15C287.044 290.418 285.395 289.419 285.273 289.348C284.823 289.084 283.832 288.327 283.741 288.281C283.026 287.924 286.403 290.288 286.309 290.424C286.3 290.424 285.693 289.968 285.624 289.936C285.405 289.834 285.627 290.043 285.389 289.927C284.84 289.656 283.185 288.528 284.052 289.321C284.165 289.424 286.09 290.751 285.915 290.807C285.844 290.828 285.726 291.064 285.561 291.036C285.395 291.008 284.809 290.532 284.779 290.517C283.852 290.102 283.558 289.803 282.297 289.031C281.04 288.263 283.918 290.264 284.214 290.523C284.51 290.781 283.755 290.423 283.502 290.287C283.248 290.151 282.882 289.839 282.732 289.771C281.749 289.33 284.1 290.85 284.514 291.227C285.497 292.12 283.302 290.722 283.008 290.695C282.929 290.688 283.431 291.003 283.456 291.065C283.547 291.302 282.836 290.903 283.35 291.463C283.434 291.555 284.635 292.563 283.65 291.97C283.508 291.884 282.999 291.482 282.845 291.448C282.616 291.395 282.407 291.446 282.528 291.65C282.617 291.8 283.536 292.35 283.213 292.232C283.069 292.179 282.602 291.758 282.374 291.689C282.147 291.619 282.059 291.791 282.035 291.862C282.011 291.934 282.695 292.369 282.736 292.406C282.971 292.615 283.209 292.954 283.201 292.963C282.924 293.526 281.48 293.205 281.501 293.958C281.501 294.017 282.216 294.484 282.224 294.498C282.422 294.837 280.643 293.422 279.957 293.075C281.381 294.062 281.086 293.936 281.175 294.139C281.22 294.237 281.785 294.6 281.838 294.644C282.623 295.299 281.515 294.585 281.287 294.442C280.447 293.914 281.369 294.638 280.807 294.286C280.249 293.936 279.503 293.305 279.45 293.401C279.938 293.785 281.309 294.654 281.475 294.874C282.105 295.703 280.729 295.447 280.475 295.577C280.222 295.706 280.269 295.838 280.001 295.829C279.517 295.811 280.555 296.426 280.91 296.878C281.264 297.331 278.894 295.557 278.361 295.209C277.829 294.861 278.348 295.259 278.046 295.081C277.744 294.903 277.427 294.602 277.281 294.582C277.135 294.562 277.951 295.367 278.48 295.77C279.601 296.625 280.857 297.411 280.329 297.258C280.298 297.248 279.682 296.772 279.595 296.759C278.924 296.669 278.705 296.915 278.092 296.865C278.006 296.858 277.322 296.326 277.264 296.316C276.661 296.21 277.907 296.976 279.147 298.03C277.405 296.758 276.281 296.06 276.156 296.215C276.08 296.308 276.861 296.835 277.359 297.281C277.509 297.416 276.932 297.111 277.285 297.38C278.438 298.257 279.808 299.129 279.163 298.923C279.133 298.913 278.502 298.431 278.445 298.429C278.072 298.411 279.295 299.306 279.32 299.589C279.339 299.811 278.41 299.524 278.176 299.596C276.198 298.192 276.546 298.662 277.868 299.688C277.74 299.751 277.739 299.916 277.48 299.882C277.391 299.871 276.834 299.443 276.769 299.403C275.75 298.782 277.047 299.766 277.084 299.825C277.42 300.423 276.275 299.906 277.097 300.831C277.127 300.864 278.493 301.85 277.445 301.201C277.373 301.156 276.801 300.638 276.676 300.712C276.552 300.785 275.671 300.467 276.202 301.067C276.33 301.212 277.382 302.093 276.458 301.549C276.332 301.475 275.945 301.186 275.716 301.045C274.984 300.596 276.357 301.604 275.137 300.822C273.918 300.04 272.955 299.527 273.663 300.254C273.683 300.275 274.76 301.09 274.709 301.125C274.627 301.181 274.321 301.126 274.272 301.21C274.249 301.251 274.951 301.71 274.959 301.726C275.162 302.252 274.424 302.001 273.966 302.087C273.881 302.102 274.713 302.905 273.906 302.48C273.024 302.015 269.742 299.53 270.369 300.341C270.62 300.665 274.793 303.804 272.46 302.42C272.764 303.15 271.41 302.668 271.947 303.565C271.971 303.605 273.126 304.496 273.084 304.52C273.019 304.556 272.443 304.192 272.379 304.205C272.097 304.248 272.468 304.733 272.284 304.836C272.215 304.876 271.655 304.449 271.573 304.497C271.491 304.545 272.215 305.128 271.782 304.965C271.452 304.84 269.854 303.818 269.605 303.786C271.129 304.869 271.051 304.913 271.371 305.315C271.433 305.392 271.982 305.744 272.038 305.8C272.282 306.037 271.813 305.766 272.082 306.018C272.146 306.078 272.667 306.447 272.749 306.518C273.468 307.13 272.214 306.415 271.996 306.291C271.168 305.818 271.821 306.333 271.475 306.174C271.129 306.016 270.808 305.66 270.575 305.597C270.093 305.465 270.05 305.704 269.926 305.83C269.88 305.882 270.603 306.335 270.612 306.354C270.706 306.596 269.882 306.191 271.222 307.236C267.581 304.783 271.519 307.552 270.684 307.213C270.616 307.185 268.91 306.003 268.697 305.777C268.484 305.55 269.068 305.848 268.73 305.503C268.651 305.422 267.131 304.204 267.044 304.123C266.364 303.49 268.906 305.266 269.049 305.359C270.593 306.359 268.965 305.033 268.868 304.919C268.426 304.396 268.867 304.528 268.563 304.138C268.367 303.884 266.714 302.703 266.807 302.679C267.117 302.597 269.48 304.164 267.607 302.556C267.208 302.213 265.367 300.971 266.895 301.834C266.991 301.889 268.372 302.703 267.591 302.058C267.492 301.977 266.964 301.603 266.927 301.561C266.688 301.289 267.142 301.541 266.993 301.323C266.845 301.105 266.609 300.802 266.848 300.843C266.992 300.867 268.024 301.497 268.282 301.643C269.026 302.064 267.941 301.184 268.812 301.735C269.688 302.289 270.91 303.282 271.537 303.553C270.168 302.578 268.766 301.572 267.39 300.589C267.616 300.372 268.235 300.438 268.353 300.144C268.366 300.106 267.605 299.616 267.6 299.562C267.583 299.338 268.196 299.587 268.091 299.292C268.006 299.062 267.312 298.385 267.2 298.127C268.821 299.165 268.413 298.612 268.647 298.586C268.728 298.576 269.145 298.876 269.305 298.941C269.896 299.179 268.468 298.253 268.273 298.066C267.441 297.265 270.591 299.475 270.631 299.253C270.634 299.242 269.036 297.95 268.942 297.861C268.329 297.286 269.536 298.258 269.702 298.286C270.004 298.339 270.457 298.546 270.056 298.073C269.937 297.933 268.956 297.106 269.814 297.606C269.926 297.671 270.476 298.068 270.514 298.083C271.152 298.328 269.415 297.094 268.881 296.599C268.348 296.104 269.634 296.832 269.998 297.052C270.939 297.62 270.345 297.372 270.431 297.437C271.447 298.218 271.33 298.002 271.466 297.997C273.178 299.193 273.143 299.026 271.6 297.987C271.432 297.873 271.553 298.038 271.466 297.997C269.835 296.754 269.694 296.499 271.339 297.49C272.109 297.954 272.928 298.61 272.731 298.225C272.642 298.051 271.448 297.25 271.174 296.958C270.549 296.292 271.781 296.873 271.718 296.597C271.695 296.496 271.013 296.096 270.975 296.012C270.873 295.787 271.418 296.039 271.243 295.763C271.226 295.737 270.538 295.284 270.551 295.246C270.643 294.951 271.222 295.047 271.411 294.805C271.502 294.688 271.284 294.209 271.447 294.136C271.726 294.007 272.893 294.432 272.787 294.078C272.721 293.85 272.029 293.4 271.607 293.024C270.789 292.295 272.506 293.244 272.77 293.395C272.778 293.4 272.863 293.616 273.248 293.805C273.991 294.282 272.772 293.398 272.77 293.395C272.94 293.492 273.24 293.392 273.141 293.259C273.086 293.187 272.44 292.749 272.423 292.72C272.05 292.038 272.085 291.644 272.582 291.573C272.599 291.577 273.307 292.089 273.336 292.092C273.769 292.153 272.971 291.432 272.548 290.931C272.125 290.43 272.374 290.445 273.655 291.232C273.573 291.021 274.217 291.258 274.605 291.406C274.993 291.555 273.613 290.561 273.591 290.534C272.875 289.683 273.764 290.111 274.057 289.96C274.198 289.89 274.156 289.522 274.091 289.291C274.038 289.108 274.405 289.279 274.26 289.042C274.241 289.011 273.614 288.586 273.593 288.565C272.924 287.942 274.401 289.059 274.686 289.229C275.72 289.849 276.275 290.172 275.904 289.717C275.819 289.613 273.704 287.988 273.615 287.844C273.503 287.66 274.264 288.238 274.127 288.031C274.116 288.014 273.634 287.675 273.687 287.645C273.928 287.5 274.37 287.469 274.476 287.217C274.492 287.184 273.702 286.682 273.713 286.625C273.766 286.359 273.951 286.158 274.447 286.214C274.572 286.229 275.084 286.637 275.251 286.739C276.256 287.354 274.926 286.275 274.91 286.242C274.495 285.407 275.952 286.024 275.611 285.232C275.59 285.187 274.203 283.975 275.534 284.814C275.623 284.869 276.983 285.729 276.129 285.035C276.075 284.991 275.37 284.556 275.491 284.531C275.612 284.505 275.245 284.068 276.059 284.491C276.315 284.624 277.678 285.474 276.702 284.64C276.634 284.582 274.379 282.766 276.045 283.864C276.319 284.045 278.035 285.272 277.232 284.533C277.077 284.39 276.664 284.158 276.465 283.931C276.158 283.581 276.702 283.79 276.011 283.139C275.889 283.024 274.777 282.117 275.71 282.68C275.856 282.768 276.417 283.194 276.506 283.205C276.929 283.261 276.665 282.819 277.179 282.936C277.36 282.976 278.269 283.664 278.561 283.779C278.853 283.894 279.179 283.941 278.8 283.577C278.42 283.213 276.889 282.235 276.838 282.055C276.616 281.276 277.776 281.48 278.196 281.156C278.258 281.108 277.692 280.784 277.746 280.686C277.943 280.325 277.853 279.397 279.184 279.904C280.251 280.311 280.731 281.088 281.224 281.171C281.459 281.209 279.802 279.898 279.763 279.839C279.354 279.248 280.217 279.647 280.111 279.3C280.089 279.228 279.365 278.771 279.354 278.716C279.31 278.521 279.702 278.627 279.719 278.482C279.725 278.416 279.186 278.048 279.257 278.034C279.422 277.996 279.711 278.064 280.281 278.317C280.333 278.34 280.953 278.871 281.032 278.812C281.157 278.716 281.758 278.912 281.349 278.41C281.226 278.26 280.008 277.396 280.914 277.901C281.103 278.006 282.549 279.065 281.359 278.066C281.162 277.9 279.581 276.516 280.742 277.207C281.048 277.389 282.286 278.177 282.134 277.994C282.109 277.966 281.435 277.53 281.401 277.443C281.291 277.144 281.471 277.039 281.373 276.742C281.346 276.662 280.626 276.243 280.606 276.139C280.553 275.852 280.872 275.766 281.199 275.754C281.32 275.75 281.852 276.189 281.916 276.227C282.959 276.86 281.648 275.87 281.586 275.792C281.22 275.316 281.928 275.651 281.856 275.4C281.837 275.332 281.18 274.906 281.128 274.858C280.625 274.389 281.733 275.257 281.893 275.298C282.347 275.417 282.401 275.231 282.416 275.037C282.421 274.965 281.64 274.497 281.652 274.438C281.712 274.082 281.979 273.856 282.571 273.886C282.683 273.893 283.232 274.327 283.37 274.409C284.332 274.984 283.16 274.001 283.058 273.894C282.593 273.404 283.128 273.719 283.101 273.557C282.96 272.761 283.699 272.425 284.215 272.133C284.885 271.75 285.741 271.692 285.985 271.048C286.001 271.007 285.217 270.505 285.221 270.463C285.311 269.949 285.875 269.78 285.929 269.239C285.935 269.196 285.182 268.732 285.168 268.645C285.132 268.464 285.264 268.359 285.569 268.417C285.716 268.444 286.285 268.949 286.42 268.968C286.737 269.011 286.879 268.918 286.851 268.713C286.838 268.624 286.046 268.183 286.086 268.109C286.342 267.591 286.539 267.043 287.826 267.246C287.914 267.26 289.43 268.29 289.192 268.019C288.78 267.72 288.292 267.375 287.849 267.059C288.09 266.211 289.084 265.906 289.645 265.282C289.669 265.256 288.841 264.745 288.882 264.691C289.122 264.378 289.123 263.91 290.143 264.138C290.243 264.16 291.626 265.163 291.483 264.918C291.457 264.874 291.373 264.598 291.097 264.346C291.055 264.309 290.385 263.875 290.399 263.815C290.492 263.473 290.842 263.294 291.431 263.305C291.527 263.308 292.188 263.844 292.262 263.85C292.786 263.89 292.429 263.277 293.208 263.511C293.731 263.67 294.893 264.57 296.125 265.329C296.299 265.436 296.387 265.367 297.077 265.848C298.811 267.057 300.67 268.435 302.522 269.719C302.921 269.995 302.577 269.577 303.485 270.323C303.546 270.373 303.804 270.683 304.114 270.933C304.328 271.107 305.044 271.574 305.311 271.807C305.577 272.04 304.969 271.659 305.272 271.947C305.579 272.238 306.388 272.778 306.412 272.943ZM276.341 292.066C277.062 292.46 274.628 290.722 275.153 291.219C275.181 291.245 276.305 292.047 276.341 292.066ZM270.076 301.743C271.225 302.403 269.69 301.213 268.808 300.696C267.926 300.18 269.727 301.543 270.076 301.743ZM270.117 303.352C271.05 303.834 267.601 301.366 268.211 301.989C268.245 302.024 270.063 303.324 270.117 303.352ZM296.215 265.914C296.248 265.936 296.324 265.896 296.293 265.871C295.541 265.289 295.39 265.371 296.215 265.914ZM270.234 305.003C270.728 305.297 270.263 304.808 269.648 304.442C269.153 304.148 269.618 304.637 270.234 305.003ZM281.814 289.856C281.851 289.88 281.916 289.858 281.71 289.714C281.045 289.248 281.188 289.443 281.814 289.856ZM269.017 306.808C269.333 306.638 272.306 308.502 271.781 308.56C271.686 308.57 270.948 307.803 270.643 307.686C270.088 307.475 271.827 308.825 270.778 308.267C270.586 308.165 268.992 306.814 269.013 306.805C269.014 306.806 269.016 306.807 269.017 306.808ZM279.305 294.096C279.339 294.117 279.413 294.077 279.382 294.053C278.631 293.471 278.48 293.552 279.305 294.096ZM285.183 288.294C285.255 288.339 285.421 288.24 285.361 288.191C284.147 287.219 283.806 287.417 285.183 288.294ZM278.121 299.561C278.853 300.18 278.887 300.327 277.87 299.688C277.969 299.657 278.025 299.595 278.121 299.561ZM307.578 262.619C307.968 262.792 307.935 263.315 307.76 263.793C307.706 263.943 307.215 264.149 307.157 264.263C307.043 264.487 307.335 264.479 307.187 264.72C307.135 264.801 306.37 265.151 306.333 265.227C306.135 265.64 306.444 265.761 306.417 266.085C306.282 267.682 306.633 268.988 306.944 270.362C307.047 270.814 306.636 271.655 307.15 271.901C307.21 271.93 307.842 271.55 307.901 271.53C308.795 271.227 307.462 271.891 307.338 272.077C306.851 272.816 307.013 273.255 307.454 273.472C307.644 273.563 308.848 272.714 308.208 273.257C308.165 273.294 307.457 273.629 307.406 273.71C307.291 273.893 307.51 274.003 307.495 274.105C307.462 274.303 307.482 274.323 307.545 274.459C307.626 274.648 307.401 275.047 307.662 275.156C307.719 275.178 308.395 274.74 308.55 274.741C308.706 274.742 308.741 274.948 308.606 275.097C308.472 275.246 307.904 275.522 307.783 275.602C306.757 276.27 308.352 275.664 308.402 275.67C309.285 275.803 308.659 276.668 308.902 277.11C309.089 277.444 309.564 277.653 309.699 277.994C309.858 278.402 309.652 278.933 309.919 279.268C309.947 279.304 310.75 278.808 310.786 278.85C311.158 279.306 311.341 279.859 311.057 280.669C311.027 280.75 310.264 281.08 310.191 281.185C309.762 281.82 308.591 283.092 311.86 281.555C311.85 281.832 311.861 282.156 311.325 282.691C310.979 283.036 310.122 283.349 310.542 283.314C310.635 283.306 311.306 282.886 311.394 282.903C311.763 282.977 311.663 283.331 312.136 283.346C312.234 283.348 312.849 282.998 312.968 282.95C313.931 282.558 312.523 283.542 312.434 283.638C311.773 284.36 312.205 284.392 312.327 284.664C312.355 284.727 313.151 284.202 313.208 284.246C313.493 284.484 313.591 284.837 313.382 285.335C313.333 285.447 312.588 285.773 312.528 285.846C312.274 286.164 313.635 285.464 313.417 285.756C313.373 285.816 312.755 286.131 312.691 286.173C311.684 286.824 313.21 286.085 313.254 286.087C313.845 286.104 312.382 287.116 312.739 287.248C312.783 287.263 313.517 286.776 313.594 286.844C314.114 287.293 314.227 288.006 313.914 288.9C313.866 289.038 313.253 289.291 313.185 289.335C312.118 290.031 313.644 289.276 313.716 289.274C314.242 289.277 313.102 290.167 314.965 289.352C314.862 290.635 316.374 291.034 315.289 292.84C315.277 292.862 314.529 293.241 314.508 293.283C314.251 293.794 315.365 293.118 316.868 292.547C317.245 292.404 315.634 293.467 315.518 293.548C315.087 293.842 313.965 294.389 313.885 294.452C313.262 294.959 316.872 292.971 316.969 293.145C316.966 293.154 316.287 293.493 316.228 293.544C316.045 293.703 316.335 293.604 316.129 293.773C315.654 294.164 313.914 295.157 315.023 294.757C315.167 294.704 317.205 293.558 317.193 293.767C317.186 293.851 317.371 294.108 317.28 294.258C317.189 294.408 316.498 294.714 316.473 294.735C315.71 295.419 315.305 295.538 314.065 296.346C312.83 297.152 315.895 295.45 316.262 295.306C316.627 295.162 315.988 295.707 315.757 295.881C315.526 296.055 315.08 296.237 314.956 296.347C314.148 297.073 316.538 295.614 317.066 295.421C318.317 294.964 316.106 296.339 315.967 296.618C315.93 296.693 316.431 296.376 316.5 296.387C316.768 296.436 316.104 296.914 316.85 296.73C316.972 296.7 318.42 296.092 317.461 296.729C317.323 296.82 316.734 297.093 316.641 297.227C316.502 297.426 316.471 297.666 316.717 297.665C316.899 297.665 317.79 297.068 317.55 297.322C317.443 297.435 316.852 297.654 316.696 297.842C316.541 298.029 316.675 298.219 316.736 298.286C316.797 298.352 317.486 297.924 317.537 297.904C317.832 297.792 318.255 297.754 318.261 297.767C318.706 298.379 317.837 299.637 318.582 300.063C318.639 300.097 319.371 299.656 319.388 299.657C319.796 299.658 317.727 300.606 317.125 301.089C318.638 300.245 318.401 300.466 318.634 300.496C318.747 300.51 319.32 300.158 319.383 300.131C320.325 299.731 319.202 300.42 318.974 300.564C318.134 301.094 319.197 300.598 318.636 300.953C318.08 301.306 317.175 301.681 317.249 301.791C317.812 301.528 319.189 300.668 319.468 300.631C320.522 300.49 319.743 301.719 319.773 302.05C319.802 302.381 319.95 302.412 319.837 302.675C319.634 303.15 320.635 302.473 321.213 302.385C321.792 302.298 319.146 303.625 318.601 303.954C318.056 304.282 318.645 303.997 318.355 304.194C318.065 304.392 317.648 304.532 317.572 304.667C317.496 304.801 318.598 304.459 319.196 304.167C320.463 303.548 321.714 302.754 321.362 303.193C321.34 303.218 320.638 303.554 320.591 303.634C320.246 304.254 320.402 304.619 320.118 305.205C320.078 305.286 319.295 305.659 319.263 305.711C318.928 306.253 320.156 305.457 321.664 304.835C319.749 305.831 318.635 306.545 318.739 306.763C318.8 306.894 319.616 306.422 320.245 306.187C320.434 306.116 319.914 306.515 320.312 306.319C321.614 305.682 322.993 304.823 322.544 305.349C322.522 305.373 321.809 305.721 321.785 305.777C321.625 306.14 322.97 305.443 323.256 305.586C323.481 305.698 322.844 306.46 322.823 306.738C320.69 307.891 321.283 307.82 322.796 307.101C322.808 307.267 322.969 307.366 322.836 307.606C322.791 307.688 322.158 307.994 322.095 308.035C321.096 308.69 322.557 307.971 322.628 307.969C323.343 307.986 322.398 308.829 323.619 308.552C323.663 308.542 325.152 307.755 324.115 308.422C324.043 308.467 323.316 308.735 323.34 308.903C323.364 309.072 322.714 309.767 323.506 309.589C323.697 309.547 324.963 309.013 324.076 309.619C323.955 309.701 323.523 309.918 323.297 310.064C322.576 310.533 324.09 309.752 322.857 310.513C321.624 311.273 320.751 311.936 321.735 311.656C321.764 311.648 322.975 311.051 322.99 311.122C323.012 311.238 322.841 311.512 322.905 311.611C322.936 311.658 323.655 311.226 323.673 311.227C324.266 311.335 323.738 311.927 323.645 312.437C323.627 312.531 324.733 312.173 324.007 312.73C323.213 313.341 319.521 315.163 320.555 315.013C320.969 314.954 325.644 312.624 323.393 314.146C324.225 314.273 323.233 315.347 324.317 315.339C324.366 315.339 325.68 314.707 325.689 314.764C325.699 314.849 325.121 315.213 325.109 315.285C325.043 315.593 325.66 315.508 325.69 315.754C325.703 315.847 325.07 316.156 325.085 316.267C325.101 316.377 325.949 315.996 325.623 316.334C325.375 316.591 323.76 317.589 323.634 317.82C325.279 316.932 325.292 317.036 325.808 316.953C325.908 316.936 326.463 316.594 326.54 316.571C326.865 316.467 326.42 316.776 326.769 316.656C326.853 316.627 327.415 316.323 327.515 316.282C328.39 315.924 327.21 316.758 327.004 316.903C326.223 317.455 326.977 317.104 326.69 317.358C326.402 317.612 325.93 317.722 325.779 317.918C325.465 318.324 325.683 318.509 325.757 318.708C325.791 318.785 326.512 318.328 326.534 318.33C326.807 318.379 326.094 318.966 327.632 318.24C323.833 320.441 328.056 318.129 327.402 318.767C327.349 318.818 325.537 319.83 325.234 319.91C324.93 319.989 325.446 319.58 324.979 319.715C324.869 319.746 323.093 320.551 322.98 320.59C322.099 320.897 324.814 319.398 324.96 319.309C326.532 318.352 324.609 319.201 324.46 319.23C323.778 319.364 324.077 319 323.578 319.074C323.255 319.12 321.464 320.08 321.476 319.972C321.515 319.613 323.956 318.169 321.663 319.096C321.174 319.294 319.251 320.406 320.683 319.384C320.773 319.319 322.101 318.417 321.169 318.818C321.051 318.868 320.483 319.178 320.428 319.19C320.07 319.268 320.49 318.962 320.22 318.982C319.95 319.002 319.563 319.06 319.695 318.843C319.774 318.713 320.786 318.051 321.028 317.878C321.726 317.381 320.447 317.949 321.322 317.401C322.2 316.85 323.641 316.211 324.148 315.743C322.668 316.54 321.144 317.351 319.654 318.149C319.528 317.794 319.831 317.212 319.588 316.92C319.556 316.884 318.784 317.357 318.73 317.33C318.504 317.215 318.983 316.747 318.653 316.678C318.396 316.627 317.467 316.922 317.171 316.883C318.81 315.87 318.112 315.952 318.176 315.702C318.198 315.615 318.651 315.373 318.776 315.252C319.236 314.799 317.782 315.684 317.523 315.769C316.42 316.13 319.793 314.278 319.591 314.106C319.582 314.096 317.703 314.935 317.58 314.977C316.782 315.251 318.197 314.615 318.288 314.466C318.455 314.193 318.832 313.862 318.215 313.984C318.032 314.021 316.846 314.516 317.665 313.95C317.772 313.876 318.371 313.559 318.401 313.53C318.885 313.036 317.011 314.048 316.321 314.29C315.632 314.532 316.838 313.672 317.193 313.438C318.111 312.83 317.64 313.278 317.737 313.232C318.891 312.674 318.635 312.664 318.682 312.524C320.511 311.514 320.333 311.451 318.724 312.384C318.548 312.486 318.756 312.461 318.682 312.524C316.839 313.425 316.535 313.415 318.137 312.352C318.888 311.853 319.843 311.42 319.391 311.39C319.187 311.376 317.943 312.1 317.553 312.202C316.661 312.435 317.703 311.542 317.408 311.442C317.301 311.406 316.648 311.853 316.551 311.841C316.291 311.811 316.747 311.413 316.409 311.425C316.378 311.426 315.67 311.849 315.638 311.813C315.384 311.546 315.7 311.022 315.536 310.689C315.456 310.529 314.904 310.464 314.896 310.257C314.877 309.901 315.741 308.981 315.354 308.878C315.104 308.809 314.399 309.237 313.869 309.438C312.841 309.827 314.429 308.666 314.678 308.491C314.686 308.485 314.931 308.528 315.263 308.253C316.015 307.79 314.682 308.49 314.678 308.491C314.838 308.377 314.855 308.017 314.688 308.038C314.596 308.05 313.919 308.439 313.884 308.438C313.073 308.41 312.702 308.142 312.823 307.6C312.833 307.586 313.606 307.179 313.621 307.151C313.846 306.753 312.833 307.127 312.181 307.254C311.528 307.381 311.639 307.141 312.901 306.321C312.663 306.279 313.142 305.772 313.436 305.471C313.73 305.17 312.228 305.966 312.193 305.973C311.085 306.187 311.846 305.549 311.81 305.165C311.795 304.981 311.419 304.806 311.169 304.734C310.969 304.679 311.277 304.413 310.99 304.418C310.952 304.418 310.295 304.796 310.267 304.805C309.4 305.107 311.06 304.286 311.336 304.101C312.34 303.43 312.87 303.064 312.282 303.168C312.147 303.191 309.745 304.351 309.57 304.355C309.346 304.359 310.205 303.937 309.949 303.952C309.928 303.953 309.411 304.236 309.402 304.165C309.353 303.838 309.492 303.376 309.286 303.12C309.26 303.084 308.466 303.58 308.414 303.535C308.174 303.325 308.048 303.02 308.293 302.555C308.356 302.439 308.953 302.166 309.116 302.06C310.103 301.415 308.537 302.111 308.498 302.107C307.522 302.029 308.685 300.932 307.779 300.805C307.727 300.8 306.008 301.474 307.34 300.635C307.429 300.579 308.793 299.723 307.785 300.169C307.722 300.197 307.025 300.647 307.046 300.511C307.068 300.375 306.499 300.484 307.225 299.918C307.454 299.739 308.809 298.875 307.619 299.36C307.536 299.394 304.892 300.581 306.606 299.561C306.889 299.393 308.749 298.397 307.717 298.765C307.518 298.836 307.132 299.113 306.833 299.178C306.373 299.279 306.787 298.857 305.884 299.164C305.725 299.219 304.409 299.798 305.319 299.195C305.461 299.101 306.094 298.789 306.139 298.707C306.356 298.316 305.822 298.319 306.134 297.872C306.243 297.714 307.265 297.21 307.49 296.985C307.715 296.76 307.886 296.46 307.384 296.626C306.881 296.791 305.336 297.748 305.141 297.693C304.293 297.455 304.938 296.412 304.782 295.798C304.759 295.707 304.224 296.083 304.15 295.971C303.871 295.56 302.929 295.101 303.936 294.065C304.743 293.235 305.689 293.214 305.959 292.768C306.087 292.555 304.168 293.441 304.095 293.446C303.359 293.505 304.081 292.877 303.701 292.777C303.622 292.757 302.897 293.213 302.838 293.191C302.631 293.12 302.885 292.789 302.75 292.686C302.688 292.641 302.12 292.964 302.134 292.884C302.16 292.696 302.337 292.447 302.804 292.024C302.847 291.986 303.604 291.678 303.577 291.564C303.531 291.382 303.953 290.895 303.305 291.008C303.11 291.042 301.798 291.753 302.639 291.143C302.815 291.016 304.407 290.191 302.972 290.794C302.733 290.893 300.773 291.66 301.894 290.905C302.19 290.706 303.437 289.929 303.199 289.973C303.162 289.982 302.477 290.401 302.378 290.383C302.044 290.316 302.009 290.074 301.681 289.996C301.592 289.976 300.906 290.451 300.797 290.408C300.495 290.292 300.534 289.921 300.647 289.586C300.691 289.462 301.324 289.187 301.386 289.146C302.406 288.474 300.934 289.204 300.833 289.219C300.227 289.305 300.827 288.793 300.553 288.717C300.48 288.695 299.81 289.103 299.744 289.127C299.091 289.353 300.366 288.756 300.468 288.619C300.759 288.234 300.597 288.069 300.413 287.939C300.344 287.892 299.586 288.399 299.534 288.352C299.208 288.081 299.089 287.679 299.346 287.103C299.396 286.994 300.032 286.7 300.165 286.61C301.097 285.986 299.685 286.579 299.541 286.618C298.882 286.794 299.396 286.445 299.227 286.376C298.395 286.046 298.349 285.105 298.262 284.414C298.144 283.516 298.415 282.622 297.879 281.996C297.845 281.956 297.053 282.445 297.014 282.416C296.544 282.022 296.596 281.355 296.087 280.981C296.047 280.95 295.304 281.43 295.213 281.394C295.022 281.322 294.971 281.127 295.144 280.856C295.226 280.724 295.94 280.453 296.01 280.328C296.174 280.035 296.138 279.837 295.926 279.744C295.834 279.705 295.098 280.239 295.04 280.154C294.632 279.59 294.172 279.068 294.865 277.898C294.912 277.818 296.503 276.906 296.145 276.984C295.695 277.22 295.169 277.506 294.69 277.763C293.953 277.019 294.036 275.841 293.641 274.909C293.624 274.869 292.806 275.397 292.769 275.324C292.554 274.898 292.097 274.62 292.713 273.732C292.772 273.644 294.285 272.85 293.99 272.849C293.937 272.849 293.634 272.769 293.282 272.897C293.229 272.918 292.547 273.333 292.494 273.283C292.196 272.988 292.155 272.531 292.391 271.946C292.431 271.851 293.21 271.506 293.244 271.435C293.484 270.932 292.747 270.928 293.276 270.285C293.632 269.853 294.958 269.221 296.175 268.434C296.346 268.322 296.313 268.193 297.048 267.786C298.897 266.762 300.961 265.712 302.928 264.614C303.352 264.378 302.81 264.475 303.889 264.005C303.962 263.974 304.364 263.899 304.728 263.736C304.98 263.624 305.713 263.182 306.043 263.052C306.373 262.923 305.767 263.308 306.165 263.174C306.568 263.039 307.407 262.546 307.578 262.619ZM314.749 304.121C315.412 303.63 312.775 305.043 313.464 304.81C313.5 304.798 314.717 304.145 314.749 304.121ZM321.814 316.137C322.902 315.375 321.148 316.211 320.304 316.79C319.46 317.37 321.485 316.368 321.814 316.137ZM323.406 317.049C324.236 316.398 320.496 318.398 321.339 318.155C321.387 318.141 323.358 317.087 323.406 317.049ZM296.782 268.69C296.816 268.67 296.806 268.57 296.77 268.586C295.912 268.996 295.933 269.196 296.782 268.69ZM325.067 317.91C325.545 317.588 324.887 317.765 324.293 318.165C323.815 318.488 324.472 318.311 325.067 317.91ZM314.687 297.319C314.725 297.296 314.728 297.218 314.508 297.34C313.797 297.731 314.042 297.703 314.687 297.319ZM326.366 320.2C326.321 319.782 329.287 317.902 329.142 318.463C329.116 318.565 328.081 318.851 327.85 319.088C327.43 319.519 329.419 318.574 328.471 319.297C328.297 319.428 326.362 320.227 326.362 320.202C326.363 320.201 326.365 320.2 326.366 320.2ZM317.874 302.348C317.908 302.327 317.897 302.228 317.861 302.244C317.003 302.654 317.025 302.854 317.874 302.348ZM314.452 293.013C314.524 292.969 314.491 292.743 314.419 292.773C313.001 293.416 313.064 293.876 314.452 293.013ZM322.768 306.772C323.656 306.404 323.812 306.457 322.797 307.1C322.805 306.981 322.765 306.888 322.768 306.772Z" fill="#3B7D8C"/>
</svg>
