<svg width="379" height="582" viewBox="0 0 379 582" fill="none" xmlns="http://www.w3.org/2000/svg">
<path d="M59.9017 538.669C44.9375 532.064 29.7878 526.831 15.7243 519.146C12.9491 517.629 10.1605 516.12 7.49177 514.428C-0.454504 509.39 -1.38133 506.195 1.47672 497.493C9.27049 473.762 17.5917 450.223 26.1228 426.747C34.6032 403.411 44.1594 380.536 54.4517 357.962C58.7339 348.57 63.8121 339.535 67.9367 330.079C73.014 318.44 83.8802 314.371 94.0488 309.84C103.126 305.795 112.949 303.436 122.407 300.227C126.626 298.796 131.042 297.839 134.527 294.623C136.109 293.163 138.382 292.941 140.658 293.068C149.107 293.539 156.738 289.964 164.957 288.686C161.973 279.139 172.402 277.954 174.207 271.723C173.935 271.571 173.589 271.235 173.395 271.307C163.853 274.859 153.659 272.658 143.918 274.689C137.805 275.964 131.493 275.896 125.959 272.474C120.946 269.374 115.721 269.692 111.235 272.241C103.635 276.56 95.9676 274.117 88.2893 273.914C86.2824 273.861 86.0368 272.374 86.1372 270.695C87.2203 252.567 83.2008 234.923 80.888 217.129C79.4689 206.211 79.4523 195.212 78.3335 184.285C78.0786 181.797 77.9704 179.325 76.3947 176.464C68.6655 178.501 61.7115 175.842 54.9263 171.866C46.9493 167.192 42.0853 160.333 39.9679 151.547C38.1306 143.923 36.9572 136.147 38.7211 128.322C41.0947 117.792 47.3639 110.373 57.5774 106.893C61.8775 105.428 62.9062 103.388 61.9342 99.1932C58.9512 86.3221 61.1388 74.4617 69.4778 63.9552C70.1945 63.0522 71.0838 62.0369 71.2413 60.977C73.4162 46.3346 84.327 38.0268 94.7536 29.9525C117.287 12.5028 143.353 3.27597 171.569 0.696103C201.049 -1.99935 229.752 2.90487 254.284 19.4158C270.922 30.6144 285.295 45.7094 289.74 67.2322C291.899 77.6861 293.881 88.1203 294.474 98.7742C294.637 101.71 295.797 103.06 298.608 104.07C309.063 107.827 315.042 115.783 314.596 126.917C313.972 142.499 309.839 156.633 294.247 164.266C292.335 165.203 291.852 166.691 291.799 168.73C291.432 182.866 290.367 197.009 291.608 211.137C292.7 223.564 293.485 236.112 297.004 248.118C298.278 252.467 295.384 256.161 296.872 260.312C297.356 261.662 294.938 262.221 293.477 262.567C288.617 263.718 283.751 264.847 278.896 266.02C274.767 267.017 270.77 267.095 266.65 265.572C258.56 262.581 250.503 264.294 242.621 266.604C238.178 267.906 233.9 268.755 229.224 266.428C226.498 270.676 225.268 275.209 223.882 280.783C233.04 280.316 241.45 284.82 250.108 280.472C252.962 279.039 255.754 280.067 258.112 281.748C260.974 283.79 264.086 284.463 267.492 284.629C281.697 285.322 294.897 289.861 307.778 295.472C312.17 297.385 315.266 300.891 318.13 304.661C330.28 320.654 339.051 338.219 343.589 357.872C349.508 383.509 357.395 408.623 364.045 434.062C368.08 449.5 370.649 465.299 374.593 480.785C375.866 485.781 379.759 490.246 378.022 495.93C376.572 496.704 375.954 495.376 375.024 494.812C373.657 493.984 372.636 491.05 370.542 494.177C370.084 494.861 369.025 493.855 368.492 493.283C365.473 490.047 362.57 491.346 359.61 493.376C351.452 498.969 344.652 506.135 337.543 512.883C315.16 534.126 290.379 552.007 262.91 565.941C233.228 580.997 202.177 585.385 169.472 576.796C143.034 569.853 116.943 561.905 91.4353 552.147C80.8949 548.114 70.9005 542.685 59.9017 538.669ZM192.996 356.488C186.979 352.57 180.961 348.652 174.944 344.734C180.185 350.294 185.98 354.981 193.998 357.38C204.098 363.192 208.579 362.32 215.762 353.422C231.157 334.353 242.092 312.696 252.335 290.632C252.602 290.058 252.799 289.37 251.156 288.601C248.687 293.073 246.306 297.721 243.624 302.188C232.853 320.133 222.948 338.663 207.734 353.549C203.448 357.743 199.21 359.735 192.996 356.488ZM67.1342 345.913C50.2899 377.987 37.408 411.731 25.3025 445.781C19.2823 462.715 12.535 479.428 8.36853 496.973C6.26167 505.845 6.85768 506.931 14.8953 511.707C28.5543 519.823 43.3942 525.386 57.9159 531.643C62.0039 533.404 62.7783 531.533 62.9226 527.891C63.1719 521.598 63.244 515.275 64.7657 509.086C69.8128 488.558 73.7926 467.825 77.0014 446.927C80.8116 422.111 88.6979 398.022 90.3332 372.809C90.4436 371.106 91.277 369.834 93.0661 369.849C95.1795 369.865 95.8515 371.424 95.8365 373.273C95.8257 374.598 95.6648 375.929 95.4893 377.246C91.4893 407.282 82.7406 436.431 78.9331 466.513C76.1839 488.234 68.3134 509.163 69.0578 531.478C69.18 535.142 70.0888 536.62 73.2286 538.029C107.233 553.29 142.557 564.384 178.934 572.384C204.165 577.933 228.744 574.647 251.736 564.545C279.414 552.385 304.63 535.714 326.899 514.932C329.172 512.811 329.907 510.849 329.164 507.953C328.091 503.763 327.151 499.536 326.282 495.298C322.473 476.706 318.571 458.123 312.29 440.179C304.089 416.748 294.526 393.864 283.782 371.475C282.916 369.672 281.141 367.241 284.2 365.963C286.757 364.894 288.052 366.914 288.959 369.108C295.699 385.414 303.233 401.371 309.685 417.815C319.757 443.488 327.21 469.828 332.066 496.952C332.629 500.1 333.157 503.489 335.494 506.267C346.864 499.196 352.991 484.862 368.43 484.058C369.222 478.713 366.365 474.26 365.657 469.448C363.594 455.432 360.318 441.683 356.783 428.006C352.869 412.861 347.852 398.018 344.241 382.776C338.051 356.648 331.883 330.535 314.107 309.052C310.036 304.133 305.707 300.233 299.69 298.054C288.54 294.017 277.274 290.683 265.38 289.527C261.522 289.153 259.268 289.741 257.433 293.41C251.178 305.915 245.105 318.521 237.834 330.502C232.215 339.76 226.623 348.988 219.661 357.358C211.35 367.351 205.578 368.782 193.613 363.638C184.177 359.581 175.608 354.36 168.203 347.174C165.471 344.522 162.384 342.142 159.161 340.11C154.719 337.309 151.245 333.624 147.93 329.663C142.218 322.838 138.009 315.068 133.86 307.287C131.981 303.764 129.434 302.879 126.137 304.329C116.206 308.696 105.12 309.786 95.5134 314.887C86.0495 319.911 75.7302 324.134 71.9024 335.744C70.8156 339.04 68.9717 342.086 67.1342 345.913ZM179.877 242.187C181.221 247.507 182.535 252.836 183.923 258.145C184.477 260.264 184.983 262.215 188.161 261.738C190.513 261.386 191.138 263.515 191.016 265.505C190.875 267.829 190.534 270.142 190.231 272.453C189.581 277.423 189.742 282.356 190.464 287.31C193.621 282.9 196.387 278.379 197.022 273.25C198.821 258.723 200.167 244.14 201.739 229.583C201.909 228.006 202.088 226.601 200.339 225.761C198.874 225.057 196.824 224.544 197.261 222.424C197.716 220.216 200.037 220.357 201.732 219.857C203.475 219.343 205.197 218.893 207.081 218.804C217.438 218.318 227.547 216.443 237.336 212.947C249.14 208.731 259.967 203.465 264.968 190.666C268.282 182.187 273.329 174.316 273.279 164.756C273.262 161.546 275.728 161.08 278.13 160.952C280.994 160.8 283.873 160.916 287.866 160.916C284.353 157.908 280.276 156.473 282.734 152.216C284.657 148.888 288.191 147.371 291.776 148.36C296.913 149.778 294.548 154.165 294.413 157.551C296.071 157.801 297.044 156.741 297.869 155.798C306.498 145.943 310.296 134.44 307.86 121.556C306.322 113.421 298.702 107.648 290.6 109.579C280.067 112.091 275.95 116.269 274.649 127.909C274.412 130.039 274.292 132.758 271.467 132.79C268.205 132.826 268.29 129.996 268.284 127.634C268.28 126.304 268.319 124.951 268.56 123.649C269.589 118.083 269.45 112.467 269.749 106.214C265.494 107.94 262.311 110.129 259.79 113.294C257.965 115.586 256.73 117.784 260.212 119.838C261.814 120.783 262.377 122.348 261.396 124.148C260.339 126.087 258.412 126.73 256.71 125.84C253.101 123.952 249.147 123.402 245.367 122.201C242.539 121.303 240.57 119.224 239.324 116.552C237.34 112.296 237.012 108.242 239.143 103.648C244.644 91.7893 239.455 79.8905 227.977 77.125C226.457 76.7589 224.679 75.5123 223.355 77.2505C222.268 78.6778 223.413 80.1851 224.059 81.449C227.176 87.5441 225.201 92.762 221.388 97.6431C219.793 99.6843 217.392 100.683 216.64 97.4279C215.886 94.1638 215.37 91.199 211.942 89.8844C208.809 88.6828 205.562 88.1322 202.162 88.565C190.248 90.0814 178.872 88.9042 168.832 81.539C166.628 79.9225 164.901 79.904 163.688 82.6308C160.761 89.2074 154.795 91.8119 148.602 94.0174C145.312 95.1889 141.912 96.0571 138.552 97.0253C127.568 100.19 122.06 106.697 120.876 117.95C120.806 118.612 120.805 119.281 120.75 119.945C120.632 121.362 120.205 122.602 118.606 122.911C117.074 123.208 116.028 122.379 115.333 121.147C113.59 118.057 112.739 114.716 112.341 111.183C111.05 99.7255 117.049 91.4937 124.225 83.7319C126.528 81.2416 129.426 79.2321 131.185 75.7157C129.055 75.2916 127.911 76.4204 126.607 76.9701C122.94 78.5173 119.422 80.4427 115.438 81.1715C109.468 82.2638 104.719 85.2497 100.802 89.9597C94.9713 96.9699 93.9774 105.266 93.5615 113.853C93.2306 120.685 93.1404 120.677 86.5514 120.754C86.2373 120.758 85.8952 120.882 85.6167 121.039C81.5502 123.337 80.1189 120.55 79.2146 117.482C78.2712 114.282 76.4311 112.389 73.2178 111.478C61.9102 108.275 48.9865 115.564 45.6458 126.902C43.5048 134.169 44.0789 141.392 45.3923 148.624C47.4773 160.106 54.8302 167.12 65.3827 170.934C71.1831 173.031 76.7202 171.431 81.0801 167.256C86.4236 162.14 88.7102 162.518 90.8011 169.574C91.2257 171.007 91.4204 172.509 91.8568 173.938C95.199 184.882 97.1887 196.588 106.045 204.841C116.011 214.129 126.955 221.68 141.136 223.535C148.417 224.488 155.71 225.001 162.995 225.457C175.473 226.237 175.491 225.982 178.858 237.986C179.173 239.108 179.448 240.242 179.877 242.187ZM147.528 88.4217C156.31 85.2372 161.156 78.691 163.092 69.8361C163.512 67.9157 162.876 65.4465 165.728 65.3424C168.217 65.2515 168.845 67.4678 169.397 69.4228C171.764 77.802 176.371 81.796 185.129 82.6445C196.337 83.7303 207.961 80.2534 219.363 86.7925C218.305 80.4714 214.846 77.7124 210.411 75.8463C207.658 74.6878 204.727 73.9055 202.083 72.5507C200.291 71.6322 198.829 69.8777 199.883 67.6025C200.823 65.5752 202.742 65.6794 204.661 66.0966C212.623 67.8273 220.619 69.4124 228.552 71.2628C235.814 72.9564 242.085 76.0563 244.511 83.9516C246.703 91.0833 248.059 98.1557 244.628 105.357C243.13 108.502 243.121 111.887 244.848 114.994C246.791 118.487 250.495 118.576 252.041 115.066C254.659 109.119 258.931 105.018 264.675 102.178C266.885 101.085 269.267 99.8118 269.341 96.8246C269.397 94.5642 269.337 91.9897 272.275 92.0106C275.357 92.0324 275.624 94.8717 275.722 97.1973C275.879 100.951 275.764 104.716 275.764 109.246C278.804 107.899 280.958 106.529 283.302 105.995C287.706 104.99 288.718 102.239 288.286 98.2601C287.891 94.6229 287.847 90.9405 287.32 87.326C285.904 77.6161 285.092 67.514 280.632 58.7817C272.143 42.1622 259.957 28.578 242.924 20.169C237.288 17.3865 231.18 15.5037 225.189 13.5081C201.89 5.74846 177.877 4.19763 154.283 10.0219C129.322 16.1835 105.307 25.4461 87.1479 45.2491C82.5086 50.3086 78.0971 55.5346 76.307 62.2462C75.4715 65.3789 74.3884 68.2226 72.6032 70.854C66.7357 79.5026 65.7596 89.0796 67.4388 99.0719C68.5354 105.598 70.1352 106.55 77.0728 105.421C77.9986 102.345 77.146 99.2053 77.1123 96.0866C77.0859 93.6485 76.2038 90.3447 79.6681 90.1352C82.9883 89.9344 82.8752 93.2967 83.1567 95.7464C83.3847 97.7301 83.4902 99.7288 83.7495 101.708C84.0664 104.127 84.6806 106.412 87.3996 107.916C87.7607 106.741 88.1091 105.99 88.2144 105.207C90.416 88.8327 99.4917 78.6732 115.576 74.7692C117.836 74.2208 120.06 73.4903 122.251 72.7046C125.938 71.3818 129.032 69.4666 130.805 65.6075C132.416 62.1026 134.717 62.1392 137.152 65.3008C140.321 69.4154 140.571 74.036 137.3 78.1811C134.733 81.4352 131.642 84.2749 128.804 87.318C125.196 91.1875 121.876 95.2451 120.437 100.616C124.775 96.5482 129.61 93.5539 135.304 92.012C139.155 90.9691 142.973 89.8044 147.528 88.4217ZM232.95 262.474C236.318 263.009 239.492 262.412 242.757 261.413C250.118 259.162 257.715 257.133 265.292 259.896C273.003 262.708 280.071 260.331 287.213 258.202C290.774 257.14 292.418 254.931 291.439 250.636C289.779 243.349 288.544 235.927 287.725 228.496C286.655 218.793 285.21 209.143 285.273 199.287C285.335 189.615 286.06 179.994 286.323 170.346C286.381 168.224 286.039 166.272 283.235 166.16C280.757 166.061 279.036 166.754 278.751 169.605C278.197 175.151 275.781 180.145 273.899 185.294C268.018 201.384 257.861 212.672 240.642 217.418C231.316 219.989 221.978 222.234 212.495 223.994C210.479 224.368 208.336 224.635 207.997 227.159C206.291 239.866 204.661 252.583 203.004 265.297C204.993 264.093 206.224 262.744 207.211 261.236C210.676 255.937 214.32 252.653 221.817 254.28C230.218 256.102 230.416 255.192 232.95 262.474ZM120.586 265.084C123.804 265.401 126.666 266.786 129.494 268.188C131.766 269.314 134.153 270.266 136.62 270.277C150 270.335 163.11 268.132 176.114 265.185C178.16 264.722 179.458 263.83 178.834 261.387C176.612 252.686 174.453 243.969 172.26 235.26C171.503 232.256 169.672 231.052 166.467 231.02C156.639 230.922 146.803 230.127 137.234 227.976C115.63 223.12 98.8061 212.129 90.6706 190.333C88.4664 184.428 87.4611 178.015 84.0015 172.566C82.6321 173.257 82.2678 174.145 82.4882 175.228C85.213 188.624 84.4397 202.355 86.3969 215.823C88.6187 231.112 91.5668 246.302 92.0001 261.824C92.173 268.023 96.2774 270.749 102.506 269.362C103.949 269.04 105.295 268.29 106.695 267.762C110.909 266.174 115.159 264.747 120.586 265.084ZM232.432 311.276C236.612 303.984 240.988 296.789 244.267 288.544C236.993 286.347 230.186 286.94 223.408 287.196C222.133 287.244 221.065 287.916 220.702 289.097C218.522 296.173 214.858 303.113 217.085 310.802C218.271 314.894 216.863 316.342 213.089 316.766C204.748 317.702 196.834 320.194 189.089 323.363C183.268 325.744 182.244 325.132 180.182 318.944C177.713 311.535 176.017 303.871 172.437 296.826C170.965 293.928 169.316 293.086 166.113 293.95C161.139 295.292 156.052 296.274 150.963 297.101C147.57 297.653 146.226 299.19 147.164 302.537C148.424 307.033 149.987 311.291 152.842 315.183C164.239 330.721 179.617 341.429 195.72 351.336C198.253 352.895 200.409 352.551 202.533 350.682C207.039 346.716 211.529 342.733 214.893 337.686C220.62 329.093 226.325 320.486 232.432 311.276ZM204.08 274.119C202.821 281.669 197.277 286.968 193.928 293.42C192.779 295.634 191.547 297.805 190.326 299.981C189.414 301.608 188.436 303.361 186.168 302.78C183.773 302.166 184.126 300.103 184.165 298.27C184.267 293.442 184.549 288.607 184.382 283.788C184.248 279.934 185.13 275.968 183.744 271.83C178.972 274.602 175.825 278.532 172.269 281.989C171.249 282.981 170.555 284.176 171.563 285.525C178.282 294.512 181.535 304.998 184.614 315.56C185.296 317.9 186.795 318.186 188.864 317.499C195.333 315.352 201.798 313.239 208.606 312.286C211.539 311.876 213.133 310.27 211.11 307.024C209.713 304.782 209.431 301.842 210.722 299.825C215.312 292.649 216.446 284.272 219.205 276.493C221.038 271.323 224.043 266.384 224.328 260.66C215.292 259.283 215.299 259.289 210.296 265.989C208.404 268.524 206.47 271.027 204.08 274.119ZM157.7 331.807C158.467 332.345 159.077 333.239 160.7 332.84C151.916 323.57 143.555 314.255 139.41 302.038C143.145 313.201 148.72 323.196 157.7 331.807Z" fill="black"/>
<path d="M224.084 185.645C202.281 193.739 180.267 199.263 157.3 200.518C153.6 200.721 149.986 200.221 146.38 199.693C144.428 199.407 142.104 198.625 142.74 195.958C143.256 193.793 145.278 193.832 147.251 193.978C172.286 195.831 196.234 191.516 219.06 181.075C220.821 180.27 222.447 179.479 224.108 180.999C225.562 182.329 225.671 183.853 224.084 185.645Z" fill="black"/>
<path d="M127.058 146.928C130.905 146.504 134.002 147.012 134.428 151.201C134.707 153.948 130.242 158.767 127.593 158.944C124.897 159.124 123.095 157.604 122.327 155.237C121.003 151.164 122.982 148.578 127.058 146.928Z" fill="black"/>
<path d="M68.1944 159.445C71.4292 158.043 74.7725 156.967 76.2107 160.68C77.4873 163.975 76.149 167.41 72.785 169.128C69.7365 170.685 67.3031 168.916 65.5594 166.484C63.2676 163.288 65.2502 161.288 68.1944 159.445Z" fill="black"/>
<path d="M173.985 176.876C171.513 175.809 169.379 174.92 167.393 173.773C166.202 173.085 165.466 171.854 166.202 170.399C167.031 168.761 168.545 168.463 169.974 169.311C173.278 171.272 176.292 172.112 180.09 169.964C182.394 168.66 184.279 170.874 185.68 173.298C182.421 176.241 178.467 176.776 173.985 176.876Z" fill="black"/>
<path d="M287.676 125.437C291.597 123.237 292.647 125.757 292.431 128.426C292.112 132.364 291.094 136.258 290.204 140.132C289.853 141.661 288.787 142.922 286.984 142.572C285.008 142.188 284.276 140.645 284.633 138.805C285.484 134.427 286.49 130.079 287.676 125.437Z" fill="black"/>
<path d="M225.031 127.326C222.359 125.713 219.782 125.278 217.091 125.152C215.09 125.059 213.326 124.25 213.608 121.9C213.87 119.711 215.641 119.033 217.662 119.152C221.557 119.381 225.086 120.779 228.403 122.738C230.082 123.729 231.492 125.135 230.383 127.183C229.051 129.642 227.139 128.806 225.031 127.326Z" fill="black"/>
<path d="M123.577 134.201C120.159 136.098 116.724 137.289 114.257 140.233C113.28 141.399 111.527 141.579 110.207 140.337C108.877 139.086 109.163 137.555 110.066 136.246C112.435 132.816 115.928 130.69 119.756 129.599C122.874 128.711 124.439 130.573 123.577 134.201Z" fill="black"/>
<path d="M212.537 142.828C215.737 139.994 218.525 140.233 220.847 143.265C222.662 145.635 221.858 148.011 219.9 149.877C217.53 152.135 214.877 152.174 212.39 150.006C209.867 147.807 210.333 145.433 212.537 142.828Z" fill="black"/>
<path d="M64.8087 146.315C63.7322 142.798 62.7672 139.651 61.8376 136.493C61.3279 134.761 61.3701 133.036 63.364 132.399C65.3527 131.763 66.4007 133.19 67.0365 134.834C68.3462 138.219 69.4472 141.691 69.761 145.312C69.916 147.1 70.9834 149.746 68.2221 150.303C65.9525 150.761 65.6213 148.296 64.8087 146.315Z" fill="black"/>
<path d="M126.414 197.755C127.951 195.398 129.324 193.352 130.627 191.262C131.518 189.832 132.718 189.009 134.332 189.717C136.289 190.576 136.237 192.285 135.443 193.904C134.203 196.432 132.72 198.96 130.406 200.533C127.855 202.267 125.463 202.488 126.414 197.755Z" fill="black"/>
<path d="M232.775 182.848C231.923 182.298 231.247 181.969 230.962 181.432C229.905 179.44 228.345 177.531 228.963 175.064C229.226 174.013 230.267 173.589 231.327 173.694C234.361 173.996 235.078 176.745 236.177 178.793C237.787 181.792 236.117 183.006 232.775 182.848Z" fill="black"/>
<path d="M156.357 23.5784C158.386 21.7019 160.487 20.7437 162.798 20.2106C164.53 19.811 165.738 20.5099 166.384 22.108C166.966 23.548 166.527 24.9047 165.221 25.5635C158.624 28.8908 154.477 34.2946 151.628 40.9361C150.919 42.5902 149.411 43.6007 147.541 42.7471C145.714 41.9131 145.582 40.2461 146.077 38.4731C147.757 32.4568 151.567 27.8995 156.357 23.5784Z" fill="black"/>
<path d="M202.624 34.5307C199.805 30.4336 196.316 27.7826 191.897 26.3292C189.699 25.6064 187.663 24.4885 188.65 21.7357C189.753 18.6573 192.209 19.3233 194.461 20.2894C199.277 22.3555 203.464 25.2567 206.313 29.7838C207.115 31.0595 207.863 32.425 206.812 33.934C205.775 35.4238 204.405 35.5087 202.624 34.5307Z" fill="black"/>
<path d="M169.198 38.3011C165.549 40.289 164.173 38.5828 164.488 35.4538C164.877 31.597 166.786 28.2497 169.413 25.4101C170.576 24.1518 172.081 23.2822 173.742 24.7061C175.15 25.9131 174.717 27.2918 173.99 28.7252C172.429 31.8046 170.948 34.9243 169.198 38.3011Z" fill="black"/>
<path d="M213.383 31.9728C211.18 29.7136 209.204 27.7224 207.265 25.6965C205.988 24.3629 205.436 22.8223 206.833 21.305C208.12 19.9066 209.555 20.5717 210.843 21.4663C213.431 23.2623 215.94 25.1667 217.752 27.7943C218.735 29.2203 219.353 30.8684 218.006 32.3497C216.622 33.8726 215.057 33.451 213.383 31.9728Z" fill="black"/>
<path d="M259.711 229.035C259.899 234.634 259.35 239.784 260.377 244.88C260.739 246.678 260.276 248.367 258.196 248.664C256.185 248.951 255.057 247.467 254.821 245.737C254.333 242.165 253.631 238.627 254.131 234.926C254.549 231.835 254.446 228.647 253.685 225.538C253.144 223.33 252.905 220.859 255.811 220.38C258.709 219.903 259.231 222.39 259.534 224.591C259.714 225.897 259.659 227.235 259.711 229.035Z" fill="black"/>
<path d="M270.753 243.93C266.224 245.537 265.435 242.575 265.765 239.691C266.321 234.826 265.659 230.14 264.824 225.431C264.505 223.632 264.429 221.965 266.458 221.373C268.657 220.73 270.093 222.131 270.444 224.067C271.619 230.546 271.977 237.083 270.753 243.93Z" fill="black"/>
<path d="M121.362 255.676C119.192 255.777 118.101 254.754 117.817 253.152C116.747 247.112 115.778 241.054 114.829 234.993C114.599 233.523 115.188 232.344 116.734 231.953C118.069 231.616 119.157 232.367 119.588 233.45C122.184 239.976 122.732 246.914 123.328 253.817C123.374 254.355 122.303 254.989 121.362 255.676Z" fill="black"/>
<path d="M128.52 245.833C127.809 243.542 127.146 241.653 126.636 239.723C126.252 238.271 126.743 237.058 128.209 236.473C129.446 235.98 130.619 236.361 131.292 237.432C133.819 241.457 134.439 246.14 135.505 250.638C135.834 252.026 134.639 253.09 133.116 253.326C131.604 253.561 130.391 252.928 129.915 251.537C129.327 249.819 129.047 247.996 128.52 245.833Z" fill="black"/>
</svg>
