<svg width="1478" height="1170" viewBox="0 0 1478 1170" fill="none" xmlns="http://www.w3.org/2000/svg" xmlns:xlink="http://www.w3.org/1999/xlink">
<g id="Repeat group 1_inner" data-figma-trr="r6u1-0f">
<path d="M373.933 661.08C370.905 690.283 399.666 731.72 399.666 731.72L441.546 735C441.546 735 464.715 705.735 469.55 683.281C477.889 644.552 479.08 594.175 440.285 586.15C402.009 578.233 377.963 622.203 373.933 661.08Z" fill="#FF3232"/>
</g>
<use xlink:href="#Repeat%20group%201_inner" transform="translate(848.529 0.30524) rotate(60)"/>
<use xlink:href="#Repeat%20group%201_inner" transform="translate(1272.53 735.305) rotate(120)"/>
<use xlink:href="#Repeat%20group%201_inner" transform="translate(848 1470) rotate(-180)"/>
<use xlink:href="#Repeat%20group%201_inner" transform="translate(-0.528755 1469.69) rotate(-120)"/>
<use xlink:href="#Repeat%20group%201_inner" transform="translate(-424.529 734.695) rotate(-60)"/>
<circle cx="423.932" cy="734.932" r="50.4575" fill="#FF9900"/>
<g id="Repeat group 1_2_inner" data-figma-trr="r6u1-0f">
<path d="M410.933 262.08C407.905 291.283 436.666 332.72 436.666 332.72L478.546 336C478.546 336 501.715 306.735 506.55 284.281C514.889 245.552 516.08 195.175 477.285 187.15C439.009 179.233 414.963 223.203 410.933 262.08Z" fill="#FF3232"/>
</g>
<use xlink:href="#Repeat%20group%201_2_inner" transform="translate(521.485 -231.238) rotate(60)"/>
<use xlink:href="#Repeat%20group%201_2_inner" transform="translate(982.485 104.762) rotate(120)"/>
<use xlink:href="#Repeat%20group%201_2_inner" transform="translate(922 672) rotate(-180)"/>
<use xlink:href="#Repeat%20group%201_2_inner" transform="translate(400.515 903.238) rotate(-120)"/>
<use xlink:href="#Repeat%20group%201_2_inner" transform="translate(-60.4845 567.238) rotate(-60)"/>
<circle cx="460.932" cy="335.932" r="50.4575" fill="#FF9900"/>
<g id="Repeat group 1_3_inner" data-figma-trr="r6u1-0f">
<path d="M919.933 398.08C916.905 427.283 945.666 468.72 945.666 468.72L987.546 472C987.546 472 1010.72 442.735 1015.55 420.281C1023.89 381.552 1025.08 331.175 986.285 323.15C948.009 315.233 923.963 359.203 919.933 398.08Z" fill="#FF3232"/>
</g>
<use xlink:href="#Repeat%20group%201_3_inner" transform="translate(893.764 -604.045) rotate(60)"/>
<use xlink:href="#Repeat%20group%201_3_inner" transform="translate(1863.76 -132.045) rotate(120)"/>
<use xlink:href="#Repeat%20group%201_3_inner" transform="translate(1940 944) rotate(-180)"/>
<use xlink:href="#Repeat%20group%201_3_inner" transform="translate(1046.24 1548.04) rotate(-120)"/>
<use xlink:href="#Repeat%20group%201_3_inner" transform="translate(76.2361 1076.04) rotate(-60)"/>
<circle cx="969.932" cy="471.932" r="50.4575" fill="#FF9900"/>
<g id="Repeat group 1_4_inner" data-figma-trr="r6u1-0f">
<path d="M1077.93 720.08C1074.91 749.283 1103.67 790.72 1103.67 790.72L1145.55 794C1145.55 794 1168.72 764.735 1173.55 742.281C1181.89 703.552 1183.08 653.175 1144.28 645.15C1106.01 637.233 1081.96 681.203 1077.93 720.08Z" fill="#FF3232"/>
</g>
<use xlink:href="#Repeat%20group%201_4_inner" transform="translate(1251.62 -579.877) rotate(60)"/>
<use xlink:href="#Repeat%20group%201_4_inner" transform="translate(2379.62 214.123) rotate(120)"/>
<use xlink:href="#Repeat%20group%201_4_inner" transform="translate(2256 1588) rotate(-180)"/>
<use xlink:href="#Repeat%20group%201_4_inner" transform="translate(1004.38 2167.88) rotate(-120)"/>
<use xlink:href="#Repeat%20group%201_4_inner" transform="translate(-123.624 1373.88) rotate(-60)"/>
<circle cx="1127.93" cy="793.932" r="50.4575" fill="#FF9900"/>
<g id="Repeat group 1_5_inner" data-figma-trr="r6u1-0f">
<path d="M107.933 448.08C104.905 477.283 133.666 518.72 133.666 518.72L175.546 522C175.546 522 198.715 492.735 203.55 470.281C211.889 431.552 213.08 381.175 174.285 373.15C136.009 365.233 111.963 409.203 107.933 448.08Z" fill="#FF3232"/>
</g>
<use xlink:href="#Repeat%20group%201_5_inner" transform="translate(531.065 124.168) rotate(60)"/>
<use xlink:href="#Repeat%20group%201_5_inner" transform="translate(689.065 646.168) rotate(120)"/>
<use xlink:href="#Repeat%20group%201_5_inner" transform="translate(316 1044) rotate(-180)"/>
<use xlink:href="#Repeat%20group%201_5_inner" transform="translate(-215.065 919.832) rotate(-120)"/>
<use xlink:href="#Repeat%20group%201_5_inner" transform="translate(-373.065 397.832) rotate(-60)"/>
<circle cx="157.932" cy="521.932" r="50.4575" fill="#FF9900"/>
<g id="Repeat group 1_6_inner" data-figma-trr="r6u1-0f">
<path d="M746.933 112.08C743.905 141.283 772.666 182.72 772.666 182.72L814.546 186C814.546 186 837.715 156.735 842.55 134.281C850.889 95.5525 852.08 45.1746 813.285 37.1503C775.009 29.2334 750.963 73.2025 746.933 112.08Z" fill="#FF3232"/>
</g>
<use xlink:href="#Repeat%20group%201_6_inner" transform="translate(559.581 -597.222) rotate(60)"/>
<use xlink:href="#Repeat%20group%201_6_inner" transform="translate(1356.58 -411.222) rotate(120)"/>
<use xlink:href="#Repeat%20group%201_6_inner" transform="translate(1594 372) rotate(-180)"/>
<use xlink:href="#Repeat%20group%201_6_inner" transform="translate(1034.42 969.222) rotate(-120)"/>
<use xlink:href="#Repeat%20group%201_6_inner" transform="translate(237.419 783.222) rotate(-60)"/>
<circle cx="796.932" cy="185.932" r="50.4575" fill="#FF9900"/>
<g id="Repeat group 1_7_inner" data-figma-trr="r6u1-0f">
<path d="M1269.93 428.08C1266.91 457.283 1295.67 498.72 1295.67 498.72L1337.55 502C1337.55 502 1360.72 472.735 1365.55 450.281C1373.89 411.552 1375.08 361.175 1336.28 353.15C1298.01 345.233 1273.96 389.203 1269.93 428.08Z" fill="#FF3232"/>
</g>
<use xlink:href="#Repeat%20group%201_7_inner" transform="translate(1094.74 -892.154) rotate(60)"/>
<use xlink:href="#Repeat%20group%201_7_inner" transform="translate(2414.74 -390.153) rotate(120)"/>
<use xlink:href="#Repeat%20group%201_7_inner" transform="translate(2640 1004) rotate(-180)"/>
<use xlink:href="#Repeat%20group%201_7_inner" transform="translate(1545.26 1896.15) rotate(-120)"/>
<use xlink:href="#Repeat%20group%201_7_inner" transform="translate(225.255 1394.15) rotate(-60)"/>
<circle cx="1319.93" cy="501.932" r="50.4575" fill="#FF9900"/>
<path d="M472.795 144.598C429.971 296.374 391.335 513.191 520.13 513.191H1007.66C921.491 458.683 903.229 387.851 917.856 295.172C941.516 145.259 850.584 0 698.816 0H672.387C580.635 0 497.711 56.2941 472.795 144.598Z" fill="#03010F"/>
<path d="M675.117 546.691C696.89 524.031 695.213 495.248 675.117 424.096H801.989C776.228 481.237 779.349 506.957 801.989 546.691H675.117Z" fill="url(#paint0_linear_409_3134)"/>
<ellipse cx="519.734" cy="315.043" rx="50.6064" ry="48.4681" fill="#FC8658"/>
<circle cx="541.83" cy="370.638" r="22.8085" fill="url(#paint1_linear_409_3134)"/>
<circle cx="952.383" cy="352.106" r="22.8085" fill="url(#paint2_linear_409_3134)"/>
<ellipse cx="50.6064" cy="48.4681" rx="50.6064" ry="48.4681" transform="matrix(-1 0 0 1 975.191 243.766)" fill="#FC8658"/>
<path d="M956.66 259.447C956.66 349.199 861.882 447.617 744.968 447.617C628.054 447.617 533.277 349.199 533.277 259.447C533.277 169.695 628.054 96.9362 744.968 96.9362C861.882 96.9362 956.66 169.695 956.66 259.447Z" fill="url(#paint3_linear_409_3134)"/>
<path d="M793.437 52.7447C815.336 52.7448 834.904 61.6123 847.847 75.5279C852.719 71.0008 857.877 68.4253 863.287 68.4253C893.995 68.4253 920.122 85.8617 929.82 110.204C960.51 117.01 983.246 141.677 983.246 171.064C983.246 205.705 983.246 299.361 912.683 235.212C951.807 247.068 935.564 206.774 919.967 168.514C907.108 183.901 886.508 193.873 863.287 193.873C824.316 193.873 798.426 271.279 798.426 236.638C798.426 224.788 801.455 201.361 807.002 175.664C766.237 203.415 714.856 228.085 692.936 228.085C662.845 228.085 753.165 181.339 752.573 144.287C728.45 184.036 651.457 243.766 618.809 243.766C604.328 243.766 611.63 234.515 622.432 220.182C616.508 221.616 610.275 222.383 603.84 222.383C584.567 222.383 567.099 215.514 554.364 204.381C548.353 214.911 543.255 226.128 543.255 236.638C543.255 271.279 598.62 285.106 559.649 285.106C520.678 285.106 489.085 257.024 489.085 222.383C489.085 195.97 507.453 173.37 533.454 164.125C533.338 162.65 533.277 161.161 533.277 159.66C533.277 125.019 564.869 96.9363 603.84 96.9361C610.971 96.9361 617.855 97.8778 624.344 99.6265C635.051 77.1034 660.135 61.2974 689.372 61.2974C707.746 61.2974 724.479 67.5413 737.034 77.7701C749.911 62.5717 770.383 52.7447 793.437 52.7447Z" fill="#03010F"/>
<path d="M621.66 300.975C621.66 300.975 633.064 313.092 645.894 310.241C658.723 307.39 697.254 257.318 724.298 276.741C729.414 280.415 735.702 288.145 735.702 288.145" stroke="black"/>
<path d="M938.128 276.741C938.128 276.741 926.723 288.858 913.894 286.007C901.064 283.156 862.534 233.084 835.489 252.507C830.374 256.181 824.085 263.911 824.085 263.911" stroke="black"/>
<ellipse cx="708.617" cy="305.064" rx="27.0851" ry="32.7872" fill="black"/>
<ellipse cx="851.17" cy="280.83" rx="27.0851" ry="32.7872" fill="black"/>
<path d="M664.426 325.021C664.426 325.021 684.016 337.422 697.926 337.138C706.835 336.957 720.021 331.436 720.021 331.436" stroke="black"/>
<path d="M893.936 302.213C893.936 302.213 874.345 314.613 860.436 314.33C851.526 314.148 838.34 308.628 838.34 308.628" stroke="black"/>
<path d="M709.269 230.186C681.397 214.094 607.989 297.031 642.003 277.8C676.016 258.569 695.127 253.078 729.293 254.175C729.293 254.175 719.838 236.287 709.269 230.186Z" fill="black"/>
<path d="M839.09 207.377C866.963 191.285 940.37 274.222 906.357 254.991C872.343 235.76 853.232 230.27 819.066 231.366C819.066 231.366 828.522 213.478 839.09 207.377Z" fill="black"/>
<ellipse cx="720.734" cy="313.617" rx="9.26596" ry="9.97872" fill="white"/>
<ellipse cx="860.436" cy="289.383" rx="9.26596" ry="9.97872" fill="white"/>
<ellipse cx="804.84" cy="347.117" rx="19.2447" ry="16.3936" transform="rotate(-2.83036 804.84 347.117)" fill="url(#paint4_linear_409_3134)"/>
<path d="M816.245 372.777C828.005 370.552 846.894 372.777 846.894 372.777C846.894 372.777 835.674 408.873 816.245 414.83C797.813 420.481 769.202 399.862 769.202 399.862C769.202 399.862 795.415 376.717 816.245 372.777Z" fill="#F51515"/>
<path d="M769.202 399.862C769.202 399.862 798.962 398.377 816.245 391.309C829.191 386.014 846.894 372.777 846.894 372.777M846.894 372.777C846.894 372.777 835.674 408.873 816.245 414.83C797.813 420.481 769.202 399.862 769.202 399.862C769.202 399.862 795.415 376.717 816.245 372.777C828.005 370.552 846.894 372.777 846.894 372.777Z" stroke="#CA0000"/>
<path d="M679.394 270.851C679.394 270.851 697.164 260.257 709.33 261.585C718.377 262.573 730.713 270.851 730.713 270.851" stroke="#FF7A45"/>
<path d="M873.979 247.445C873.979 247.445 856.208 236.851 844.043 238.179C834.995 239.167 822.66 247.445 822.66 247.445" stroke="#FF7A45"/>
<g filter="url(#filter0_f_409_3134)">
<ellipse cx="665.851" cy="375.628" rx="32.7872" ry="27.7979" fill="#F51515" fill-opacity="0.5"/>
</g>
<g filter="url(#filter1_f_409_3134)">
<ellipse cx="881.106" cy="342.84" rx="32.7872" ry="27.7979" fill="#F51515" fill-opacity="0.5"/>
</g>
<path d="M487.66 285.819L507.617 295.798M527.574 305.777L507.617 295.798M507.617 295.798L536.84 344.979" stroke="#FF7A45"/>
<path d="M595.287 575.202L395 918.043L809.117 1169.65L1199 918.043L933.851 590.883L755.66 538.851L595.287 575.202Z" fill="#0340A8"/>
<path d="M711.468 477.553L621.66 519.606C621.66 519.606 648.062 588.621 686.521 605.851C719.036 620.418 745.006 619.884 777.755 605.851C817.274 588.918 846.181 519.606 846.181 519.606L787.021 495.372L749.245 540.989L711.468 477.553Z" fill="url(#paint5_linear_409_3134)"/>
<path d="M622.372 734.862L524.011 995.021" stroke="#052D73"/>
<path d="M952.383 752.681L1050.74 1012.84" stroke="#052D73"/>
<path d="M748.532 614.404L779.894 918.755" stroke="#8EB7FD"/>
<ellipse cx="752.096" cy="655.745" rx="17.8191" ry="17.1064" fill="white"/>
<ellipse cx="762.074" cy="707.064" rx="17.8191" ry="17.1064" fill="white"/>
<ellipse cx="766.351" cy="758.383" rx="17.8191" ry="17.1064" fill="white"/>
<ellipse cx="769.202" cy="809.702" rx="17.8191" ry="17.1064" fill="white"/>
<ellipse cx="779.181" cy="865.298" rx="17.8191" ry="17.1064" fill="white"/>
<defs>
<filter id="filter0_f_409_3134" x="593.064" y="307.83" width="145.574" height="135.596" filterUnits="userSpaceOnUse" color-interpolation-filters="sRGB">
<feFlood flood-opacity="0" result="BackgroundImageFix"/>
<feBlend mode="normal" in="SourceGraphic" in2="BackgroundImageFix" result="shape"/>
<feGaussianBlur stdDeviation="20" result="effect1_foregroundBlur_409_3134"/>
</filter>
<filter id="filter1_f_409_3134" x="808.319" y="275.043" width="145.574" height="135.596" filterUnits="userSpaceOnUse" color-interpolation-filters="sRGB">
<feFlood flood-opacity="0" result="BackgroundImageFix"/>
<feBlend mode="normal" in="SourceGraphic" in2="BackgroundImageFix" result="shape"/>
<feGaussianBlur stdDeviation="20" result="effect1_foregroundBlur_409_3134"/>
</filter>
<linearGradient id="paint0_linear_409_3134" x1="738.553" y1="424.096" x2="738.553" y2="546.691" gradientUnits="userSpaceOnUse">
<stop stop-color="#FC8658"/>
<stop offset="1" stop-color="#FFA17C"/>
</linearGradient>
<linearGradient id="paint1_linear_409_3134" x1="541.83" y1="347.83" x2="541.83" y2="393.447" gradientUnits="userSpaceOnUse">
<stop stop-color="#FF9B05"/>
<stop offset="1" stop-color="#FFB84E"/>
</linearGradient>
<linearGradient id="paint2_linear_409_3134" x1="952.383" y1="329.298" x2="952.383" y2="374.915" gradientUnits="userSpaceOnUse">
<stop stop-color="#FF9B05"/>
<stop offset="1" stop-color="#FFB84E"/>
</linearGradient>
<linearGradient id="paint3_linear_409_3134" x1="744.968" y1="96.9362" x2="744.968" y2="447.617" gradientUnits="userSpaceOnUse">
<stop stop-color="#FC8658"/>
<stop offset="1" stop-color="#FFA17C"/>
</linearGradient>
<linearGradient id="paint4_linear_409_3134" x1="804.84" y1="330.723" x2="804.84" y2="363.511" gradientUnits="userSpaceOnUse">
<stop stop-color="#FFA17C"/>
<stop offset="1" stop-color="#FF7A45"/>
</linearGradient>
<linearGradient id="paint5_linear_409_3134" x1="733.92" y1="477.553" x2="733.92" y2="616.577" gradientUnits="userSpaceOnUse">
<stop stop-color="white"/>
<stop offset="1" stop-color="#8EB7FD"/>
</linearGradient>
</defs>
</svg>
