<svg width="804" height="1170" viewBox="0 0 804 1170" fill="none" xmlns="http://www.w3.org/2000/svg">
<path d="M77.7954 144.598C34.9712 296.374 -3.66496 513.191 125.13 513.191H612.662C526.491 458.683 508.229 387.851 522.856 295.172C546.516 145.259 455.584 0 303.816 0H277.387C185.635 0 102.711 56.2941 77.7954 144.598Z" fill="#03010F"/>
<path d="M280.117 546.691C301.89 524.031 300.213 495.248 280.117 424.096H406.989C381.228 481.237 384.349 506.957 406.989 546.691H280.117Z" fill="url(#paint0_linear_407_3073)"/>
<ellipse cx="124.734" cy="315.043" rx="50.6064" ry="48.4681" fill="#FC8658"/>
<circle cx="146.83" cy="370.638" r="22.8085" fill="url(#paint1_linear_407_3073)"/>
<circle cx="557.383" cy="352.106" r="22.8085" fill="url(#paint2_linear_407_3073)"/>
<ellipse cx="50.6064" cy="48.4681" rx="50.6064" ry="48.4681" transform="matrix(-1 0 0 1 580.191 243.766)" fill="#FC8658"/>
<path d="M561.66 259.447C561.66 349.199 466.882 447.617 349.968 447.617C233.054 447.617 138.277 349.199 138.277 259.447C138.277 169.695 233.054 96.9362 349.968 96.9362C466.882 96.9362 561.66 169.695 561.66 259.447Z" fill="url(#paint3_linear_407_3073)"/>
<path d="M398.437 52.7447C420.336 52.7448 439.904 61.6123 452.847 75.5279C457.719 71.0008 462.877 68.4253 468.287 68.4253C498.995 68.4253 525.122 85.8617 534.82 110.204C565.51 117.01 588.246 141.677 588.246 171.064C588.246 205.705 588.246 299.361 517.683 235.212C556.807 247.068 540.564 206.774 524.967 168.514C512.108 183.901 491.508 193.873 468.287 193.873C429.316 193.873 403.426 271.279 403.426 236.638C403.426 224.788 406.455 201.361 412.002 175.664C371.237 203.415 319.856 228.085 297.936 228.085C267.845 228.085 358.165 181.339 357.573 144.287C333.45 184.036 256.457 243.766 223.809 243.766C209.328 243.766 216.63 234.515 227.432 220.182C221.508 221.616 215.275 222.383 208.84 222.383C189.567 222.383 172.099 215.514 159.364 204.381C153.353 214.911 148.255 226.128 148.255 236.638C148.255 271.279 203.62 285.106 164.649 285.106C125.678 285.106 94.0853 257.024 94.0851 222.383C94.0851 195.97 112.453 173.37 138.454 164.125C138.338 162.65 138.277 161.161 138.277 159.66C138.277 125.019 169.869 96.9363 208.84 96.9361C215.971 96.9361 222.855 97.8778 229.344 99.6265C240.051 77.1034 265.135 61.2974 294.372 61.2974C312.746 61.2974 329.479 67.5413 342.034 77.7701C354.911 62.5717 375.383 52.7447 398.437 52.7447Z" fill="#03010F"/>
<path d="M229.907 299.352C230.443 299.758 231.043 300.441 231.482 300.988C231.622 301.161 231.425 301.229 231.52 301.356C231.695 301.596 231.966 301.705 232.141 301.952C232.197 302.034 231.933 302.185 231.997 302.265C232.359 302.713 232.826 302.977 233.248 303.357C235.346 305.232 237.731 306.696 240.331 307.767C241.186 308.122 242.213 308.664 243.173 308.765C243.284 308.776 243.262 308.545 243.287 308.532C243.659 308.325 243.469 308.741 243.672 308.841C244.478 309.234 245.447 309.366 246.28 309.32C246.631 309.299 246.291 308.859 246.636 309.111C246.66 309.128 246.567 309.353 246.664 309.38C246.882 309.441 247.304 309.401 247.472 309.414C247.8 309.442 247.855 309.437 248.167 309.422C248.593 309.402 249.107 309.463 249.558 309.346C249.652 309.321 249.491 309.116 249.636 309.056C249.78 308.997 250.182 308.949 250.329 308.973C250.475 308.999 250.454 309.183 250.487 309.217C250.549 309.284 250.616 309.307 250.685 309.301C250.877 309.29 251.058 308.946 251.095 308.925C252.035 308.436 253 308.241 253.919 307.727C254.679 307.293 255.303 306.801 256.011 306.345C256.789 305.845 257.523 305.465 258.264 304.902C258.34 304.844 258.106 304.717 258.198 304.646C259.186 303.894 260.225 303.141 261.322 302.484C261.434 302.417 261.429 302.678 261.549 302.621C262.301 302.246 263.464 301.808 263.298 300.841C263.737 300.533 264.271 300.15 264.738 299.992C265.043 299.887 264.948 300.235 265.18 299.93C265.233 299.861 265.03 299.788 265.119 299.697C265.49 299.31 265.986 298.983 266.346 298.57C266.419 298.486 266.292 298.381 266.297 298.34C266.343 298.001 266.919 298.034 267.009 297.997C267.688 297.714 268.039 297.321 268.562 296.902C268.683 296.805 268.406 296.759 268.519 296.66C269.095 296.154 269.713 295.678 270.359 295.272C270.503 295.182 270.494 295.413 270.568 295.377C270.894 295.216 270.747 294.914 271.058 294.754C271.123 294.72 271.185 294.859 271.206 294.863C271.528 294.928 271.431 294.544 271.467 294.505C271.909 294.011 272.472 294.033 272.936 293.59C272.992 293.537 272.742 293.505 272.906 293.364C274.007 292.416 275.201 291.537 276.416 290.758C276.601 290.64 276.558 290.837 276.579 290.841C276.909 290.895 276.817 290.546 276.866 290.493C277.256 290.076 277.842 289.965 277.909 289.426C279.895 288.062 281.694 286.474 283.818 285.345C283.845 285.33 283.885 285.478 283.938 285.448C284.576 285.09 284.332 284.991 284.571 284.496C284.632 284.371 285.122 284.423 285.162 284.424C285.309 284.426 285.328 284.667 285.37 284.658C285.715 284.576 285.276 284.046 285.643 283.794C285.656 283.787 285.679 283.923 285.717 283.912C285.835 283.878 285.901 283.772 286.019 283.743C286.291 283.678 286.552 283.894 286.77 283.515C286.798 283.467 286.519 283.196 286.859 282.99C286.994 282.908 287.576 282.514 287.754 282.426C287.932 282.338 287.886 282.512 287.9 282.508C288.429 282.348 288.298 282.513 288.646 282.56C288.993 282.606 288.63 282.189 288.687 282.079C288.744 281.969 289.139 281.866 289.242 281.851C289.346 281.837 289.287 281.963 289.371 281.938C289.928 281.771 289.432 281.58 289.541 281.41C289.8 281.008 290.3 281.162 290.659 280.981C290.757 280.932 290.634 280.904 290.712 280.846C291.02 280.618 291.278 280.6 291.59 280.282C291.641 280.229 291.823 279.854 292.104 279.882C292.144 279.886 292.115 280.013 292.264 279.948C292.488 279.851 292.871 279.648 293.079 279.491C293.235 279.374 292.966 279.354 293.201 279.273C293.306 279.237 293.177 279.414 293.369 279.34C293.56 279.266 294.005 279.007 294.174 278.908C294.342 278.809 294.194 278.764 294.204 278.749C294.265 278.665 294.567 278.436 294.596 278.42C296.044 277.612 297.52 277.056 298.953 276.32C299.068 276.262 298.945 276.201 298.962 276.191C299.344 275.966 299.148 276.368 299.466 276.325C299.336 276.148 299.517 276.107 299.788 275.959C299.919 275.888 299.811 275.846 299.82 275.833C299.971 275.629 300.178 275.715 300.227 275.729C300.409 275.78 300.497 275.587 300.62 275.621C300.742 275.655 300.581 275.853 300.849 275.735C300.895 275.634 300.617 275.54 300.81 275.424C301.526 274.986 303.086 274.543 303.722 274.337C304.363 274.125 304.563 274.047 304.953 273.945C305.651 273.766 305.36 273.724 305.77 273.538C306.182 273.355 306.063 273.716 306.144 273.762C306.223 273.808 306.269 273.723 306.354 273.736C306.438 273.749 306.291 273.84 306.468 273.802C306.645 273.763 307.089 273.515 307.133 273.434C307.227 273.259 306.969 273.169 307.452 273.1C307.48 273.096 307.411 273.195 307.518 273.176C308.364 273.022 309.225 272.835 310.058 272.735C310.172 272.721 310.086 272.82 310.153 272.813C310.854 272.741 310.584 272.649 310.945 272.44C310.89 272.652 311.121 272.735 311.647 272.662C311.964 272.62 311.898 272.543 312.097 272.459C312.157 272.434 312.388 272.466 312.424 272.422C312.545 272.281 312.317 272.157 312.872 272.165C312.896 272.165 312.826 272.241 312.909 272.238C313.449 272.221 313.509 272.085 314.097 272.043C314.559 272.01 315.379 272.076 315.898 272.103C315.884 272.295 316.377 272.262 316.583 272.143C316.923 272.165 317.289 272.184 317.615 272.231C317.727 272.248 317.648 272.293 317.662 272.3C317.87 272.408 318.028 272.303 318.101 272.307C318.896 272.352 319.518 272.538 320.276 272.608C320.303 272.61 320.369 272.507 320.551 272.632C320.562 272.641 320.307 272.637 320.654 272.718C321.003 272.799 321.64 273.018 322.123 273.11C322.24 273.132 322.554 273.139 322.765 273.278C322.793 273.297 322.75 273.314 322.79 273.344C322.916 273.441 323.028 273.369 323.167 273.51C323.307 273.651 323.633 273.829 324.118 273.958C324.133 273.962 324.269 273.932 324.411 273.992C324.638 274.088 324.954 274.242 325.19 274.349C325.303 274.401 325.25 274.326 325.27 274.334C326.034 274.663 326.583 274.995 327.324 275.444C327.463 275.527 327.893 275.724 328.139 275.933C328.41 276.163 328.006 276.117 328.706 276.525C328.855 276.613 329.056 276.67 329.275 276.773C329.463 276.859 329.669 276.988 329.856 277.195C330.768 277.858 331.534 278.578 332.394 279.312C332.433 279.345 332.582 279.42 332.67 279.503C332.8 279.625 332.857 279.706 332.949 279.794C333.334 280.163 333.696 280.488 334.06 280.85C334.198 280.988 334.137 280.952 334.302 281.117C334.467 281.281 334.591 281.374 334.805 281.606C334.967 281.781 335.103 281.977 335.322 282.207C335.359 282.189 335.507 282.341 335.783 282.615C335.836 282.667 335.79 282.601 335.815 282.625C335.918 282.724 336.001 282.826 336.098 282.919C336.122 282.943 336.132 282.936 336.152 282.954C336.323 283.112 336.557 283.401 336.6 283.454C336.76 283.647 336.845 283.721 336.971 283.866C337.097 284.01 336.897 283.804 337.047 283.971C337.351 284.31 337.757 284.752 338.065 285.095C338.19 285.235 338.111 285.134 338.129 285.154C338.389 285.442 338.643 285.741 338.79 285.889C338.948 286.119 338.942 286.056 339.303 286.485C339.33 286.517 339.358 286.566 339.249 286.443C339.135 286.317 338.976 286.128 338.817 285.954C338.776 285.908 338.562 285.693 338.53 285.66C338.295 285.412 338.29 285.364 338.278 285.348C338.156 285.184 337.886 284.917 337.815 284.843C337.497 284.506 337.236 284.216 336.966 283.938C336.788 283.754 336.751 283.761 336.614 283.617C336.158 283.139 336.039 282.937 335.569 282.525C335.468 282.437 335.53 282.564 335.218 282.201C335.198 282.178 334.973 281.904 334.811 281.776C334.791 281.76 334.781 281.771 334.756 281.748C334.587 281.594 334.488 281.481 334.306 281.313C334.124 281.145 333.902 280.947 333.701 280.75C333.579 280.631 333.443 280.458 333.389 280.397C333.238 280.222 333.029 280.084 332.945 279.966C332.86 279.846 333.098 280.003 332.836 279.732C332.791 279.76 332.732 279.776 332.68 279.799C332.069 279.246 331.467 278.702 330.824 278.184C330.744 278.12 330.804 278.211 330.718 278.144C330.354 277.86 330.048 277.592 329.659 277.319C329.492 277.202 329.308 277.088 329.127 276.979C328.971 276.885 328.813 276.792 328.663 276.698C328.51 276.496 328.007 276.206 327.655 275.99C327.531 275.914 327.552 275.898 327.468 275.84C327.147 275.62 327.263 275.781 327.164 275.74C326.738 275.568 326.814 275.392 326.316 275.136C326.29 275.122 325.924 275.057 325.877 275.043C325.579 274.948 325.847 274.987 325.677 274.896C325.364 274.733 325.153 274.607 324.763 274.478C324.649 274.44 324.358 274.399 324.166 274.264C324.141 274.247 324.171 274.217 324.149 274.206C323.75 274.011 323.687 274.123 323.432 274.079C323.177 274.035 322.832 273.833 322.763 273.784C322.584 273.658 322.925 273.805 322.938 273.803C323.09 273.771 322.812 273.693 322.604 273.623C322.613 273.49 322.315 273.408 322.388 273.551C322.396 273.566 322.563 273.604 322.604 273.623C322.381 273.686 322.056 273.612 321.731 273.4C321.578 273.301 321.757 273.274 321.235 273.17C320.996 273.125 321.065 273.238 320.851 273.217C320.364 273.171 319.764 272.969 319.267 272.912C319.087 272.891 319.253 272.971 319.13 272.96C318.804 272.93 318.523 272.854 318.193 272.844C318.163 272.843 318.228 272.91 318.127 272.901C317.356 272.839 316.685 272.767 315.873 272.763C315.484 272.76 314.789 272.816 314.384 272.834C313.683 272.86 312.81 272.842 312.221 272.947C311.835 273.016 311.929 273.079 311.771 273.154C311.466 273.299 310.874 273.222 310.791 273.208C310.789 273.207 311.12 273.131 310.936 273.123C310.819 273.06 310.795 273.207 310.791 273.208C310.736 273.198 310.07 273.308 309.945 273.351C309.876 273.374 309.93 273.439 309.894 273.449C309.036 273.7 308.156 273.948 307.275 274.167C307.26 274.17 307.259 274.077 307.222 274.085C306.707 274.194 306.415 274.402 306.021 274.603C305.627 274.805 305.294 274.9 304.995 274.832C304.686 274.964 304.229 275.055 303.958 275.11C303.689 275.163 303.72 275.358 303.699 275.37C303.05 275.757 302.607 275.822 301.885 276.114C301.548 276.251 300.896 276.578 300.544 276.77C300.266 276.921 300.074 276.959 299.824 277.115C299.79 277.136 299.865 277.204 299.856 277.213C299.611 277.459 299.654 277.181 299.576 277.173C299.292 277.145 299.118 277.139 298.78 277.388C298.702 277.445 298.604 277.877 298.459 277.976C298.271 278.104 298.291 277.954 298.095 278.091C298.078 278.102 298.116 278.169 297.985 278.234C297.381 278.54 296.695 278.866 296.091 279.22C296.008 279.268 296.176 279.318 296.057 279.39C295.5 279.728 294.881 280.091 294.302 280.372C294.159 280.441 294.197 280.309 294.154 280.303C293.89 280.268 293.756 280.635 293.717 280.665C292.79 281.38 291.916 281.672 290.973 282.429C290.922 282.47 290.66 282.984 290.345 282.907C290.324 282.902 290.006 282.818 289.937 283.07C289.933 283.086 290.116 283.115 289.911 283.24C289.706 283.365 289.436 283.657 289.085 283.728C288.975 283.75 288.629 283.681 288.486 284.029C288.475 284.052 288.342 284.716 288.023 284.551C287.971 284.523 287.803 284.225 287.598 284.585C287.559 284.655 287.707 284.642 287.582 284.791C287.391 285.02 287.029 285.167 286.833 285.504C286.799 285.562 286.725 285.913 286.452 285.891C286.409 285.887 286.392 285.754 286.295 285.809C285.832 286.073 285.435 286.47 284.958 286.726C284.789 286.818 284.752 286.601 284.562 286.678C284.373 286.755 284.022 286.955 283.91 287.154C283.798 287.353 284.166 287.47 283.934 287.68C282.934 288.596 281.765 289.282 280.696 290.105C280.537 290.227 280.74 290.218 280.512 290.406C279.663 291.102 278.297 292.393 277.398 292.793C276.676 293.112 277.311 292.368 276.806 292.671C276.562 292.817 276.592 293.339 276.548 293.393C276.127 293.923 275.66 294.072 275.246 294.499C275.16 294.588 275.362 294.645 275.287 294.72C275.032 294.977 274.695 295.162 274.444 295.396C274.331 295.502 274.438 295.588 274.325 295.672C274.054 295.874 273.792 296.024 273.462 296.138C273.432 296.149 273.477 295.886 273.284 296.043C272.973 296.296 272.513 296.521 272.238 296.932C272.158 297.053 272.358 297.304 271.991 297.329C271.914 297.334 271.728 296.984 271.678 297.468C271.668 297.548 271.519 298.278 271.119 298.238C271.013 298.228 270.664 298.105 270.572 298.251C270.56 298.272 270.74 298.349 270.648 298.451C270.326 298.807 269.912 299.139 269.572 299.509C269.481 299.609 269.75 299.621 269.61 299.765C269.226 300.162 268.689 300.568 268.25 300.871C268.084 300.986 268.089 300.774 268.067 300.77C267.711 300.71 267.846 301.09 267.802 301.158C267.52 301.576 267.131 301.678 266.83 302C266.747 302.089 266.928 302.174 266.92 302.202C266.833 302.489 266.764 302.114 266.622 302.189C266.225 302.395 265.861 302.727 265.524 303.046C265.402 303.162 265.682 303.207 265.571 303.309C264.908 303.927 264.249 304.464 263.475 304.951C263.334 305.039 263.307 304.839 263.256 304.83C262.903 304.767 262.871 305.278 262.833 305.357C262.659 305.714 262.458 305.681 262.236 305.901C261.117 307.006 259.522 308.137 258.292 308.943C256.597 310.047 255.318 310.713 253.434 311.657C253.318 311.712 253.538 311.893 253.438 311.945C252.891 312.226 252.114 312.513 251.433 312.667C250.656 312.847 249.885 312.975 249.097 313.116C248.98 313.136 249.176 313.365 248.987 313.406C248.602 313.492 248.092 313.524 247.694 313.466C247.499 313.437 247.75 313.205 247.556 313.181C247.106 313.122 246.625 313.112 246.168 313.146C245.972 313.161 246.259 313.429 246.002 313.428C244.254 313.42 242.515 313.231 240.927 312.487C240.817 312.436 240.862 311.873 240.597 311.914C240.537 312.059 240.488 312.235 240.436 312.393C238.009 311.856 235.826 310.745 233.714 309.592C233.625 309.543 233.628 309.899 233.454 309.806C232.441 309.262 231.426 308.769 230.629 307.872C230.55 307.783 230.916 307.347 230.59 307.233C230.533 307.214 230.072 306.993 229.89 307.017C229.864 307.022 229.786 307.291 229.645 307.204C228.834 306.693 228.067 306.049 227.429 305.327C227.324 305.207 227.64 305.09 227.567 305.003C227.072 304.406 226.284 304.025 225.914 303.324C225.665 302.849 226.161 302.612 226.321 302.069C226.354 302.002 226.131 301.767 226.343 301.562C226.847 301.021 227.504 300.537 228.03 299.948C228.128 299.862 227.907 299.744 228.043 299.673C228.043 299.673 228.043 299.673 228.043 299.673C228.072 299.642 228.116 299.598 228.214 299.566C228.234 299.548 228.5 299.631 228.648 299.583C228.742 299.543 228.904 299.281 229.045 299.25C229.182 299.217 229.094 299.482 229.284 299.47C229.483 299.463 229.686 299.189 229.907 299.352ZM302.74 275.366C302.468 275.374 302.561 275.711 302.785 275.529C302.796 275.52 302.753 275.366 302.74 275.366ZM331.517 278.653C331.293 278.4 331.075 278.309 331.23 278.486C331.387 278.662 331.585 278.729 331.517 278.653ZM334.088 280.972C333.828 280.681 333.704 280.719 334.022 280.992C334.041 281.007 334.104 280.989 334.088 280.972ZM227.287 302.773C227.296 302.763 227.146 302.608 227.131 302.613C226.823 302.778 227.127 303.088 227.287 302.773ZM336.513 283.412C336.436 283.316 336.188 283.07 336.283 283.189C336.359 283.283 336.609 283.531 336.513 283.412ZM290.785 281.161C290.778 281.157 290.649 281.232 290.672 281.262C290.745 281.36 290.902 281.22 290.785 281.161ZM340.4 287.782C339.844 287.124 339.516 286.714 340.118 287.435C340.228 287.566 339.882 287.158 340.02 287.324C340.277 287.63 340.443 287.826 340.701 288.144C340.745 288.196 340.437 287.825 340.399 287.781C340.4 287.781 340.4 287.782 340.4 287.782ZM302.451 275.035C302.444 275.032 302.251 275.104 302.248 275.111C302.185 275.255 302.574 275.108 302.451 275.035ZM283.454 285.78C283.436 285.775 283.042 286.044 283.037 286.064C282.997 286.429 283.791 285.883 283.454 285.78ZM315.906 272.108C316.134 272.037 316.407 272.041 316.582 272.143C316.358 272.127 316.132 272.118 315.906 272.108Z" fill="black"/>
<path d="M539.881 275.118C539.344 275.524 538.745 276.207 538.305 276.754C538.165 276.927 538.362 276.995 538.267 277.122C538.092 277.362 537.821 277.471 537.647 277.718C537.59 277.8 537.854 277.95 537.79 278.031C537.428 278.479 536.961 278.743 536.539 279.123C534.441 280.998 532.056 282.462 529.456 283.533C528.602 283.888 527.575 284.43 526.614 284.531C526.503 284.542 526.525 284.311 526.501 284.298C526.128 284.091 526.318 284.507 526.115 284.607C525.309 285 524.341 285.132 523.508 285.086C523.156 285.065 523.496 284.625 523.152 284.877C523.127 284.894 523.22 285.119 523.124 285.146C522.905 285.207 522.483 285.166 522.315 285.18C521.987 285.207 521.932 285.203 521.62 285.188C521.194 285.168 520.681 285.229 520.229 285.112C520.135 285.087 520.296 284.882 520.151 284.822C520.007 284.763 519.605 284.715 519.458 284.739C519.312 284.765 519.333 284.949 519.301 284.983C519.239 285.05 519.171 285.073 519.103 285.067C518.91 285.056 518.729 284.712 518.692 284.691C517.752 284.202 516.787 284.007 515.868 283.493C515.108 283.059 514.484 282.567 513.777 282.111C512.998 281.611 512.264 281.231 511.523 280.667C511.447 280.61 511.681 280.483 511.589 280.412C510.601 279.66 509.562 278.906 508.465 278.25C508.353 278.183 508.358 278.444 508.239 278.387C507.486 278.012 506.323 277.574 506.49 276.607C506.05 276.299 505.516 275.916 505.05 275.758C504.745 275.653 504.84 276.001 504.607 275.696C504.554 275.627 504.757 275.554 504.669 275.462C504.297 275.076 503.801 274.749 503.441 274.336C503.368 274.252 503.495 274.147 503.49 274.106C503.444 273.767 502.868 273.8 502.778 273.763C502.099 273.48 501.749 273.087 501.225 272.668C501.104 272.571 501.381 272.525 501.269 272.426C500.692 271.92 500.074 271.444 499.428 271.038C499.284 270.948 499.293 271.179 499.219 271.143C498.893 270.982 499.04 270.68 498.73 270.52C498.664 270.486 498.602 270.625 498.582 270.629C498.26 270.694 498.356 270.31 498.32 270.271C497.878 269.777 497.315 269.799 496.851 269.356C496.795 269.303 497.045 269.271 496.882 269.13C495.78 268.182 494.586 267.302 493.372 266.524C493.186 266.406 493.229 266.603 493.208 266.607C492.878 266.661 492.97 266.312 492.921 266.259C492.531 265.842 491.946 265.731 491.878 265.192C489.892 263.828 488.094 262.24 485.969 261.111C485.942 261.096 485.902 261.244 485.849 261.214C485.212 260.856 485.456 260.757 485.216 260.262C485.155 260.137 484.666 260.189 484.626 260.19C484.478 260.192 484.459 260.433 484.417 260.424C484.072 260.342 484.511 259.811 484.144 259.56C484.132 259.553 484.108 259.689 484.07 259.678C483.952 259.644 483.886 259.538 483.768 259.509C483.497 259.444 483.236 259.66 483.017 259.281C482.989 259.233 483.268 258.962 482.928 258.756C482.793 258.674 482.211 258.28 482.033 258.192C481.855 258.104 481.902 258.278 481.887 258.274C481.358 258.114 481.489 258.279 481.141 258.326C480.795 258.372 481.158 257.955 481.101 257.845C481.043 257.735 480.648 257.632 480.545 257.617C480.441 257.603 480.5 257.729 480.416 257.704C479.859 257.537 480.355 257.346 480.246 257.175C479.987 256.774 479.487 256.928 479.128 256.747C479.031 256.698 479.153 256.67 479.075 256.612C478.767 256.384 478.509 256.366 478.197 256.048C478.146 255.995 477.964 255.62 477.683 255.647C477.643 255.652 477.673 255.779 477.523 255.714C477.299 255.617 476.916 255.414 476.708 255.257C476.552 255.14 476.821 255.12 476.586 255.039C476.482 255.003 476.611 255.18 476.419 255.106C476.228 255.032 475.782 254.772 475.613 254.674C475.445 254.575 475.594 254.53 475.584 254.515C475.522 254.431 475.22 254.202 475.191 254.186C473.743 253.378 472.267 252.821 470.834 252.086C470.719 252.028 470.842 251.967 470.825 251.957C470.444 251.732 470.639 252.134 470.321 252.091C470.452 251.914 470.271 251.873 469.999 251.725C469.868 251.654 469.976 251.612 469.967 251.599C469.816 251.395 469.61 251.481 469.56 251.495C469.378 251.546 469.291 251.353 469.168 251.387C469.046 251.421 469.206 251.619 468.938 251.501C468.892 251.4 469.17 251.306 468.977 251.19C468.261 250.752 466.702 250.309 466.065 250.103C465.424 249.891 465.224 249.813 464.834 249.711C464.136 249.532 464.427 249.49 464.017 249.304C463.605 249.121 463.724 249.482 463.643 249.528C463.564 249.574 463.519 249.489 463.434 249.502C463.349 249.515 463.497 249.606 463.319 249.568C463.142 249.529 462.698 249.281 462.654 249.2C462.56 249.025 462.818 248.935 462.335 248.866C462.307 248.862 462.376 248.961 462.269 248.942C461.423 248.788 460.562 248.601 459.729 248.5C459.615 248.487 459.701 248.586 459.635 248.579C458.934 248.507 459.203 248.415 458.842 248.206C458.898 248.418 458.667 248.501 458.14 248.428C457.823 248.386 457.889 248.309 457.69 248.225C457.631 248.2 457.399 248.232 457.363 248.188C457.242 248.047 457.47 247.923 456.916 247.93C456.891 247.931 456.961 248.007 456.878 248.004C456.339 247.987 456.278 247.851 455.69 247.809C455.228 247.776 454.408 247.842 453.889 247.869C453.903 248.061 453.411 248.028 453.204 247.909C452.865 247.931 452.498 247.95 452.173 247.997C452.061 248.013 452.139 248.059 452.125 248.066C451.917 248.174 451.759 248.069 451.686 248.073C450.892 248.117 450.269 248.304 449.511 248.374C449.484 248.376 449.418 248.273 449.237 248.398C449.225 248.406 449.481 248.403 449.133 248.484C448.784 248.565 448.147 248.784 447.665 248.876C447.547 248.898 447.233 248.905 447.022 249.044C446.994 249.063 447.037 249.08 446.998 249.11C446.871 249.207 446.76 249.135 446.62 249.276C446.481 249.417 446.155 249.595 445.669 249.724C445.654 249.728 445.518 249.698 445.376 249.758C445.149 249.854 444.833 250.008 444.597 250.115C444.484 250.167 444.537 250.092 444.518 250.1C443.754 250.429 443.205 250.761 442.463 251.21C442.324 251.293 441.895 251.49 441.648 251.699C441.377 251.929 441.781 251.883 441.081 252.291C440.932 252.379 440.731 252.436 440.512 252.539C440.325 252.625 440.118 252.754 439.932 252.961C439.019 253.624 438.253 254.344 437.393 255.078C437.355 255.111 437.205 255.186 437.117 255.269C436.987 255.391 436.93 255.472 436.838 255.56C436.453 255.928 436.092 256.254 435.727 256.616C435.589 256.754 435.651 256.718 435.486 256.883C435.321 257.047 435.197 257.14 434.982 257.371C434.82 257.547 434.684 257.743 434.465 257.972C434.428 257.955 434.28 258.107 434.004 258.381C433.952 258.433 433.997 258.367 433.972 258.391C433.869 258.49 433.787 258.592 433.689 258.685C433.665 258.709 433.655 258.702 433.635 258.72C433.465 258.878 433.23 259.167 433.187 259.22C433.028 259.413 432.942 259.487 432.816 259.632C432.69 259.776 432.89 259.57 432.74 259.737C432.436 260.076 432.031 260.518 431.723 260.861C431.597 261.001 431.676 260.9 431.658 260.92C431.398 261.208 431.144 261.507 430.997 261.655C430.839 261.885 430.845 261.822 430.484 262.251C430.457 262.283 430.429 262.332 430.539 262.209C430.652 262.083 430.812 261.894 430.97 261.72C431.011 261.674 431.225 261.459 431.257 261.426C431.493 261.178 431.497 261.13 431.509 261.114C431.631 260.95 431.901 260.683 431.972 260.609C432.29 260.272 432.551 259.982 432.821 259.703C432.999 259.52 433.036 259.527 433.173 259.382C433.629 258.905 433.748 258.703 434.218 258.291C434.32 258.203 434.258 258.33 434.569 257.967C434.589 257.944 434.814 257.67 434.976 257.542C434.996 257.526 435.006 257.537 435.031 257.514C435.2 257.36 435.299 257.247 435.481 257.079C435.664 256.911 435.885 256.713 436.086 256.516C436.208 256.397 436.344 256.224 436.398 256.163C436.549 255.988 436.758 255.85 436.842 255.732C436.927 255.612 436.689 255.769 436.952 255.498C436.996 255.525 437.055 255.542 437.107 255.565C437.719 255.012 438.32 254.468 438.963 253.95C439.043 253.886 438.983 253.977 439.069 253.91C439.434 253.626 439.739 253.358 440.128 253.085C440.295 252.968 440.479 252.854 440.66 252.745C440.817 252.651 440.974 252.558 441.125 252.464C441.277 252.262 441.781 251.972 442.133 251.756C442.256 251.68 442.235 251.664 442.32 251.605C442.64 251.386 442.524 251.547 442.623 251.506C443.049 251.334 442.973 251.158 443.471 250.902C443.497 250.888 443.864 250.823 443.91 250.809C444.208 250.714 443.94 250.753 444.111 250.662C444.423 250.499 444.634 250.373 445.024 250.244C445.138 250.206 445.429 250.165 445.621 250.03C445.647 250.013 445.617 249.983 445.638 249.972C446.038 249.777 446.1 249.889 446.355 249.845C446.611 249.801 446.956 249.599 447.024 249.55C447.203 249.424 446.862 249.571 446.849 249.569C446.697 249.537 446.975 249.459 447.184 249.389C447.175 249.256 447.472 249.174 447.4 249.317C447.391 249.332 447.224 249.37 447.184 249.389C447.407 249.452 447.731 249.377 448.056 249.166C448.21 249.067 448.03 249.04 448.553 248.936C448.791 248.891 448.723 249.004 448.936 248.983C449.423 248.937 450.023 248.735 450.52 248.678C450.7 248.657 450.534 248.737 450.657 248.725C450.983 248.696 451.265 248.62 451.595 248.61C451.624 248.609 451.559 248.676 451.661 248.667C452.431 248.605 453.102 248.533 453.914 248.529C454.303 248.525 454.999 248.582 455.403 248.6C456.104 248.626 456.977 248.608 457.566 248.713C457.952 248.782 457.858 248.845 458.017 248.92C458.322 249.065 458.914 248.988 458.996 248.974C458.999 248.973 458.667 248.897 458.852 248.889C458.969 248.826 458.992 248.973 458.996 248.974C459.051 248.964 459.717 249.074 459.842 249.117C459.911 249.14 459.857 249.205 459.894 249.215C460.752 249.466 461.632 249.714 462.512 249.933C462.528 249.936 462.528 249.843 462.565 249.851C463.08 249.96 463.372 250.168 463.766 250.369C464.16 250.571 464.493 250.666 464.792 250.598C465.101 250.729 465.558 250.821 465.829 250.876C466.099 250.929 466.068 251.124 466.088 251.136C466.737 251.523 467.181 251.588 467.902 251.88C468.24 252.017 468.891 252.344 469.243 252.536C469.521 252.687 469.714 252.725 469.964 252.881C469.997 252.902 469.922 252.97 469.931 252.979C470.176 253.225 470.133 252.946 470.211 252.939C470.495 252.911 470.669 252.905 471.007 253.154C471.086 253.211 471.184 253.643 471.328 253.742C471.517 253.869 471.496 253.719 471.693 253.857C471.71 253.868 471.672 253.935 471.802 254C472.406 254.306 473.092 254.632 473.696 254.986C473.779 255.034 473.612 255.084 473.73 255.156C474.288 255.494 474.906 255.857 475.486 256.138C475.628 256.207 475.59 256.075 475.633 256.069C475.898 256.034 476.032 256.401 476.07 256.431C476.998 257.146 477.871 257.437 478.814 258.195C478.866 258.236 479.127 258.75 479.442 258.673C479.463 258.668 479.781 258.584 479.85 258.836C479.854 258.852 479.671 258.881 479.876 259.006C480.082 259.131 480.351 259.423 480.702 259.494C480.813 259.516 481.158 259.446 481.302 259.795C481.312 259.818 481.445 260.482 481.764 260.317C481.816 260.289 481.985 259.991 482.19 260.351C482.228 260.421 482.08 260.408 482.205 260.557C482.397 260.786 482.758 260.933 482.954 261.27C482.989 261.328 483.063 261.679 483.336 261.657C483.378 261.653 483.396 261.52 483.493 261.575C483.955 261.839 484.352 262.236 484.829 262.492C484.999 262.584 485.035 262.367 485.225 262.444C485.414 262.521 485.765 262.721 485.877 262.92C485.989 263.119 485.622 263.236 485.853 263.446C486.854 264.362 488.023 265.048 489.092 265.871C489.25 265.993 489.048 265.984 489.275 266.172C490.124 266.868 491.49 268.158 492.389 268.559C493.111 268.878 492.476 268.134 492.981 268.437C493.225 268.583 493.196 269.105 493.239 269.159C493.66 269.689 494.127 269.838 494.541 270.265C494.627 270.354 494.425 270.411 494.5 270.486C494.756 270.743 495.093 270.928 495.344 271.162C495.456 271.268 495.349 271.354 495.463 271.438C495.733 271.64 495.995 271.79 496.325 271.904C496.355 271.915 496.311 271.652 496.503 271.809C496.814 272.062 497.275 272.287 497.549 272.698C497.629 272.819 497.429 273.07 497.796 273.095C497.873 273.1 498.059 272.75 498.109 273.234C498.119 273.314 498.268 274.044 498.668 274.004C498.774 273.994 499.123 273.871 499.215 274.017C499.227 274.038 499.047 274.115 499.139 274.217C499.462 274.573 499.875 274.905 500.215 275.275C500.307 275.375 500.038 275.387 500.177 275.531C500.561 275.928 501.098 276.334 501.537 276.637C501.703 276.752 501.698 276.54 501.72 276.536C502.076 276.476 501.941 276.856 501.986 276.924C502.267 277.342 502.656 277.444 502.957 277.766C503.041 277.855 502.86 277.94 502.868 277.968C502.954 278.254 503.023 277.88 503.165 277.954C503.562 278.161 503.926 278.493 504.263 278.812C504.385 278.928 504.106 278.973 504.216 279.075C504.88 279.693 505.538 280.23 506.312 280.717C506.453 280.805 506.48 280.605 506.531 280.596C506.884 280.533 506.916 281.044 506.954 281.123C507.128 281.48 507.329 281.447 507.551 281.667C508.671 282.772 510.265 283.903 511.495 284.709C513.191 285.813 514.469 286.479 516.354 287.422C516.469 287.478 516.25 287.659 516.349 287.711C516.896 287.992 517.674 288.279 518.355 288.433C519.131 288.613 519.902 288.741 520.69 288.882C520.807 288.902 520.611 289.131 520.8 289.172C521.185 289.258 521.696 289.29 522.094 289.232C522.288 289.203 522.038 288.971 522.231 288.947C522.682 288.888 523.162 288.878 523.62 288.912C523.815 288.927 523.529 289.195 523.785 289.194C525.533 289.186 527.272 288.997 528.86 288.253C528.97 288.202 528.925 287.639 529.191 287.68C529.25 287.825 529.299 288.001 529.352 288.159C531.778 287.622 533.961 286.511 536.073 285.357C536.162 285.309 536.159 285.665 536.333 285.572C537.347 285.028 538.362 284.534 539.158 283.638C539.238 283.549 538.871 283.113 539.197 282.999C539.255 282.98 539.715 282.759 539.898 282.783C539.923 282.788 540.002 283.057 540.142 282.97C540.954 282.459 541.72 281.815 542.358 281.093C542.464 280.973 542.147 280.856 542.22 280.768C542.715 280.172 543.504 279.791 543.874 279.09C544.122 278.615 543.626 278.378 543.466 277.835C543.433 277.768 543.656 277.533 543.445 277.328C542.941 276.787 542.283 276.303 541.758 275.714C541.659 275.628 541.881 275.51 541.745 275.439C541.745 275.439 541.745 275.439 541.745 275.439C541.715 275.408 541.671 275.363 541.574 275.332C541.554 275.314 541.287 275.397 541.139 275.349C541.045 275.309 540.883 275.047 540.743 275.016C540.605 274.983 540.693 275.248 540.503 275.236C540.305 275.229 540.101 274.955 539.881 275.118ZM467.048 251.132C467.319 251.14 467.226 251.477 467.002 251.295C466.991 251.286 467.034 251.132 467.048 251.132ZM438.271 254.419C438.494 254.166 438.713 254.075 438.557 254.252C438.401 254.428 438.202 254.495 438.271 254.419ZM435.699 256.738C435.96 256.447 436.083 256.485 435.765 256.757C435.747 256.773 435.684 256.755 435.699 256.738ZM542.5 278.539C542.491 278.529 542.642 278.374 542.656 278.379C542.965 278.544 542.66 278.854 542.5 278.539ZM433.275 259.178C433.351 259.082 433.6 258.836 433.505 258.955C433.428 259.049 433.179 259.297 433.275 259.178ZM479.002 256.927C479.009 256.923 479.138 256.997 479.116 257.028C479.042 257.126 478.885 256.986 479.002 256.927ZM429.387 263.548C429.944 262.89 430.272 262.48 429.669 263.201C429.56 263.332 429.905 262.924 429.767 263.09C429.511 263.396 429.344 263.592 429.086 263.91C429.043 263.962 429.35 263.591 429.388 263.547C429.388 263.547 429.387 263.548 429.387 263.548ZM467.337 250.801C467.343 250.798 467.537 250.87 467.54 250.877C467.602 251.021 467.213 250.874 467.337 250.801ZM486.333 261.546C486.351 261.541 486.746 261.81 486.75 261.83C486.791 262.195 485.997 261.649 486.333 261.546ZM453.881 247.874C453.654 247.803 453.381 247.807 453.205 247.909C453.429 247.893 453.655 247.884 453.881 247.874Z" fill="black"/>
<ellipse cx="313.617" cy="305.064" rx="27.0851" ry="32.7872" fill="black"/>
<ellipse cx="456.17" cy="280.83" rx="27.0851" ry="32.7872" fill="black"/>
<path d="M269.426 325.021C269.426 325.021 289.016 337.422 302.926 337.138C311.835 336.957 325.021 331.436 325.021 331.436" stroke="black"/>
<path d="M498.936 302.213C498.936 302.213 479.345 314.613 465.436 314.33C456.526 314.148 443.34 308.628 443.34 308.628" stroke="black"/>
<path d="M314.269 230.186C286.397 214.094 212.989 297.031 247.003 277.8C281.016 258.569 300.127 253.078 334.293 254.175C334.293 254.175 324.838 236.287 314.269 230.186Z" fill="black"/>
<path d="M444.09 207.377C471.963 191.285 545.37 274.222 511.357 254.991C477.343 235.76 458.232 230.27 424.066 231.366C424.066 231.366 433.522 213.478 444.09 207.377Z" fill="black"/>
<ellipse cx="325.734" cy="313.617" rx="9.26596" ry="9.97872" fill="white"/>
<ellipse cx="465.436" cy="289.383" rx="9.26596" ry="9.97872" fill="white"/>
<ellipse cx="409.84" cy="347.117" rx="19.2447" ry="16.3936" transform="rotate(-2.83036 409.84 347.117)" fill="url(#paint4_linear_407_3073)"/>
<path d="M421.245 372.777C433.005 370.552 451.894 372.777 451.894 372.777C451.894 372.777 440.674 408.873 421.245 414.83C402.813 420.481 374.202 399.862 374.202 399.862C374.202 399.862 400.415 376.717 421.245 372.777Z" fill="#F51515"/>
<path d="M374.202 399.862C374.202 399.862 403.962 398.377 421.245 391.309C434.191 386.014 451.894 372.777 451.894 372.777M451.894 372.777C451.894 372.777 440.674 408.873 421.245 414.83C402.813 420.481 374.202 399.862 374.202 399.862C374.202 399.862 400.415 376.717 421.245 372.777C433.005 370.552 451.894 372.777 451.894 372.777Z" stroke="#CA0000"/>
<path d="M284.394 270.851C284.394 270.851 302.164 260.257 314.33 261.585C323.377 262.573 335.713 270.851 335.713 270.851" stroke="#FF7A45"/>
<path d="M478.979 247.445C478.979 247.445 461.208 236.851 449.043 238.179C439.995 239.167 427.66 247.445 427.66 247.445" stroke="#FF7A45"/>
<g filter="url(#filter0_f_407_3073)">
<ellipse cx="270.851" cy="375.628" rx="32.7872" ry="27.7979" fill="#F51515" fill-opacity="0.5"/>
</g>
<g filter="url(#filter1_f_407_3073)">
<ellipse cx="486.106" cy="342.84" rx="32.7872" ry="27.7979" fill="#F51515" fill-opacity="0.5"/>
</g>
<path d="M92.6596 285.819L112.617 295.798M132.574 305.777L112.617 295.798M112.617 295.798L141.84 344.979" stroke="#FF7A45"/>
<path d="M200.287 575.202L0 918.043L414.117 1169.65L804 918.043L538.851 590.883L360.66 538.851L200.287 575.202Z" fill="#0340A8"/>
<path d="M316.468 477.553L226.66 519.606C226.66 519.606 253.062 588.621 291.521 605.851C324.036 620.418 350.006 619.884 382.755 605.851C422.274 588.918 451.181 519.606 451.181 519.606L392.021 495.372L354.245 540.989L316.468 477.553Z" fill="url(#paint5_linear_407_3073)"/>
<path d="M227.372 734.862L129.011 995.021" stroke="#052D73"/>
<path d="M557.383 752.681L655.745 1012.84" stroke="#052D73"/>
<path d="M353.532 614.404L384.894 918.755" stroke="#8EB7FD"/>
<ellipse cx="357.096" cy="655.745" rx="17.8191" ry="17.1064" fill="white"/>
<ellipse cx="367.074" cy="707.064" rx="17.8191" ry="17.1064" fill="white"/>
<ellipse cx="371.351" cy="758.383" rx="17.8191" ry="17.1064" fill="white"/>
<ellipse cx="374.202" cy="809.702" rx="17.8191" ry="17.1064" fill="white"/>
<ellipse cx="384.181" cy="865.298" rx="17.8191" ry="17.1064" fill="white"/>
<defs>
<filter id="filter0_f_407_3073" x="198.064" y="307.83" width="145.574" height="135.596" filterUnits="userSpaceOnUse" color-interpolation-filters="sRGB">
<feFlood flood-opacity="0" result="BackgroundImageFix"/>
<feBlend mode="normal" in="SourceGraphic" in2="BackgroundImageFix" result="shape"/>
<feGaussianBlur stdDeviation="20" result="effect1_foregroundBlur_407_3073"/>
</filter>
<filter id="filter1_f_407_3073" x="413.319" y="275.043" width="145.574" height="135.596" filterUnits="userSpaceOnUse" color-interpolation-filters="sRGB">
<feFlood flood-opacity="0" result="BackgroundImageFix"/>
<feBlend mode="normal" in="SourceGraphic" in2="BackgroundImageFix" result="shape"/>
<feGaussianBlur stdDeviation="20" result="effect1_foregroundBlur_407_3073"/>
</filter>
<linearGradient id="paint0_linear_407_3073" x1="343.553" y1="424.096" x2="343.553" y2="546.691" gradientUnits="userSpaceOnUse">
<stop stop-color="#FC8658"/>
<stop offset="1" stop-color="#FFA17C"/>
</linearGradient>
<linearGradient id="paint1_linear_407_3073" x1="146.83" y1="347.83" x2="146.83" y2="393.447" gradientUnits="userSpaceOnUse">
<stop stop-color="#FF9B05"/>
<stop offset="1" stop-color="#FFB84E"/>
</linearGradient>
<linearGradient id="paint2_linear_407_3073" x1="557.383" y1="329.298" x2="557.383" y2="374.915" gradientUnits="userSpaceOnUse">
<stop stop-color="#FF9B05"/>
<stop offset="1" stop-color="#FFB84E"/>
</linearGradient>
<linearGradient id="paint3_linear_407_3073" x1="349.968" y1="96.9362" x2="349.968" y2="447.617" gradientUnits="userSpaceOnUse">
<stop stop-color="#FC8658"/>
<stop offset="1" stop-color="#FFA17C"/>
</linearGradient>
<linearGradient id="paint4_linear_407_3073" x1="409.84" y1="330.723" x2="409.84" y2="363.511" gradientUnits="userSpaceOnUse">
<stop stop-color="#FFA17C"/>
<stop offset="1" stop-color="#FF7A45"/>
</linearGradient>
<linearGradient id="paint5_linear_407_3073" x1="338.92" y1="477.553" x2="338.92" y2="616.577" gradientUnits="userSpaceOnUse">
<stop stop-color="white"/>
<stop offset="1" stop-color="#8EB7FD"/>
</linearGradient>
</defs>
</svg>
