<svg width="1478" height="1170" viewBox="0 0 1478 1170" fill="none" xmlns="http://www.w3.org/2000/svg" xmlns:xlink="http://www.w3.org/1999/xlink">
<g id="Repeat group 1_inner" data-figma-trr="r6u1-0f">
<path d="M373.933 661.08C370.905 690.283 399.666 731.72 399.666 731.72L441.546 735C441.546 735 464.715 705.735 469.55 683.281C477.889 644.552 479.08 594.175 440.285 586.15C402.009 578.233 377.963 622.203 373.933 661.08Z" fill="#FF3232"/>
</g>
<use xlink:href="#Repeat%20group%201_inner" transform="translate(848.529 0.30524) rotate(60)"/>
<use xlink:href="#Repeat%20group%201_inner" transform="translate(1272.53 735.305) rotate(120)"/>
<use xlink:href="#Repeat%20group%201_inner" transform="translate(848 1470) rotate(-180)"/>
<use xlink:href="#Repeat%20group%201_inner" transform="translate(-0.528755 1469.69) rotate(-120)"/>
<use xlink:href="#Repeat%20group%201_inner" transform="translate(-424.529 734.695) rotate(-60)"/>
<circle cx="423.932" cy="734.932" r="50.4575" fill="#FF9900"/>
<g id="Repeat group 1_2_inner" data-figma-trr="r6u1-0f">
<path d="M410.933 262.08C407.905 291.283 436.666 332.72 436.666 332.72L478.546 336C478.546 336 501.715 306.735 506.55 284.281C514.889 245.552 516.08 195.175 477.285 187.15C439.009 179.233 414.963 223.203 410.933 262.08Z" fill="#FF3232"/>
</g>
<use xlink:href="#Repeat%20group%201_2_inner" transform="translate(521.485 -231.238) rotate(60)"/>
<use xlink:href="#Repeat%20group%201_2_inner" transform="translate(982.485 104.762) rotate(120)"/>
<use xlink:href="#Repeat%20group%201_2_inner" transform="translate(922 672) rotate(-180)"/>
<use xlink:href="#Repeat%20group%201_2_inner" transform="translate(400.515 903.238) rotate(-120)"/>
<use xlink:href="#Repeat%20group%201_2_inner" transform="translate(-60.4845 567.238) rotate(-60)"/>
<circle cx="460.932" cy="335.932" r="50.4575" fill="#FF9900"/>
<g id="Repeat group 1_3_inner" data-figma-trr="r6u1-0f">
<path d="M919.933 398.08C916.905 427.283 945.666 468.72 945.666 468.72L987.546 472C987.546 472 1010.72 442.735 1015.55 420.281C1023.89 381.552 1025.08 331.175 986.285 323.15C948.009 315.233 923.963 359.203 919.933 398.08Z" fill="#FF3232"/>
</g>
<use xlink:href="#Repeat%20group%201_3_inner" transform="translate(893.764 -604.045) rotate(60)"/>
<use xlink:href="#Repeat%20group%201_3_inner" transform="translate(1863.76 -132.045) rotate(120)"/>
<use xlink:href="#Repeat%20group%201_3_inner" transform="translate(1940 944) rotate(-180)"/>
<use xlink:href="#Repeat%20group%201_3_inner" transform="translate(1046.24 1548.04) rotate(-120)"/>
<use xlink:href="#Repeat%20group%201_3_inner" transform="translate(76.2361 1076.04) rotate(-60)"/>
<circle cx="969.932" cy="471.932" r="50.4575" fill="#FF9900"/>
<g id="Repeat group 1_4_inner" data-figma-trr="r6u1-0f">
<path d="M1077.93 720.08C1074.91 749.283 1103.67 790.72 1103.67 790.72L1145.55 794C1145.55 794 1168.72 764.735 1173.55 742.281C1181.89 703.552 1183.08 653.175 1144.28 645.15C1106.01 637.233 1081.96 681.203 1077.93 720.08Z" fill="#FF3232"/>
</g>
<use xlink:href="#Repeat%20group%201_4_inner" transform="translate(1251.62 -579.877) rotate(60)"/>
<use xlink:href="#Repeat%20group%201_4_inner" transform="translate(2379.62 214.123) rotate(120)"/>
<use xlink:href="#Repeat%20group%201_4_inner" transform="translate(2256 1588) rotate(-180)"/>
<use xlink:href="#Repeat%20group%201_4_inner" transform="translate(1004.38 2167.88) rotate(-120)"/>
<use xlink:href="#Repeat%20group%201_4_inner" transform="translate(-123.624 1373.88) rotate(-60)"/>
<circle cx="1127.93" cy="793.932" r="50.4575" fill="#FF9900"/>
<g id="Repeat group 1_5_inner" data-figma-trr="r6u1-0f">
<path d="M107.933 448.08C104.905 477.283 133.666 518.72 133.666 518.72L175.546 522C175.546 522 198.715 492.735 203.55 470.281C211.889 431.552 213.08 381.175 174.285 373.15C136.009 365.233 111.963 409.203 107.933 448.08Z" fill="#FF3232"/>
</g>
<use xlink:href="#Repeat%20group%201_5_inner" transform="translate(531.065 124.168) rotate(60)"/>
<use xlink:href="#Repeat%20group%201_5_inner" transform="translate(689.065 646.168) rotate(120)"/>
<use xlink:href="#Repeat%20group%201_5_inner" transform="translate(316 1044) rotate(-180)"/>
<use xlink:href="#Repeat%20group%201_5_inner" transform="translate(-215.065 919.832) rotate(-120)"/>
<use xlink:href="#Repeat%20group%201_5_inner" transform="translate(-373.065 397.832) rotate(-60)"/>
<circle cx="157.932" cy="521.932" r="50.4575" fill="#FF9900"/>
<g id="Repeat group 1_6_inner" data-figma-trr="r6u1-0f">
<path d="M746.933 112.08C743.905 141.283 772.666 182.72 772.666 182.72L814.546 186C814.546 186 837.715 156.735 842.55 134.281C850.889 95.5525 852.08 45.1746 813.285 37.1503C775.009 29.2334 750.963 73.2025 746.933 112.08Z" fill="#FF3232"/>
</g>
<use xlink:href="#Repeat%20group%201_6_inner" transform="translate(559.581 -597.222) rotate(60)"/>
<use xlink:href="#Repeat%20group%201_6_inner" transform="translate(1356.58 -411.222) rotate(120)"/>
<use xlink:href="#Repeat%20group%201_6_inner" transform="translate(1594 372) rotate(-180)"/>
<use xlink:href="#Repeat%20group%201_6_inner" transform="translate(1034.42 969.222) rotate(-120)"/>
<use xlink:href="#Repeat%20group%201_6_inner" transform="translate(237.419 783.222) rotate(-60)"/>
<circle cx="796.932" cy="185.932" r="50.4575" fill="#FF9900"/>
<g id="Repeat group 1_7_inner" data-figma-trr="r6u1-0f">
<path d="M1269.93 428.08C1266.91 457.283 1295.67 498.72 1295.67 498.72L1337.55 502C1337.55 502 1360.72 472.735 1365.55 450.281C1373.89 411.552 1375.08 361.175 1336.28 353.15C1298.01 345.233 1273.96 389.203 1269.93 428.08Z" fill="#FF3232"/>
</g>
<use xlink:href="#Repeat%20group%201_7_inner" transform="translate(1094.74 -892.154) rotate(60)"/>
<use xlink:href="#Repeat%20group%201_7_inner" transform="translate(2414.74 -390.153) rotate(120)"/>
<use xlink:href="#Repeat%20group%201_7_inner" transform="translate(2640 1004) rotate(-180)"/>
<use xlink:href="#Repeat%20group%201_7_inner" transform="translate(1545.26 1896.15) rotate(-120)"/>
<use xlink:href="#Repeat%20group%201_7_inner" transform="translate(225.255 1394.15) rotate(-60)"/>
<circle cx="1319.93" cy="501.932" r="50.4575" fill="#FF9900"/>
<path d="M472.795 144.598C429.971 296.374 391.335 513.191 520.13 513.191H1007.66C921.491 458.683 903.229 387.851 917.856 295.172C941.516 145.259 850.584 0 698.816 0H672.387C580.635 0 497.711 56.2941 472.795 144.598Z" fill="#03010F"/>
<path d="M675.117 546.691C696.89 524.031 695.213 495.248 675.117 424.096H801.989C776.228 481.237 779.349 506.957 801.989 546.691H675.117Z" fill="url(#paint0_linear_409_3134)"/>
<ellipse cx="519.734" cy="315.043" rx="50.6064" ry="48.4681" fill="#FC8658"/>
<circle cx="541.83" cy="370.638" r="22.8085" fill="url(#paint1_linear_409_3134)"/>
<circle cx="952.383" cy="352.106" r="22.8085" fill="url(#paint2_linear_409_3134)"/>
<ellipse cx="50.6064" cy="48.4681" rx="50.6064" ry="48.4681" transform="matrix(-1 0 0 1 975.191 243.766)" fill="#FC8658"/>
<path d="M956.66 259.447C956.66 349.199 861.882 447.617 744.968 447.617C628.054 447.617 533.277 349.199 533.277 259.447C533.277 169.695 628.054 96.9362 744.968 96.9362C861.882 96.9362 956.66 169.695 956.66 259.447Z" fill="url(#paint3_linear_409_3134)"/>
<path d="M793.437 52.7447C815.336 52.7448 834.904 61.6123 847.847 75.5279C852.719 71.0008 857.877 68.4253 863.287 68.4253C893.995 68.4253 920.122 85.8617 929.82 110.204C960.51 117.01 983.246 141.677 983.246 171.064C983.246 205.705 983.246 299.361 912.683 235.212C951.807 247.068 935.564 206.774 919.967 168.514C907.108 183.901 886.508 193.873 863.287 193.873C824.316 193.873 798.426 271.279 798.426 236.638C798.426 224.788 801.455 201.361 807.002 175.664C766.237 203.415 714.856 228.085 692.936 228.085C662.845 228.085 753.165 181.339 752.573 144.287C728.45 184.036 651.457 243.766 618.809 243.766C604.328 243.766 611.63 234.515 622.432 220.182C616.508 221.616 610.275 222.383 603.84 222.383C584.567 222.383 567.099 215.514 554.364 204.381C548.353 214.911 543.255 226.128 543.255 236.638C543.255 271.279 598.62 285.106 559.649 285.106C520.678 285.106 489.085 257.024 489.085 222.383C489.085 195.97 507.453 173.37 533.454 164.125C533.338 162.65 533.277 161.161 533.277 159.66C533.277 125.019 564.869 96.9363 603.84 96.9361C610.971 96.9361 617.855 97.8778 624.344 99.6265C635.051 77.1034 660.135 61.2974 689.372 61.2974C707.746 61.2974 724.479 67.5413 737.034 77.7701C749.911 62.5717 770.383 52.7447 793.437 52.7447Z" fill="#03010F"/>
<path d="M624.907 299.352C625.443 299.758 626.043 300.441 626.482 300.988C626.622 301.161 626.425 301.229 626.52 301.356C626.695 301.596 626.966 301.705 627.141 301.952C627.197 302.034 626.933 302.185 626.997 302.265C627.359 302.713 627.826 302.977 628.248 303.357C630.346 305.232 632.731 306.696 635.331 307.767C636.186 308.122 637.213 308.664 638.173 308.765C638.284 308.776 638.262 308.545 638.287 308.532C638.659 308.325 638.469 308.741 638.672 308.841C639.478 309.234 640.447 309.366 641.28 309.32C641.631 309.299 641.291 308.859 641.636 309.111C641.66 309.128 641.567 309.353 641.664 309.38C641.882 309.441 642.304 309.401 642.472 309.414C642.8 309.442 642.855 309.437 643.167 309.422C643.593 309.402 644.107 309.463 644.558 309.346C644.652 309.321 644.491 309.116 644.636 309.056C644.78 308.997 645.182 308.949 645.329 308.973C645.475 308.999 645.454 309.183 645.487 309.217C645.549 309.284 645.616 309.307 645.685 309.301C645.877 309.29 646.058 308.946 646.095 308.925C647.035 308.436 648 308.241 648.919 307.727C649.679 307.293 650.303 306.801 651.011 306.345C651.789 305.845 652.523 305.465 653.264 304.902C653.34 304.844 653.106 304.717 653.198 304.646C654.186 303.894 655.225 303.141 656.322 302.484C656.434 302.417 656.429 302.678 656.549 302.621C657.301 302.246 658.464 301.808 658.298 300.841C658.737 300.533 659.271 300.15 659.738 299.992C660.043 299.887 659.948 300.235 660.18 299.93C660.233 299.861 660.03 299.788 660.119 299.697C660.49 299.31 660.986 298.983 661.346 298.57C661.419 298.486 661.292 298.381 661.297 298.34C661.343 298.001 661.919 298.034 662.009 297.997C662.688 297.714 663.039 297.321 663.562 296.902C663.683 296.805 663.406 296.759 663.519 296.66C664.095 296.154 664.713 295.678 665.359 295.272C665.503 295.182 665.494 295.413 665.568 295.377C665.894 295.216 665.747 294.914 666.058 294.754C666.123 294.72 666.185 294.859 666.206 294.863C666.528 294.928 666.431 294.544 666.467 294.505C666.909 294.011 667.472 294.033 667.936 293.59C667.992 293.537 667.742 293.505 667.906 293.364C669.007 292.416 670.201 291.537 671.416 290.758C671.601 290.64 671.558 290.837 671.579 290.841C671.909 290.895 671.817 290.546 671.866 290.493C672.256 290.076 672.842 289.965 672.909 289.426C674.895 288.062 676.694 286.474 678.818 285.345C678.845 285.33 678.885 285.478 678.938 285.448C679.576 285.09 679.332 284.991 679.571 284.496C679.632 284.371 680.122 284.423 680.162 284.424C680.309 284.426 680.328 284.667 680.37 284.658C680.715 284.576 680.276 284.046 680.643 283.794C680.656 283.787 680.679 283.923 680.717 283.912C680.835 283.878 680.901 283.772 681.019 283.743C681.291 283.678 681.552 283.894 681.77 283.515C681.798 283.467 681.519 283.196 681.859 282.99C681.994 282.908 682.576 282.514 682.754 282.426C682.932 282.338 682.886 282.512 682.9 282.508C683.429 282.348 683.298 282.513 683.646 282.56C683.993 282.606 683.63 282.189 683.687 282.079C683.744 281.969 684.139 281.866 684.242 281.851C684.346 281.837 684.287 281.963 684.371 281.938C684.928 281.771 684.432 281.58 684.541 281.41C684.8 281.008 685.3 281.162 685.659 280.981C685.757 280.932 685.634 280.904 685.712 280.846C686.02 280.618 686.278 280.6 686.59 280.282C686.641 280.229 686.823 279.854 687.104 279.882C687.144 279.886 687.115 280.013 687.264 279.948C687.488 279.851 687.871 279.648 688.079 279.491C688.235 279.374 687.966 279.354 688.201 279.273C688.306 279.237 688.177 279.414 688.369 279.34C688.56 279.266 689.005 279.007 689.174 278.908C689.342 278.809 689.194 278.764 689.204 278.749C689.265 278.665 689.567 278.436 689.596 278.42C691.044 277.612 692.52 277.056 693.953 276.32C694.068 276.262 693.945 276.201 693.962 276.191C694.344 275.966 694.148 276.368 694.466 276.325C694.336 276.148 694.517 276.107 694.788 275.959C694.919 275.888 694.811 275.846 694.82 275.833C694.971 275.629 695.178 275.715 695.227 275.729C695.409 275.78 695.497 275.587 695.62 275.621C695.742 275.655 695.581 275.853 695.849 275.735C695.895 275.634 695.617 275.54 695.81 275.424C696.526 274.986 698.086 274.543 698.722 274.337C699.363 274.125 699.563 274.047 699.953 273.945C700.651 273.766 700.36 273.724 700.77 273.538C701.182 273.355 701.063 273.716 701.144 273.762C701.223 273.808 701.269 273.723 701.354 273.736C701.438 273.749 701.291 273.84 701.468 273.802C701.645 273.763 702.089 273.515 702.133 273.434C702.227 273.259 701.969 273.169 702.452 273.1C702.48 273.096 702.411 273.195 702.518 273.176C703.364 273.022 704.225 272.835 705.058 272.735C705.172 272.721 705.086 272.82 705.153 272.813C705.854 272.741 705.584 272.649 705.945 272.44C705.89 272.652 706.121 272.735 706.647 272.662C706.964 272.62 706.898 272.543 707.097 272.459C707.157 272.434 707.388 272.466 707.424 272.422C707.545 272.281 707.317 272.157 707.872 272.165C707.896 272.165 707.826 272.241 707.909 272.238C708.449 272.221 708.509 272.085 709.097 272.043C709.559 272.01 710.379 272.076 710.898 272.103C710.884 272.295 711.377 272.262 711.583 272.143C711.923 272.165 712.289 272.184 712.615 272.231C712.727 272.248 712.648 272.293 712.662 272.3C712.87 272.408 713.028 272.303 713.101 272.307C713.896 272.352 714.518 272.538 715.276 272.608C715.303 272.61 715.369 272.507 715.551 272.632C715.562 272.641 715.307 272.637 715.654 272.718C716.003 272.799 716.64 273.018 717.123 273.11C717.24 273.132 717.554 273.139 717.765 273.278C717.793 273.297 717.75 273.314 717.79 273.344C717.916 273.441 718.028 273.369 718.167 273.51C718.307 273.651 718.633 273.829 719.118 273.958C719.133 273.962 719.269 273.932 719.411 273.992C719.638 274.088 719.954 274.242 720.19 274.349C720.303 274.401 720.25 274.326 720.27 274.334C721.034 274.663 721.583 274.995 722.324 275.444C722.463 275.527 722.893 275.724 723.139 275.933C723.41 276.163 723.006 276.117 723.706 276.525C723.855 276.613 724.056 276.67 724.275 276.773C724.463 276.859 724.669 276.988 724.856 277.195C725.768 277.858 726.534 278.578 727.394 279.312C727.433 279.345 727.582 279.42 727.67 279.503C727.8 279.625 727.857 279.706 727.949 279.794C728.334 280.163 728.696 280.488 729.06 280.85C729.198 280.988 729.137 280.952 729.302 281.117C729.467 281.281 729.591 281.374 729.805 281.606C729.967 281.781 730.103 281.977 730.322 282.207C730.359 282.189 730.507 282.341 730.783 282.615C730.836 282.667 730.79 282.601 730.815 282.625C730.918 282.724 731.001 282.826 731.098 282.919C731.122 282.943 731.132 282.936 731.152 282.954C731.323 283.112 731.557 283.401 731.6 283.454C731.76 283.647 731.845 283.721 731.971 283.866C732.097 284.01 731.897 283.804 732.047 283.971C732.351 284.31 732.757 284.752 733.065 285.095C733.19 285.235 733.111 285.134 733.129 285.154C733.389 285.442 733.643 285.741 733.79 285.889C733.948 286.119 733.942 286.056 734.303 286.485C734.33 286.517 734.358 286.566 734.249 286.443C734.135 286.317 733.976 286.128 733.817 285.954C733.776 285.908 733.562 285.693 733.53 285.66C733.295 285.412 733.29 285.364 733.278 285.348C733.156 285.184 732.886 284.917 732.815 284.843C732.497 284.506 732.236 284.216 731.966 283.938C731.788 283.754 731.751 283.761 731.614 283.617C731.158 283.139 731.039 282.937 730.569 282.525C730.468 282.437 730.53 282.564 730.218 282.201C730.198 282.178 729.973 281.904 729.811 281.776C729.791 281.76 729.781 281.771 729.756 281.748C729.587 281.594 729.488 281.481 729.306 281.313C729.124 281.145 728.902 280.947 728.701 280.75C728.579 280.631 728.443 280.458 728.389 280.397C728.238 280.222 728.029 280.084 727.945 279.966C727.86 279.846 728.098 280.003 727.836 279.732C727.791 279.76 727.732 279.776 727.68 279.799C727.069 279.246 726.467 278.702 725.824 278.184C725.744 278.12 725.804 278.211 725.718 278.144C725.354 277.86 725.048 277.592 724.659 277.319C724.492 277.202 724.308 277.088 724.127 276.979C723.971 276.885 723.813 276.792 723.663 276.698C723.51 276.496 723.007 276.206 722.655 275.99C722.531 275.914 722.552 275.898 722.468 275.84C722.147 275.62 722.263 275.781 722.164 275.74C721.738 275.568 721.814 275.392 721.316 275.136C721.29 275.122 720.924 275.057 720.877 275.043C720.579 274.948 720.847 274.987 720.677 274.896C720.364 274.733 720.153 274.607 719.763 274.478C719.649 274.44 719.358 274.399 719.166 274.264C719.141 274.247 719.171 274.217 719.149 274.206C718.75 274.011 718.687 274.123 718.432 274.079C718.177 274.035 717.832 273.833 717.763 273.784C717.584 273.658 717.925 273.805 717.938 273.803C718.09 273.771 717.812 273.693 717.604 273.623C717.613 273.49 717.315 273.408 717.388 273.551C717.396 273.566 717.563 273.604 717.604 273.623C717.381 273.686 717.056 273.612 716.731 273.4C716.578 273.301 716.757 273.274 716.235 273.17C715.996 273.125 716.065 273.238 715.851 273.217C715.364 273.171 714.764 272.969 714.267 272.912C714.087 272.891 714.253 272.971 714.13 272.96C713.804 272.93 713.523 272.854 713.193 272.844C713.163 272.843 713.228 272.91 713.127 272.901C712.356 272.839 711.685 272.767 710.873 272.763C710.484 272.76 709.789 272.816 709.384 272.834C708.683 272.86 707.81 272.842 707.221 272.947C706.835 273.016 706.929 273.079 706.771 273.154C706.466 273.299 705.874 273.222 705.791 273.208C705.789 273.207 706.12 273.131 705.936 273.123C705.819 273.06 705.795 273.207 705.791 273.208C705.736 273.198 705.07 273.308 704.945 273.351C704.876 273.374 704.93 273.439 704.894 273.449C704.036 273.7 703.156 273.948 702.275 274.167C702.26 274.17 702.259 274.077 702.222 274.085C701.707 274.194 701.415 274.402 701.021 274.603C700.627 274.805 700.294 274.9 699.995 274.832C699.686 274.964 699.229 275.055 698.958 275.11C698.689 275.163 698.72 275.358 698.699 275.37C698.05 275.757 697.607 275.822 696.885 276.114C696.548 276.251 695.896 276.578 695.544 276.77C695.266 276.921 695.074 276.959 694.824 277.115C694.79 277.136 694.865 277.204 694.856 277.213C694.611 277.459 694.654 277.181 694.576 277.173C694.292 277.145 694.118 277.139 693.78 277.388C693.702 277.445 693.604 277.877 693.459 277.976C693.271 278.104 693.291 277.954 693.095 278.091C693.078 278.102 693.116 278.169 692.985 278.234C692.381 278.54 691.695 278.866 691.091 279.22C691.008 279.268 691.176 279.318 691.057 279.39C690.5 279.728 689.881 280.091 689.302 280.372C689.159 280.441 689.197 280.309 689.154 280.303C688.89 280.268 688.756 280.635 688.717 280.665C687.79 281.38 686.916 281.672 685.973 282.429C685.922 282.47 685.66 282.984 685.345 282.907C685.324 282.902 685.006 282.818 684.937 283.07C684.933 283.086 685.116 283.115 684.911 283.24C684.706 283.365 684.436 283.657 684.085 283.728C683.975 283.75 683.629 283.681 683.486 284.029C683.475 284.052 683.342 284.716 683.023 284.551C682.971 284.523 682.803 284.225 682.598 284.585C682.559 284.655 682.707 284.642 682.582 284.791C682.391 285.02 682.029 285.167 681.833 285.504C681.799 285.562 681.725 285.913 681.452 285.891C681.409 285.887 681.392 285.754 681.295 285.809C680.832 286.073 680.435 286.47 679.958 286.726C679.789 286.818 679.752 286.601 679.562 286.678C679.373 286.755 679.022 286.955 678.91 287.154C678.798 287.353 679.166 287.47 678.934 287.68C677.934 288.596 676.765 289.282 675.696 290.105C675.537 290.227 675.74 290.218 675.512 290.406C674.663 291.102 673.297 292.393 672.398 292.793C671.676 293.112 672.311 292.368 671.806 292.671C671.562 292.817 671.592 293.339 671.548 293.393C671.127 293.923 670.66 294.072 670.246 294.499C670.16 294.588 670.362 294.645 670.287 294.72C670.032 294.977 669.695 295.162 669.444 295.396C669.331 295.502 669.438 295.588 669.325 295.672C669.054 295.874 668.792 296.024 668.462 296.138C668.432 296.149 668.477 295.886 668.284 296.043C667.973 296.296 667.513 296.521 667.238 296.932C667.158 297.053 667.358 297.304 666.991 297.329C666.914 297.334 666.728 296.984 666.678 297.468C666.668 297.548 666.519 298.278 666.119 298.238C666.013 298.228 665.664 298.105 665.572 298.251C665.56 298.272 665.74 298.349 665.648 298.451C665.326 298.807 664.912 299.139 664.572 299.509C664.481 299.609 664.75 299.621 664.61 299.765C664.226 300.162 663.689 300.568 663.25 300.871C663.084 300.986 663.089 300.774 663.067 300.77C662.711 300.71 662.846 301.09 662.802 301.158C662.52 301.576 662.131 301.678 661.83 302C661.747 302.089 661.928 302.174 661.92 302.202C661.833 302.489 661.764 302.114 661.622 302.189C661.225 302.395 660.861 302.727 660.524 303.046C660.402 303.162 660.682 303.207 660.571 303.309C659.908 303.927 659.249 304.464 658.475 304.951C658.334 305.039 658.307 304.839 658.256 304.83C657.903 304.767 657.871 305.278 657.833 305.357C657.659 305.714 657.458 305.681 657.236 305.901C656.117 307.006 654.522 308.137 653.292 308.943C651.597 310.047 650.318 310.713 648.434 311.657C648.318 311.712 648.538 311.893 648.438 311.945C647.891 312.226 647.114 312.513 646.433 312.667C645.656 312.847 644.885 312.975 644.097 313.116C643.98 313.136 644.176 313.365 643.987 313.406C643.602 313.492 643.092 313.524 642.694 313.466C642.499 313.437 642.75 313.205 642.556 313.181C642.106 313.122 641.625 313.112 641.168 313.146C640.972 313.161 641.259 313.429 641.002 313.428C639.254 313.42 637.515 313.231 635.927 312.487C635.817 312.436 635.862 311.873 635.597 311.914C635.537 312.059 635.488 312.235 635.436 312.393C633.009 311.856 630.826 310.745 628.714 309.592C628.625 309.543 628.628 309.899 628.454 309.806C627.441 309.262 626.426 308.769 625.629 307.872C625.55 307.783 625.916 307.347 625.59 307.233C625.533 307.214 625.072 306.993 624.89 307.017C624.864 307.022 624.786 307.291 624.645 307.204C623.834 306.693 623.067 306.049 622.429 305.327C622.324 305.207 622.64 305.09 622.567 305.003C622.072 304.406 621.284 304.025 620.914 303.324C620.665 302.849 621.161 302.612 621.321 302.069C621.354 302.002 621.131 301.767 621.343 301.562C621.847 301.021 622.504 300.537 623.03 299.948C623.128 299.862 622.907 299.744 623.043 299.673C623.043 299.673 623.043 299.673 623.043 299.673C623.072 299.642 623.116 299.598 623.214 299.566C623.234 299.548 623.5 299.631 623.648 299.583C623.742 299.543 623.904 299.281 624.045 299.25C624.182 299.217 624.094 299.482 624.284 299.47C624.483 299.463 624.686 299.189 624.907 299.352ZM697.74 275.366C697.468 275.374 697.561 275.711 697.785 275.529C697.796 275.52 697.753 275.366 697.74 275.366ZM726.517 278.653C726.293 278.4 726.075 278.309 726.23 278.486C726.387 278.662 726.585 278.729 726.517 278.653ZM729.088 280.972C728.828 280.681 728.704 280.719 729.022 280.992C729.041 281.007 729.104 280.989 729.088 280.972ZM622.287 302.773C622.296 302.763 622.146 302.608 622.131 302.613C621.823 302.778 622.127 303.088 622.287 302.773ZM731.513 283.412C731.436 283.316 731.188 283.07 731.283 283.189C731.359 283.283 731.609 283.531 731.513 283.412ZM685.785 281.161C685.778 281.157 685.649 281.232 685.672 281.262C685.745 281.36 685.902 281.22 685.785 281.161ZM735.4 287.782C734.844 287.124 734.516 286.714 735.118 287.435C735.228 287.566 734.882 287.158 735.02 287.324C735.277 287.63 735.443 287.826 735.701 288.144C735.745 288.196 735.437 287.825 735.399 287.781C735.4 287.781 735.4 287.782 735.4 287.782ZM697.451 275.035C697.444 275.032 697.251 275.104 697.248 275.111C697.185 275.255 697.574 275.108 697.451 275.035ZM678.454 285.78C678.436 285.775 678.042 286.044 678.037 286.064C677.997 286.429 678.791 285.883 678.454 285.78ZM710.906 272.108C711.134 272.037 711.407 272.041 711.582 272.143C711.358 272.127 711.132 272.118 710.906 272.108Z" fill="black"/>
<path d="M934.881 275.118C934.344 275.524 933.745 276.207 933.305 276.754C933.165 276.927 933.362 276.995 933.267 277.122C933.092 277.362 932.821 277.471 932.647 277.718C932.59 277.8 932.854 277.95 932.79 278.031C932.428 278.479 931.961 278.743 931.539 279.123C929.441 280.998 927.056 282.462 924.456 283.533C923.602 283.888 922.575 284.43 921.614 284.531C921.503 284.542 921.525 284.311 921.501 284.298C921.128 284.091 921.318 284.507 921.115 284.607C920.309 285 919.341 285.132 918.508 285.086C918.156 285.065 918.496 284.625 918.152 284.877C918.127 284.894 918.22 285.119 918.124 285.146C917.905 285.207 917.483 285.166 917.315 285.18C916.987 285.207 916.932 285.203 916.62 285.188C916.194 285.168 915.681 285.229 915.229 285.112C915.135 285.087 915.296 284.882 915.151 284.822C915.007 284.763 914.605 284.715 914.458 284.739C914.312 284.765 914.333 284.949 914.301 284.983C914.239 285.05 914.171 285.073 914.103 285.067C913.91 285.056 913.729 284.712 913.692 284.691C912.752 284.202 911.787 284.007 910.868 283.493C910.108 283.059 909.484 282.567 908.777 282.111C907.998 281.611 907.264 281.231 906.523 280.667C906.447 280.61 906.681 280.483 906.589 280.412C905.601 279.66 904.562 278.906 903.465 278.25C903.353 278.183 903.358 278.444 903.239 278.387C902.486 278.012 901.323 277.574 901.49 276.607C901.05 276.299 900.516 275.916 900.05 275.758C899.745 275.653 899.84 276.001 899.607 275.696C899.554 275.627 899.757 275.554 899.669 275.462C899.297 275.076 898.801 274.749 898.441 274.336C898.368 274.252 898.495 274.147 898.49 274.106C898.444 273.767 897.868 273.8 897.778 273.763C897.099 273.48 896.749 273.087 896.225 272.668C896.104 272.571 896.381 272.525 896.269 272.426C895.692 271.92 895.074 271.444 894.428 271.038C894.284 270.948 894.293 271.179 894.219 271.143C893.893 270.982 894.04 270.68 893.73 270.52C893.664 270.486 893.602 270.625 893.582 270.629C893.26 270.694 893.356 270.31 893.32 270.271C892.878 269.777 892.315 269.799 891.851 269.356C891.795 269.303 892.045 269.271 891.882 269.13C890.78 268.182 889.586 267.302 888.372 266.524C888.186 266.406 888.229 266.603 888.208 266.607C887.878 266.661 887.97 266.312 887.921 266.259C887.531 265.842 886.946 265.731 886.878 265.192C884.892 263.828 883.094 262.24 880.969 261.111C880.942 261.096 880.902 261.244 880.849 261.214C880.212 260.856 880.456 260.757 880.216 260.262C880.155 260.137 879.666 260.189 879.626 260.19C879.478 260.192 879.459 260.433 879.417 260.424C879.072 260.342 879.511 259.811 879.144 259.56C879.132 259.553 879.108 259.689 879.07 259.678C878.952 259.644 878.886 259.538 878.768 259.509C878.497 259.444 878.236 259.66 878.017 259.281C877.989 259.233 878.268 258.962 877.928 258.756C877.793 258.674 877.211 258.28 877.033 258.192C876.855 258.104 876.902 258.278 876.887 258.274C876.358 258.114 876.489 258.279 876.141 258.326C875.795 258.372 876.158 257.955 876.101 257.845C876.043 257.735 875.648 257.632 875.545 257.617C875.441 257.603 875.5 257.729 875.416 257.704C874.859 257.537 875.355 257.346 875.246 257.175C874.987 256.774 874.487 256.928 874.128 256.747C874.031 256.698 874.153 256.67 874.075 256.612C873.767 256.384 873.509 256.366 873.197 256.048C873.146 255.995 872.964 255.62 872.683 255.647C872.643 255.652 872.673 255.779 872.523 255.714C872.299 255.617 871.916 255.414 871.708 255.257C871.552 255.14 871.821 255.12 871.586 255.039C871.482 255.003 871.611 255.18 871.419 255.106C871.228 255.032 870.782 254.772 870.613 254.674C870.445 254.575 870.594 254.53 870.584 254.515C870.522 254.431 870.22 254.202 870.191 254.186C868.743 253.378 867.267 252.821 865.834 252.086C865.719 252.028 865.842 251.967 865.825 251.957C865.444 251.732 865.639 252.134 865.321 252.091C865.452 251.914 865.271 251.873 864.999 251.725C864.868 251.654 864.976 251.612 864.967 251.599C864.816 251.395 864.61 251.481 864.56 251.495C864.378 251.546 864.291 251.353 864.168 251.387C864.046 251.421 864.206 251.619 863.938 251.501C863.892 251.4 864.17 251.306 863.977 251.19C863.261 250.752 861.702 250.309 861.065 250.103C860.424 249.891 860.224 249.813 859.834 249.711C859.136 249.532 859.427 249.49 859.017 249.304C858.605 249.121 858.724 249.482 858.643 249.528C858.564 249.574 858.519 249.489 858.434 249.502C858.349 249.515 858.497 249.606 858.319 249.568C858.142 249.529 857.698 249.281 857.654 249.2C857.56 249.025 857.818 248.935 857.335 248.866C857.307 248.862 857.376 248.961 857.269 248.942C856.423 248.788 855.562 248.601 854.729 248.5C854.615 248.487 854.701 248.586 854.635 248.579C853.934 248.507 854.203 248.415 853.842 248.206C853.898 248.418 853.667 248.501 853.14 248.428C852.823 248.386 852.889 248.309 852.69 248.225C852.631 248.2 852.399 248.232 852.363 248.188C852.242 248.047 852.47 247.923 851.916 247.93C851.891 247.931 851.961 248.007 851.878 248.004C851.339 247.987 851.278 247.851 850.69 247.809C850.228 247.776 849.408 247.842 848.889 247.869C848.903 248.061 848.411 248.028 848.204 247.909C847.865 247.931 847.498 247.95 847.173 247.997C847.061 248.013 847.139 248.059 847.125 248.066C846.917 248.174 846.759 248.069 846.686 248.073C845.892 248.117 845.269 248.304 844.511 248.374C844.484 248.376 844.418 248.273 844.237 248.398C844.225 248.406 844.481 248.403 844.133 248.484C843.784 248.565 843.147 248.784 842.665 248.876C842.547 248.898 842.233 248.905 842.022 249.044C841.994 249.063 842.037 249.08 841.998 249.11C841.871 249.207 841.76 249.135 841.62 249.276C841.481 249.417 841.155 249.595 840.669 249.724C840.654 249.728 840.518 249.698 840.376 249.758C840.149 249.854 839.833 250.008 839.597 250.115C839.484 250.167 839.537 250.092 839.518 250.1C838.754 250.429 838.205 250.761 837.463 251.21C837.324 251.293 836.895 251.49 836.648 251.699C836.377 251.929 836.781 251.883 836.081 252.291C835.932 252.379 835.731 252.436 835.512 252.539C835.325 252.625 835.118 252.754 834.932 252.961C834.019 253.624 833.253 254.344 832.393 255.078C832.355 255.111 832.205 255.186 832.117 255.269C831.987 255.391 831.93 255.472 831.838 255.56C831.453 255.928 831.092 256.254 830.727 256.616C830.589 256.754 830.651 256.718 830.486 256.883C830.321 257.047 830.197 257.14 829.982 257.371C829.82 257.547 829.684 257.743 829.465 257.972C829.428 257.955 829.28 258.107 829.004 258.381C828.952 258.433 828.997 258.367 828.972 258.391C828.869 258.49 828.787 258.592 828.689 258.685C828.665 258.709 828.655 258.702 828.635 258.72C828.465 258.878 828.23 259.167 828.187 259.22C828.028 259.413 827.942 259.487 827.816 259.632C827.69 259.776 827.89 259.57 827.74 259.737C827.436 260.076 827.031 260.518 826.723 260.861C826.597 261.001 826.676 260.9 826.658 260.92C826.398 261.208 826.144 261.507 825.997 261.655C825.839 261.885 825.845 261.822 825.484 262.251C825.457 262.283 825.429 262.332 825.539 262.209C825.652 262.083 825.812 261.894 825.97 261.72C826.011 261.674 826.225 261.459 826.257 261.426C826.493 261.178 826.497 261.13 826.509 261.114C826.631 260.95 826.901 260.683 826.972 260.609C827.29 260.272 827.551 259.982 827.821 259.703C827.999 259.52 828.036 259.527 828.173 259.382C828.629 258.905 828.748 258.703 829.218 258.291C829.32 258.203 829.258 258.33 829.569 257.967C829.589 257.944 829.814 257.67 829.976 257.542C829.996 257.526 830.006 257.537 830.031 257.514C830.2 257.36 830.299 257.247 830.481 257.079C830.664 256.911 830.885 256.713 831.086 256.516C831.208 256.397 831.344 256.224 831.398 256.163C831.549 255.988 831.758 255.85 831.842 255.732C831.927 255.612 831.689 255.769 831.952 255.498C831.996 255.525 832.055 255.542 832.107 255.565C832.719 255.012 833.32 254.468 833.963 253.95C834.043 253.886 833.983 253.977 834.069 253.91C834.434 253.626 834.739 253.358 835.128 253.085C835.295 252.968 835.479 252.854 835.66 252.745C835.817 252.651 835.974 252.558 836.125 252.464C836.277 252.262 836.781 251.972 837.133 251.756C837.256 251.68 837.235 251.664 837.32 251.605C837.64 251.386 837.524 251.547 837.623 251.506C838.049 251.334 837.973 251.158 838.471 250.902C838.497 250.888 838.864 250.823 838.91 250.809C839.208 250.714 838.94 250.753 839.111 250.662C839.423 250.499 839.634 250.373 840.024 250.244C840.138 250.206 840.429 250.165 840.621 250.03C840.647 250.013 840.617 249.983 840.638 249.972C841.038 249.777 841.1 249.889 841.355 249.845C841.611 249.801 841.956 249.599 842.024 249.55C842.203 249.424 841.862 249.571 841.849 249.569C841.697 249.537 841.975 249.459 842.184 249.389C842.175 249.256 842.472 249.174 842.4 249.317C842.391 249.332 842.224 249.37 842.184 249.389C842.407 249.452 842.731 249.377 843.056 249.166C843.21 249.067 843.03 249.04 843.553 248.936C843.791 248.891 843.723 249.004 843.936 248.983C844.423 248.937 845.023 248.735 845.52 248.678C845.7 248.657 845.534 248.737 845.657 248.725C845.983 248.696 846.265 248.62 846.595 248.61C846.624 248.609 846.559 248.676 846.661 248.667C847.431 248.605 848.102 248.533 848.914 248.529C849.303 248.525 849.999 248.582 850.403 248.6C851.104 248.626 851.977 248.608 852.566 248.713C852.952 248.782 852.858 248.845 853.017 248.92C853.322 249.065 853.914 248.988 853.996 248.974C853.999 248.973 853.667 248.897 853.852 248.889C853.969 248.826 853.992 248.973 853.996 248.974C854.051 248.964 854.717 249.074 854.842 249.117C854.911 249.14 854.857 249.205 854.894 249.215C855.752 249.466 856.632 249.714 857.512 249.933C857.528 249.936 857.528 249.843 857.565 249.851C858.08 249.96 858.372 250.168 858.766 250.369C859.16 250.571 859.493 250.666 859.792 250.598C860.101 250.729 860.558 250.821 860.829 250.876C861.099 250.929 861.068 251.124 861.088 251.136C861.737 251.523 862.181 251.588 862.902 251.88C863.24 252.017 863.891 252.344 864.243 252.536C864.521 252.687 864.714 252.725 864.964 252.881C864.997 252.902 864.922 252.97 864.931 252.979C865.176 253.225 865.133 252.946 865.211 252.939C865.495 252.911 865.669 252.905 866.007 253.154C866.086 253.211 866.184 253.643 866.328 253.742C866.517 253.869 866.496 253.719 866.693 253.857C866.71 253.868 866.672 253.935 866.802 254C867.406 254.306 868.092 254.632 868.696 254.986C868.779 255.034 868.612 255.084 868.73 255.156C869.288 255.494 869.906 255.857 870.486 256.138C870.628 256.207 870.59 256.075 870.633 256.069C870.898 256.034 871.032 256.401 871.07 256.431C871.998 257.146 872.871 257.437 873.814 258.195C873.866 258.236 874.127 258.75 874.442 258.673C874.463 258.668 874.781 258.584 874.85 258.836C874.854 258.852 874.671 258.881 874.876 259.006C875.082 259.131 875.351 259.423 875.702 259.494C875.813 259.516 876.158 259.446 876.302 259.795C876.312 259.818 876.445 260.482 876.764 260.317C876.816 260.289 876.985 259.991 877.19 260.351C877.228 260.421 877.08 260.408 877.205 260.557C877.397 260.786 877.758 260.933 877.954 261.27C877.989 261.328 878.063 261.679 878.336 261.657C878.378 261.653 878.396 261.52 878.493 261.575C878.955 261.839 879.352 262.236 879.829 262.492C879.999 262.584 880.035 262.367 880.225 262.444C880.414 262.521 880.765 262.721 880.877 262.92C880.989 263.119 880.622 263.236 880.853 263.446C881.854 264.362 883.023 265.048 884.092 265.871C884.25 265.993 884.048 265.984 884.275 266.172C885.124 266.868 886.49 268.158 887.389 268.559C888.111 268.878 887.476 268.134 887.981 268.437C888.225 268.583 888.196 269.105 888.239 269.159C888.66 269.689 889.127 269.838 889.541 270.265C889.627 270.354 889.425 270.411 889.5 270.486C889.756 270.743 890.093 270.928 890.344 271.162C890.456 271.268 890.349 271.354 890.463 271.438C890.733 271.64 890.995 271.79 891.325 271.904C891.355 271.915 891.311 271.652 891.503 271.809C891.814 272.062 892.275 272.287 892.549 272.698C892.629 272.819 892.429 273.07 892.796 273.095C892.873 273.1 893.059 272.75 893.109 273.234C893.119 273.314 893.268 274.044 893.668 274.004C893.774 273.994 894.123 273.871 894.215 274.017C894.227 274.038 894.047 274.115 894.139 274.217C894.462 274.573 894.875 274.905 895.215 275.275C895.307 275.375 895.038 275.387 895.177 275.531C895.561 275.928 896.098 276.334 896.537 276.637C896.703 276.752 896.698 276.54 896.72 276.536C897.076 276.476 896.941 276.856 896.986 276.924C897.267 277.342 897.656 277.444 897.957 277.766C898.041 277.855 897.86 277.94 897.868 277.968C897.954 278.254 898.023 277.88 898.165 277.954C898.562 278.161 898.926 278.493 899.263 278.812C899.385 278.928 899.106 278.973 899.216 279.075C899.88 279.693 900.538 280.23 901.312 280.717C901.453 280.805 901.48 280.605 901.531 280.596C901.884 280.533 901.916 281.044 901.954 281.123C902.128 281.48 902.329 281.447 902.551 281.667C903.671 282.772 905.265 283.903 906.495 284.709C908.191 285.813 909.469 286.479 911.354 287.422C911.469 287.478 911.25 287.659 911.349 287.711C911.896 287.992 912.674 288.279 913.355 288.433C914.131 288.613 914.902 288.741 915.69 288.882C915.807 288.902 915.611 289.131 915.8 289.172C916.185 289.258 916.696 289.29 917.094 289.232C917.288 289.203 917.038 288.971 917.231 288.947C917.682 288.888 918.162 288.878 918.62 288.912C918.815 288.927 918.529 289.195 918.785 289.194C920.533 289.186 922.272 288.997 923.86 288.253C923.97 288.202 923.925 287.639 924.191 287.68C924.25 287.825 924.299 288.001 924.352 288.159C926.778 287.622 928.961 286.511 931.073 285.357C931.162 285.309 931.159 285.665 931.333 285.572C932.347 285.028 933.362 284.534 934.158 283.638C934.238 283.549 933.871 283.113 934.197 282.999C934.255 282.98 934.715 282.759 934.898 282.783C934.923 282.788 935.002 283.057 935.142 282.97C935.954 282.459 936.72 281.815 937.358 281.093C937.464 280.973 937.147 280.856 937.22 280.768C937.715 280.172 938.504 279.791 938.874 279.09C939.122 278.615 938.626 278.378 938.466 277.835C938.433 277.768 938.656 277.533 938.445 277.328C937.941 276.787 937.283 276.303 936.758 275.714C936.659 275.628 936.881 275.51 936.745 275.439C936.745 275.439 936.745 275.439 936.745 275.439C936.715 275.408 936.671 275.363 936.574 275.332C936.554 275.314 936.287 275.397 936.139 275.349C936.045 275.309 935.883 275.047 935.743 275.016C935.605 274.983 935.693 275.248 935.503 275.236C935.305 275.229 935.101 274.955 934.881 275.118ZM862.048 251.132C862.319 251.14 862.226 251.477 862.002 251.295C861.991 251.286 862.034 251.132 862.048 251.132ZM833.271 254.419C833.494 254.166 833.713 254.075 833.557 254.252C833.401 254.428 833.202 254.495 833.271 254.419ZM830.699 256.738C830.96 256.447 831.083 256.485 830.765 256.757C830.747 256.773 830.684 256.755 830.699 256.738ZM937.5 278.539C937.491 278.529 937.642 278.374 937.656 278.379C937.965 278.544 937.66 278.854 937.5 278.539ZM828.275 259.178C828.351 259.082 828.6 258.836 828.505 258.955C828.428 259.049 828.179 259.297 828.275 259.178ZM874.002 256.927C874.009 256.923 874.138 256.997 874.116 257.028C874.042 257.126 873.885 256.986 874.002 256.927ZM824.387 263.548C824.944 262.89 825.272 262.48 824.669 263.201C824.56 263.332 824.905 262.924 824.767 263.09C824.511 263.396 824.344 263.592 824.086 263.91C824.043 263.962 824.35 263.591 824.388 263.547C824.388 263.547 824.387 263.548 824.387 263.548ZM862.337 250.801C862.343 250.798 862.537 250.87 862.54 250.877C862.602 251.021 862.213 250.874 862.337 250.801ZM881.333 261.546C881.351 261.541 881.746 261.81 881.75 261.83C881.791 262.195 880.997 261.649 881.333 261.546ZM848.881 247.874C848.654 247.803 848.381 247.807 848.205 247.909C848.429 247.893 848.655 247.884 848.881 247.874Z" fill="black"/>
<ellipse cx="708.617" cy="305.064" rx="27.0851" ry="32.7872" fill="black"/>
<ellipse cx="851.17" cy="280.83" rx="27.0851" ry="32.7872" fill="black"/>
<path d="M664.426 325.021C664.426 325.021 684.016 337.422 697.926 337.138C706.835 336.957 720.021 331.436 720.021 331.436" stroke="black"/>
<path d="M893.936 302.213C893.936 302.213 874.345 314.613 860.436 314.33C851.526 314.148 838.34 308.628 838.34 308.628" stroke="black"/>
<path d="M709.269 230.186C681.397 214.094 607.989 297.031 642.003 277.8C676.016 258.569 695.127 253.078 729.293 254.175C729.293 254.175 719.838 236.287 709.269 230.186Z" fill="black"/>
<path d="M839.09 207.377C866.963 191.285 940.37 274.222 906.357 254.991C872.343 235.76 853.232 230.27 819.066 231.366C819.066 231.366 828.522 213.478 839.09 207.377Z" fill="black"/>
<ellipse cx="720.734" cy="313.617" rx="9.26596" ry="9.97872" fill="white"/>
<ellipse cx="860.436" cy="289.383" rx="9.26596" ry="9.97872" fill="white"/>
<ellipse cx="804.84" cy="347.117" rx="19.2447" ry="16.3936" transform="rotate(-2.83036 804.84 347.117)" fill="url(#paint4_linear_409_3134)"/>
<path d="M816.245 372.777C828.005 370.552 846.894 372.777 846.894 372.777C846.894 372.777 835.674 408.873 816.245 414.83C797.813 420.481 769.202 399.862 769.202 399.862C769.202 399.862 795.415 376.717 816.245 372.777Z" fill="#F51515"/>
<path d="M769.202 399.862C769.202 399.862 798.962 398.377 816.245 391.309C829.191 386.014 846.894 372.777 846.894 372.777M846.894 372.777C846.894 372.777 835.674 408.873 816.245 414.83C797.813 420.481 769.202 399.862 769.202 399.862C769.202 399.862 795.415 376.717 816.245 372.777C828.005 370.552 846.894 372.777 846.894 372.777Z" stroke="#CA0000"/>
<path d="M679.394 270.851C679.394 270.851 697.164 260.257 709.33 261.585C718.377 262.573 730.713 270.851 730.713 270.851" stroke="#FF7A45"/>
<path d="M873.979 247.445C873.979 247.445 856.208 236.851 844.043 238.179C834.995 239.167 822.66 247.445 822.66 247.445" stroke="#FF7A45"/>
<g filter="url(#filter0_f_409_3134)">
<ellipse cx="665.851" cy="375.628" rx="32.7872" ry="27.7979" fill="#F51515" fill-opacity="0.5"/>
</g>
<g filter="url(#filter1_f_409_3134)">
<ellipse cx="881.106" cy="342.84" rx="32.7872" ry="27.7979" fill="#F51515" fill-opacity="0.5"/>
</g>
<path d="M487.66 285.819L507.617 295.798M527.574 305.777L507.617 295.798M507.617 295.798L536.84 344.979" stroke="#FF7A45"/>
<path d="M595.287 575.202L395 918.043L809.117 1169.65L1199 918.043L933.851 590.883L755.66 538.851L595.287 575.202Z" fill="#0340A8"/>
<path d="M711.468 477.553L621.66 519.606C621.66 519.606 648.062 588.621 686.521 605.851C719.036 620.418 745.006 619.884 777.755 605.851C817.274 588.918 846.181 519.606 846.181 519.606L787.021 495.372L749.245 540.989L711.468 477.553Z" fill="url(#paint5_linear_409_3134)"/>
<path d="M622.372 734.862L524.011 995.021" stroke="#052D73"/>
<path d="M952.383 752.681L1050.74 1012.84" stroke="#052D73"/>
<path d="M748.532 614.404L779.894 918.755" stroke="#8EB7FD"/>
<ellipse cx="752.096" cy="655.745" rx="17.8191" ry="17.1064" fill="white"/>
<ellipse cx="762.074" cy="707.064" rx="17.8191" ry="17.1064" fill="white"/>
<ellipse cx="766.351" cy="758.383" rx="17.8191" ry="17.1064" fill="white"/>
<ellipse cx="769.202" cy="809.702" rx="17.8191" ry="17.1064" fill="white"/>
<ellipse cx="779.181" cy="865.298" rx="17.8191" ry="17.1064" fill="white"/>
<defs>
<filter id="filter0_f_409_3134" x="593.064" y="307.83" width="145.574" height="135.596" filterUnits="userSpaceOnUse" color-interpolation-filters="sRGB">
<feFlood flood-opacity="0" result="BackgroundImageFix"/>
<feBlend mode="normal" in="SourceGraphic" in2="BackgroundImageFix" result="shape"/>
<feGaussianBlur stdDeviation="20" result="effect1_foregroundBlur_409_3134"/>
</filter>
<filter id="filter1_f_409_3134" x="808.319" y="275.043" width="145.574" height="135.596" filterUnits="userSpaceOnUse" color-interpolation-filters="sRGB">
<feFlood flood-opacity="0" result="BackgroundImageFix"/>
<feBlend mode="normal" in="SourceGraphic" in2="BackgroundImageFix" result="shape"/>
<feGaussianBlur stdDeviation="20" result="effect1_foregroundBlur_409_3134"/>
</filter>
<linearGradient id="paint0_linear_409_3134" x1="738.553" y1="424.096" x2="738.553" y2="546.691" gradientUnits="userSpaceOnUse">
<stop stop-color="#FC8658"/>
<stop offset="1" stop-color="#FFA17C"/>
</linearGradient>
<linearGradient id="paint1_linear_409_3134" x1="541.83" y1="347.83" x2="541.83" y2="393.447" gradientUnits="userSpaceOnUse">
<stop stop-color="#FF9B05"/>
<stop offset="1" stop-color="#FFB84E"/>
</linearGradient>
<linearGradient id="paint2_linear_409_3134" x1="952.383" y1="329.298" x2="952.383" y2="374.915" gradientUnits="userSpaceOnUse">
<stop stop-color="#FF9B05"/>
<stop offset="1" stop-color="#FFB84E"/>
</linearGradient>
<linearGradient id="paint3_linear_409_3134" x1="744.968" y1="96.9362" x2="744.968" y2="447.617" gradientUnits="userSpaceOnUse">
<stop stop-color="#FC8658"/>
<stop offset="1" stop-color="#FFA17C"/>
</linearGradient>
<linearGradient id="paint4_linear_409_3134" x1="804.84" y1="330.723" x2="804.84" y2="363.511" gradientUnits="userSpaceOnUse">
<stop stop-color="#FFA17C"/>
<stop offset="1" stop-color="#FF7A45"/>
</linearGradient>
<linearGradient id="paint5_linear_409_3134" x1="733.92" y1="477.553" x2="733.92" y2="616.577" gradientUnits="userSpaceOnUse">
<stop stop-color="white"/>
<stop offset="1" stop-color="#8EB7FD"/>
</linearGradient>
</defs>
</svg>
