<svg width="363" height="543" viewBox="0 0 363 543" fill="none" xmlns="http://www.w3.org/2000/svg">
<path d="M121.266 463.59C120.57 461.868 119.019 461.966 117.533 461.675C111.207 460.434 108.729 457.257 109.029 450.845C109.107 449.189 109.311 447.508 109.722 445.906C110.774 441.811 111.369 438.346 107.607 434.669C103.829 430.976 104.632 423.958 108.428 416.087C101.704 412.107 102.465 406.005 104.634 399.617C105.083 398.295 105.247 396.976 104.172 395.873C97.9488 389.481 101.061 382.493 103.109 375.741C103.966 372.915 105.002 370.985 102.114 368.378C98.8234 365.408 99.6218 360.973 100.765 357.071C101.743 353.734 103.188 350.533 104.528 347.007C99.4551 344.114 100.202 339.73 101.955 335.33C103.04 332.606 103.562 330.451 101.761 327.529C100.01 324.686 100.704 321.055 102.16 317.892C102.916 316.248 103.758 314.645 105.136 311.865C96.6524 314.519 89.294 316.909 82.8816 321.718C74.7282 327.834 68.8709 335.855 63.5311 344.372C50.7938 364.687 37.5023 384.688 28.4217 407.049C20.4681 426.635 12.5231 446.225 4.60184 465.824C4.05524 467.177 4.01271 469.187 1.96406 468.749C-0.104027 468.306 -0.248508 466.335 0.222775 464.677C1.08453 461.646 2.06054 458.626 3.26755 455.718C13.3474 431.426 21.8688 406.458 34.344 383.202C43.8011 365.572 54.5158 348.69 65.7927 332.185C74.1816 319.908 86.1945 312.088 100.09 307.626C105.454 305.904 111.626 306.24 117.409 306.391C127.489 306.655 137.218 304.153 147.147 303.345C149.712 303.136 150.04 301.587 149.894 299.549C149.512 294.235 149.53 288.851 148.627 283.627C147.961 279.773 149.266 277.14 151.76 274.75C153.438 273.141 155.138 271.304 157.194 270.387C164.015 267.344 164.167 262.268 163.72 255.612C162.875 243.034 160.133 230.948 156.933 218.88C153.28 205.105 142.229 198.519 130.957 192.161C125.397 189.024 119.166 187.659 113.221 185.531C99.0023 180.441 89.2656 170.318 84.2296 156.508C80.7523 146.973 80.5944 136.548 82.5959 126.409C84.2705 117.925 85.1567 109.255 88.0876 101.054C89.0108 98.4699 89.801 95.6502 92.6193 94.2203C95.2032 95.9426 93.6678 97.9306 93.116 99.6244C87.9254 115.56 84.2547 131.809 86.7413 148.595C89.0795 164.379 98.745 175.564 113.295 180.963C124.421 185.092 135.557 189.215 145.528 195.378C152.604 199.751 157.835 206.917 160.563 215.211C165.16 229.189 168.007 243.516 168.525 258.261C168.565 259.41 168.495 260.604 169.396 261.647C171.494 262.416 173.159 260.879 175 260.368C180.808 258.754 182.389 259.778 183.828 265.539C184.741 269.191 183.799 273.1 185.852 277.968C189.296 271.149 192.371 265.31 196.661 260.262C197.594 259.164 196.77 257.369 196.546 255.885C194.536 242.563 191.956 229.305 191.998 215.749C192.032 205.087 194.144 194.954 199.217 185.47C200.629 182.83 202.459 180.894 205.129 179.661C212.838 176.103 220.648 172.745 228.227 168.929C246.892 159.533 255.09 142.288 250.971 121.895C250.508 119.604 249.326 118.9 247.208 118.851C242.476 118.743 239.637 115.753 237.447 112.028C235.38 108.51 235.024 104.223 231.841 101.083C230.253 99.5157 231.206 96.6021 233.251 95.4845C235.529 94.2396 237.047 96.0669 237.702 98.1176C238.508 100.64 238.909 103.289 239.615 105.848C240.689 109.737 241.986 113.496 246.797 114.317C248.674 111.999 247.002 109.228 248.373 106.838C252.375 106.712 253.138 111.64 256.603 112.313C256.834 112.357 257.19 113.385 257.02 113.621C253.147 119.01 255.828 124.91 255.992 130.46C256.674 153.552 244.499 167.409 224.472 175.982C221.716 177.162 219.01 178.561 216.142 179.36C203.786 182.8 199.604 192.519 197.749 203.643C194.76 221.569 198.635 239.09 201.702 256.621C201.781 257.073 202.16 257.472 202.515 258.1C207.242 258.202 211.354 255.582 215.909 254.814C220.351 254.065 222.394 255.204 222.756 259.958C223.69 272.226 226.549 284.303 226.609 296.661C226.626 300.121 228.074 301.794 231.421 301.225C241.805 299.461 252.324 299.752 262.689 300.267C271.724 300.716 280.912 301.439 288.503 308.558C298.963 318.369 305.701 330.297 309.949 343.474C320.266 375.474 330.737 407.421 341.133 439.394C348.693 462.649 355.148 486.265 361.998 509.749C363.142 513.669 363.223 517.67 360.622 521.237C359.764 522.414 359.008 524.208 357.184 523.249C355.638 522.435 354.509 520.245 355.439 519.022C360.035 512.976 356.137 507.272 354.506 501.979C343.918 467.624 334.542 432.894 322.246 399.057C315.769 381.232 311.545 362.642 305.13 344.765C300.757 332.576 295.162 321.197 285.291 312.3C281.395 308.788 277.142 306.699 272.032 305.972C267.184 305.283 263.381 306.183 262.146 311.983C265.688 312.895 267.055 314.554 263.823 317.877C261.609 320.153 260.201 323.021 260.457 326.538C262.813 326.733 265.175 324.241 267.388 326.565C267.872 328.235 266.799 329.04 265.762 329.921C261.918 333.182 262.317 337.577 262.674 341.921C262.78 343.211 263.634 344.18 264.934 344.204C268.354 344.268 271.034 342.237 273.235 340.114C275.275 338.148 273.204 336.213 271.789 334.553C269.59 331.973 269.798 329.812 272.877 328.037C274.95 326.842 276.666 325.236 276.918 322.666C276.996 321.876 276.759 320.36 276.551 320.339C270.023 319.691 271.573 312.202 267.414 309.593C267.113 309.404 267.136 308.699 266.911 307.881C270.786 306.077 273.487 307.482 275.758 310.602C283.547 321.303 283.58 322.892 275.894 331.682C278.135 334.914 280.078 338.354 279.047 342.68C278.585 344.62 280.384 345.565 281.512 346.734C286.719 352.134 287.577 358.771 283.408 364.883C281.477 367.714 281.215 369.997 282.813 373.119C285.281 377.942 285.766 383.353 285.518 388.701C285.35 392.317 283.422 393.88 279.699 391.813C278.713 392.951 281.111 394.444 279.241 395.635C273.77 399.119 274.093 405.321 272.703 410.622C272.087 412.976 272.305 415.938 275.06 417.141C277.728 418.306 279.916 416.608 281.655 414.726C288.157 407.692 286.822 406.448 280.914 403.61C279.799 403.075 278.783 402.361 279.168 400.967C279.539 399.627 280.783 399.398 281.997 399.397C285.124 399.396 288.01 399.968 289.676 403.039C292.242 407.77 292.58 412.602 289.79 417.306C288.613 419.291 286.829 420.771 284.553 421.744C278.891 424.163 275.233 431.865 276.64 437.884C277.315 440.774 279.202 441.742 281.86 440.872C283.926 440.196 285.637 439.909 286.46 443.337C289.622 437.838 287.666 434.07 285.283 430.365C284.365 428.937 282.125 427.497 284.522 425.843C286.296 424.619 288.017 425.944 289.356 427.302C295.275 433.309 294.862 444.714 288.257 446.325C283.96 447.373 278.813 446.382 274.844 443.868C271.057 441.47 271.057 437.101 271.418 433.018C271.519 431.876 271.938 430.742 272.34 429.652C273.644 426.115 274.411 423.133 270.609 420.069C267.42 417.5 266.723 413.393 267.741 409.051C268.846 404.333 270.483 399.831 272.363 395.428C262.908 390.475 261.688 377.493 267.322 367.776C262.623 363.839 262.168 358.589 263.612 352.951C264.147 350.863 263.65 349.466 261.706 348.406C258.186 346.487 256.704 342.846 257.422 339.492C258.595 334.008 256.303 329.698 254.254 324.508C246.379 337.174 238.722 349.491 231.304 361.422C233.013 364.113 235.578 361.986 236.882 364.36C232.948 366.525 229.93 369.34 232.023 374.626C236.507 375.814 240.238 375.496 242.927 370.663C245.708 365.665 245.349 362.531 240.328 359.493C238.042 358.11 237.613 356.413 238.288 353.572C243.42 353.349 245.999 356.898 248.133 360.5C250.852 365.091 249.386 369.516 246.375 373.497C245.582 374.545 244.352 375.259 243.538 376.295C241.994 378.262 242.144 380.219 243.851 382.117C251.823 390.976 251.32 396.615 241.974 403.911C241.759 404.079 241.724 404.479 241.606 404.77C248.995 408.234 254.042 418.727 252.093 426.548C250.711 432.092 246.619 433.479 241.664 431.06C237.521 429.038 232.845 428.338 231.954 422.563C231.222 417.819 231.962 413.296 232.944 408.732C233.118 407.926 233.213 407.104 233.334 406.35C226.539 401.18 224.047 399.084 229.408 385.535C230.404 383.018 231.166 381.181 228.4 379.147C226.27 377.581 226.116 374.606 225.716 370.962C219.994 379.839 214.897 387.747 209.829 395.608C218.47 404.539 218.455 410.787 209.696 418.827C211.07 419.496 212.383 420.04 213.601 420.747C218.043 423.325 219.184 426.838 216.466 431.196C214.947 433.631 214.755 435.51 216.092 438.044C218.883 443.335 218.221 448.674 215.33 453.647C222.49 460.695 224.528 469.04 220.731 475.361C218.854 478.488 216.369 479.972 212.644 477.356C210.622 481.613 208.578 485.419 210.732 490.282C213.442 489.027 214.041 487.204 213.743 485.141C213.532 483.673 213.336 482.418 215.09 481.981C216.736 481.57 218.001 482.307 218.947 483.647C219.043 483.783 219.197 483.933 219.194 484.074C219.062 492.316 225.518 497.965 227.568 505.271C230.014 513.993 227.464 517.32 218.579 518.464C216.182 518.773 212.833 525.424 212.85 529.218C212.878 535.605 216.953 535.601 221.837 534.442C221.347 538.682 218.576 539.494 215.806 539.577C212.559 539.674 210.089 537.983 208.941 534.766C207.239 529.995 208.611 525.583 210.569 521.248C211.313 519.599 212.689 518.23 212.837 515.461C208.025 514.846 204.804 511.572 202.82 507.252C200.179 501.5 205.497 499.06 208.466 495.239C203.93 490.172 204.86 484.409 206.933 478.57C207.84 476.015 207.263 474.461 204.67 472.967C199.519 469.998 198.739 465.993 201.75 460.697C203.292 457.985 205.018 455.378 206.697 452.665C199.3 450.818 197.333 446.958 200.319 439.175C201.888 435.085 201.304 431.775 200.671 427.469C199.54 419.764 194.549 412.124 198.133 403.882C198.901 402.117 198.525 400.74 196.742 399.674C189.284 395.216 182.872 389.419 176.25 383.169C174.202 386.576 173.456 390.747 168.434 392.08C175.607 398.599 179.804 405.211 171.834 413.026C178.504 420.98 178.68 423.483 172.982 432.461C171.876 434.202 172.736 435.101 173.565 436.405C176.237 440.605 180.701 445.43 178.408 449.959C174.937 456.819 178.102 462.302 179.28 468.337C180.211 473.104 178.025 477.032 175.462 481.323C182.78 484.822 181.726 490.858 182.147 497.462C182.609 504.721 178.987 510.746 179.057 517.742C179.126 524.689 174.552 525.863 167.034 521.404C164.946 523.809 164.964 526.609 166.07 529.245C167.576 532.836 171.421 529.077 173.757 531.364C172.768 534.464 170.154 535.141 167.52 535.137C164.637 535.133 162.425 533.424 161.379 530.746C160.727 529.077 159.847 526.779 160.487 525.443C164.113 517.875 159.899 511.019 159.058 503.875C158.845 502.059 157.431 499.455 160.45 498.957C162.966 498.541 163.529 501.023 163.967 502.989C164.436 505.095 164.578 507.288 165.193 509.344C165.74 511.174 166.211 513.554 168.974 513.125C170.908 512.824 172.318 511.472 172.808 509.581C173.522 506.821 171.026 506.935 169.496 506.204C169.059 505.995 168.69 505.643 168.169 505.27C169.875 502.288 174.767 502.585 174.705 498.5C173.441 496.965 172.332 497.66 171.021 498.143C165.67 500.113 161.873 498.118 160.586 492.547C159.293 486.948 160.631 481.502 162.903 476.49C164.489 472.992 167.331 473.07 170.092 476.164C164.995 480.709 164.341 486.39 165.433 492.495C165.672 493.83 166.318 495.131 168.032 494.99C169.201 494.893 169.854 494.051 169.658 492.913C169.233 490.449 169.663 488.407 172.467 488.042C175.881 487.599 174.501 491.174 175.823 492.595C177.352 489.665 177.07 488.38 174.45 486.89C172.341 485.69 169.546 485.682 167.868 482.913C176.252 474.356 177.622 465.615 166.733 457.036C171.482 455.48 174.793 453.111 173.853 448.338C172.87 443.347 171.063 438.601 164.665 437.989C164.714 434.435 169.146 433.677 168.981 430.388C163.045 431.031 157.897 439.065 159.714 444.612C160.734 447.725 163.954 446.767 166.091 448.445C163.886 454.715 161.543 461.087 162.751 467.724C164.627 469.639 167.04 467.359 168.794 469.386C167.952 472.475 165.482 472.98 162.717 472.888C159.781 472.79 158.239 471.107 157.648 468.298C156.71 463.844 158.001 459.673 159.344 455.577C160.207 452.944 160.462 451.253 157.645 449.366C153.185 446.379 154.351 441.785 155.697 437.555C156.727 434.312 157.145 431.696 154.952 428.294C152.125 423.908 154.778 419.089 157.171 415.165C159.562 411.244 160.749 408.058 158.138 403.597C156.257 400.384 156.002 396.293 156.151 392.393C156.208 390.909 156.396 389.198 155.781 387.96C152.656 381.662 155.289 376.318 158.275 371.014C159.268 369.25 160.584 367.724 158.822 365.646C148.093 353.001 137.68 340.075 125.545 328.336C129.556 335.546 130.335 342.315 124.402 348.691C123.038 350.156 124.282 351.444 124.878 352.778C130.1 364.466 122.531 376.673 109.655 377.351C109.328 377.368 108.975 377.245 108.673 377.327C107.018 377.781 104.844 386.454 105.716 389.306C106.75 392.69 109.331 392.851 112.157 392.16C114.819 391.509 117.155 389.641 120.52 389.735C119.591 393.049 116.949 393.983 114.737 395.063C109.837 397.455 108.333 401.522 108.408 406.539C108.44 408.646 108.882 410.676 111.244 411.27C113.659 411.878 115.913 411.254 117.61 409.349C119.205 407.559 119.03 405.783 117.351 404.046C116.953 403.635 116.935 402.857 116.702 402.119C119.989 399.474 122.763 400.742 125.178 403.049C129.247 406.934 129.131 411.713 124.829 418.766C133.67 424.626 131.615 431.57 126.088 438.424C134.99 447.55 135.539 454.02 128.138 462.705C130.871 465.981 132.262 469.993 133.091 474.212C134.347 480.607 131.303 485.11 124.817 485.788C121.468 486.138 120.204 487.895 119.584 490.758C118.453 495.984 120.932 501.375 125.663 503.501C127.218 504.2 128.398 505.23 129.17 506.605C136.354 502.713 136.382 497.281 129.674 492.806C128.212 491.831 124.93 491.555 126.451 488.843C127.971 486.132 130.462 487.549 132.518 488.856C140.987 494.24 141.402 501.185 133.508 509.302C133.302 509.563 133.313 509.556 133.313 509.556C130.759 510.46 128.205 511.349 125.87 509.033C123.105 515.485 124.145 519.056 129.517 522.662C127.205 525.322 124.919 525.417 122.553 522.525C120.041 519.456 118.796 515.798 119.772 511.819C120.577 508.536 120.239 505.992 117.907 503.17C114.355 498.873 113.169 493.585 115.18 488.153C116.054 485.79 115.843 484.383 113.991 482.579C110.532 479.209 109.46 474.993 110.854 470.212C112.615 464.171 114.073 463.102 121.007 463.839C122.41 466.368 120.984 467.025 119.272 467.664C114.297 469.522 115.089 473.521 116.193 477.207C117.413 481.279 120.578 482.819 124.74 482.187C126.592 481.905 127.544 480.646 128.015 478.89C129.177 474.556 125.443 466.037 121.266 463.59ZM164.812 413.125C165.999 412.219 167.221 411.356 168.365 410.4C172.066 407.31 172.331 401.834 168.363 399.278C165.337 397.329 164.555 394.576 163.28 391.792C165.02 390.311 166.658 389.159 167.981 387.719C169.182 386.411 170.794 384.722 169.508 382.892C168.019 380.772 167.975 378.623 168.056 376.275C168.131 374.111 166.686 372.819 164.849 372.334C162.98 371.84 162.319 373.684 161.627 374.904C159.577 378.516 157.9 382.138 162.758 385.113C163.631 385.647 164.682 386.512 164.635 388.26C160.813 390.673 161.33 394.621 161.372 398.687C161.428 404.05 164.233 405.718 170.791 404.435C167.435 408.274 163.538 409.556 163.738 413.925C161.1 416.21 160.123 419.44 159.127 422.557C158.119 425.713 159.299 427.468 162.869 426.639C165.888 425.938 168.879 425.114 171.792 424.367C172.18 420.811 170.604 418.971 167.783 418.013C165.614 417.277 163.694 416.403 164.812 413.125ZM189.068 388.302C191.466 390.098 193.811 391.971 196.276 393.67C199.57 395.94 202.637 396.35 205.277 392.492C207.248 389.612 209.749 387.08 211.592 384.13C226.32 360.554 240.962 336.925 255.577 313.279C256.855 311.211 258.403 309.183 258.606 306.581C254.733 305.987 254.076 306.052 251.782 310.388C238.381 335.72 222.058 359.189 205.847 382.727C204.106 385.255 203.135 388.887 199.863 389.755C196.539 390.636 196.095 386.56 193.933 385.168C183.545 378.478 174.626 369.795 165.993 361.255C151.265 346.685 136.54 331.869 125.157 314.262C122.51 310.168 121.441 310.125 116.682 311.893C125.892 323.446 137.631 332.554 146.824 344.276C159.228 360.094 174.056 373.858 189.068 388.302ZM117.051 415.029C111.249 416.611 111.697 422.13 110.766 426.191C109.499 431.727 112.13 433.541 117.641 431.97C118.514 431.721 119.264 431.747 120.02 432.808C119.906 433.214 119.929 434.025 119.537 434.386C113.976 439.509 114.774 446.406 114.324 452.936C114.218 454.485 114.798 455.861 116.323 456.673C118.067 457.603 126.455 456.706 127.252 455.17C129.181 451.454 128.199 448.041 125.299 445.234C123.444 443.438 121.346 441.893 119.199 440.104C120.691 438.271 122.004 436.787 123.174 435.197C127.511 429.3 126.717 426.309 120.021 423.685C117.262 422.604 116.623 421.279 118.783 418.976C121.139 416.464 123.458 413.89 122.873 409.177C120.802 411.379 119.708 413.506 117.051 415.029ZM111.403 314.56C107.108 314.763 106.541 318.582 105.248 321.358C103.957 324.131 103.908 326.894 108.204 327.556C110.903 327.971 112.38 329.877 112.558 333.732C109.916 332.305 107.778 331.919 106.828 335.046C105.927 338.016 105.433 340.263 108.292 342.938C110.847 345.328 113.939 343.121 116.137 345.153C119.617 348.368 121.495 345.872 122.99 343.016C125.085 339.015 124.107 335.306 121.611 331.991C120.056 331.154 119.281 333.706 117.31 332.112C117.172 330.208 119.184 326.556 114.127 326.43C116.892 321.613 112.645 318.717 111.403 314.56ZM107.461 352.359C106.613 354.867 105.571 357.329 104.968 359.895C104.325 362.632 104.488 365.596 107.934 366.173C110.962 366.679 114.103 366.112 114.476 362.05C114.804 358.478 116.709 359.04 118.945 360.089C119.893 360.535 120.389 362.099 122.219 361.103C123.19 356.234 119.805 353.465 116.737 350.501C111.946 345.872 111.464 345.913 107.461 352.359ZM272.09 363.016C273.578 358.417 276.719 361.112 279.167 361.637C281.981 356.583 280.897 351.025 276.866 348.85C274.567 347.609 269.992 349.693 268.652 352.593C266.42 357.424 267.468 361.413 272.09 363.016ZM209.72 500.716C207.921 502.326 206.191 503.947 207.913 506.642C209.411 508.987 210.913 510.621 214.333 510.066C217.386 509.571 220.97 509.808 221.713 514.698C224.329 510.134 223.549 506.106 221.029 502.605C218.303 498.818 213.81 501.141 209.72 500.716ZM269.817 386.292C271.308 390.348 273.623 390.574 277.136 388.369C280.543 386.23 280.541 383.328 279.907 380.112C279.413 377.603 279.512 374.589 275.324 375.13C271.518 375.622 267.908 375.904 268.687 381.189C268.904 382.661 269.286 384.109 269.817 386.292ZM237.522 399.352C238.785 398.562 240.034 397.747 241.316 396.988C245.144 394.718 245.316 391.194 241.682 388.488C239.853 387.125 237.966 385.838 235.954 384.409C233.323 387.944 231.634 391.531 231.681 395.616C231.717 398.761 232.713 401.426 237.522 399.352ZM212.537 459.098C209.299 458.147 205.859 460.737 204.954 464.911C204.191 468.434 206.619 469.804 209.315 470.264C211.867 470.7 214.413 470.922 216.597 472.515C218.854 466.848 217.698 462.711 212.537 459.098ZM239.062 425.222C241.304 426.071 244.888 422.041 245.67 428.241C249.857 418.403 244.065 413.885 238.031 409.187C236.849 414.564 234.731 419.762 239.062 425.222ZM208.045 401.862C207.476 402.65 207.036 403.968 206.318 404.143C200.784 405.494 202.167 409.729 201.829 414.669C204.569 411.216 208.749 413.442 210.394 410.662C212.177 407.648 211.244 404.366 208.045 401.862ZM205.262 446.757C208.001 446.853 211.458 447.516 212.586 444.51C213.69 441.564 210.606 439.526 208.438 438.456C205.953 437.231 205.25 439.979 204.635 441.813C204.157 443.238 204.094 444.757 205.262 446.757ZM211.934 428.905C213.657 423.376 206.661 424.668 206.291 420.119C203.283 426.918 205.362 429.941 211.934 428.905ZM116.576 371.282C117.125 370.361 118.175 369.554 116.949 367.833C115.337 368.456 113.463 368.776 112.871 370.981C112.671 371.725 112.805 372.762 113.732 373.017C114.807 373.312 115.454 372.364 116.576 371.282Z" fill="#0057C8"/>
<path d="M83.3597 517.543C82.4292 517.202 81.4599 516.936 80.5865 516.484C80.223 516.297 80.0636 515.714 79.7026 515.137C81.9498 512.574 86.4999 512.782 87.4943 508.557C84.8828 507.253 80.5296 507.638 81.0693 503.169C82.6467 500.976 83.9839 503.879 85.62 502.546C84.3208 500.293 84.1861 497.844 85.9937 495.666C83.6338 492.999 81.2211 491.573 77.8475 492.808C76.7188 494.415 79.673 495.31 78.2113 497.261C76.087 498.355 74.4451 496.706 73.1204 495.126C69.273 490.536 67.0587 485.262 66.9332 479.162C66.8746 476.315 67.9354 474.41 70.5714 473.271C74.1094 471.743 76.7815 472.063 79.4211 474.506C79.3551 475.554 78.4972 475.735 77.7544 476.079C77.1637 476.352 76.5685 476.686 76.7423 477.881C79.658 478.684 82.341 478.222 83.6387 475.202C84.8803 472.312 82.2586 471.147 80.3187 469.899C77.1808 467.882 74.3899 465.225 69.9635 466.729C67.2925 467.637 65.5876 464.97 63.1222 462.835C62.5611 468.716 62.0833 473.909 61.5611 479.098C61.3696 481.002 61.7325 483.766 58.8756 483.489C56.0956 483.219 56.2114 480.745 56.4563 478.399C57.1116 472.118 57.9435 465.823 58.0356 459.523C58.3043 441.15 61.7171 423.134 63.656 404.951C64.8553 393.704 65.8816 382.466 67.9727 371.337C68.4401 368.85 68.9649 366.475 70.3632 363.928C73.38 364.904 75.7486 363.109 78.3265 361.756C79.691 361.04 81.2551 360.742 81.0175 358.772C80.8082 357.035 79.3554 356.926 78.0239 356.731C76.8283 356.556 75.7326 356.237 75.2432 354.561C77.421 351.154 80.5333 352.101 83.3167 353.511C86.5039 355.126 87.2203 358.044 85.5462 361.153C82.3459 367.098 82.0196 372.844 85.6186 378.79C87.3177 381.598 86.6916 384.55 84.8542 387.248C82.641 390.499 79.3951 392.033 75.7096 392.793C74.1921 393.106 72.6549 393.223 72.5655 395.259C72.5058 396.62 72.5901 397.962 73.849 398.837C75.1606 399.749 76.3617 399.227 77.5464 398.484C80.1358 396.859 82.8856 395.049 85.7047 397.683C88.6391 400.425 87.7382 403.905 86.3732 406.989C83.5184 413.44 78.9718 418.073 71.5437 418.812C68.3566 419.129 68.0115 420.611 69.2305 423.41C72.156 423.349 74.9144 421.811 77.8972 422.198C81.3217 422.643 84.7717 423.429 85.956 427.051C87.2072 430.877 84.382 433.193 81.7093 435.296C77.7541 438.409 72.9591 437.9 68.0016 438.076C67.2592 443.564 70.6001 444.251 74.9295 444.82C75.0214 447.091 73.5444 448.051 72.3566 449.146C69.4416 451.834 68.4773 455.234 68.4154 459.014C68.3909 460.508 68.2727 462.177 70.1405 462.707C71.6077 463.124 72.5548 462.139 73.5224 461.132C75.9473 458.606 77.6117 455.604 79.3899 452.632C82.4272 447.555 81.4641 445.488 75.3073 444.557C74.0688 440.929 75.9552 440.059 79.0685 440.344C82.1962 440.631 84.2669 442.395 85.4313 445.218C86.9174 448.82 86.0035 452.09 83.66 454.976C78.1932 461.71 78.2713 462.799 85.3202 467.582C88.3254 469.62 89.6575 472.338 88.3667 475.69C86.848 479.634 84.0324 482.346 79.4636 482.569C78.0264 482.64 76.588 481.632 74.9247 482.574C74.5339 485.862 75.592 487.807 79.1476 488.456C91.2115 490.658 96.0609 498.913 92.0748 510.521C91.5782 511.967 92.1381 512.589 92.6889 513.588C93.5977 515.235 93.2804 516.933 91.8928 518.1C90.4748 519.293 89.0864 518.718 88.096 517.265C86.6806 515.189 85.2412 516.46 83.5565 517.378C83.3175 517.565 83.3597 517.543 83.3597 517.543ZM72.8809 404.24C71.9214 404.054 70.445 403.378 70.085 403.759C67.4064 406.591 68.3691 409.824 69.4988 412.992C70.686 416.322 72.8577 414.859 74.7322 413.922C78.4427 412.069 81.0102 409.265 81.7439 404.839C78.8628 404.707 76.2391 404.586 72.8809 404.24ZM74.1406 434.008C75.092 433.734 76.0989 433.577 76.9832 433.161C78.7457 432.331 81.1857 431.483 80.4673 429.109C79.7487 426.734 77.1369 426.608 74.9788 426.866C73.2095 427.077 71.5203 428.052 69.7564 428.191C67.8633 428.34 65.5275 427.278 65.4221 430.477C65.3346 433.134 67.7414 433.426 69.4525 434.055C70.6137 434.481 72.0527 434.151 74.1406 434.008ZM80.9349 384.83C82.0071 379.963 79.8399 378.52 71.9963 378.997C70.6577 382.64 73.2015 385.904 72.819 389.653C76.501 389.691 78.527 387.56 80.9349 384.83ZM73.8719 372.466C76.5719 374.395 78.1037 372.46 79.3841 370.582C80.1921 369.397 79.3715 368.308 78.056 368.075C75.5345 367.63 74.0245 368.798 73.6021 371.333C73.576 371.49 73.6143 371.657 73.8719 372.466ZM63.5315 453.418C63.5315 454.376 63.5315 455.335 63.5315 456.755C66.8178 448.285 66.8177 448.285 64.4234 446.475C62.8798 448.379 63.8548 450.628 63.5315 453.418Z" fill="#0057C8"/>
<path d="M265.441 297.948C258.368 299.189 251.734 299.225 245.164 297.645C241.305 296.717 238.022 294.841 236.297 291.001C235.873 290.058 235.69 289.033 236.571 288.236C237.645 287.264 238.996 287.496 239.698 288.443C245.246 295.92 253.436 294.579 260.785 294.078C279.555 292.797 293.877 282.965 305.542 268.774C306.042 268.166 306.306 267.364 306.786 266.453C305.976 265.858 305.396 265.253 304.687 264.937C285.368 256.341 277.175 239.899 273.153 220.445C270.645 208.316 269.552 196.079 270.082 183.715C270.226 180.348 269.643 178.238 265.793 177.228C261.731 176.162 258.898 172.971 258.139 168.726C255.614 154.597 258.317 141.283 264.981 128.697C265.514 127.689 266.393 126.841 267.199 126.004C271.026 122.033 273.789 122.673 275.362 127.89C276.945 133.138 277.025 138.393 275.193 143.597C274.629 145.198 273.832 146.969 271.673 146.164C269.53 145.365 269.961 143.603 270.748 141.988C272.736 137.912 272.774 133.87 270.928 129.178C265.448 133.973 264.49 140.216 262.978 146.015C261.337 152.311 261.089 158.856 261.689 165.362C262.319 172.192 266.332 174.878 272.957 173.386C282.191 171.305 286.53 164.393 288.679 156.31C291.903 144.184 291.226 131.939 286.853 120.057C285.568 116.566 283.256 113.669 280.73 110.998C277.141 107.202 274.323 107.01 270.277 110.412C266.273 113.778 262.765 117.53 263.395 123.477C259.939 123.846 259.435 121.947 259.593 119.526C260.017 113.01 267.943 104.268 274.291 103.521C278.266 103.053 281.366 105.011 283.932 107.848C289.452 113.953 292.829 121.04 293.77 129.276C294.926 139.404 295.661 149.456 292.464 159.437C289.974 167.207 285.222 172.866 277.907 176.281C275.844 177.244 274.818 178.272 274.681 180.648C273.629 198.954 275.187 216.98 281.672 234.204C285.931 245.514 292.766 255.075 304.455 260.117C306.156 260.851 307.826 261.732 309.701 260.884C311.383 260.124 312.967 259.829 314.067 261.665C315.096 263.382 314.15 264.882 313.185 266.268C308.677 272.741 302.975 278.118 297.123 283.305C288.179 291.233 277.722 296.084 265.441 297.948Z" fill="#0057C8"/>
<path d="M71.1017 235.265C67.9496 243.701 63.4681 250.895 57.3131 256.887C54.1235 259.993 54.3161 262.335 57.4339 265.134C62.7532 269.909 66.9293 275.779 72.6846 280.212C85.5381 290.112 99.4243 294.093 115.282 289.139C122.123 287.002 128.93 284.768 135.332 281.476C138.808 279.688 142.122 277.82 142.47 273.262C142.586 271.731 143.549 270.723 145.218 271.302C146.852 271.868 147.587 273.183 147.079 274.876C146.048 278.316 144.356 281.336 141.063 283.14C129.576 289.434 117.573 294.48 104.423 295.604C90.8955 296.761 79.4563 291.188 68.9753 283.144C63.1068 278.64 58.5996 272.815 53.4305 267.637C51.6459 265.849 50.0888 264.109 47.4653 263.41C45.309 262.836 42.8068 256.454 43.645 254.424C44.442 252.495 45.8068 252.683 47.2979 253.61C48.5591 254.394 48.981 256.148 51.3045 256.65C60.5938 247.833 66.6548 236.867 69.9808 224.213C74.3479 207.597 72.1815 191.182 68.7134 174.783C68.384 173.226 67.3053 171.201 69.5111 170.473C71.9378 169.673 72.6869 171.952 73.0968 173.66C78.0355 194.234 79.7621 214.735 71.1017 235.265Z" fill="#0057C8"/>
<path d="M55.6926 153.037C57.627 156.666 60.1247 159.318 63.1506 161.472C66.0769 163.556 69.2779 165.443 72.8388 163.55C76.4834 161.612 78.1733 158.177 78.0866 153.994C78.0593 152.674 77.9035 151.357 77.7811 149.692C71.9884 149.316 68.704 146.135 68.1336 140.433C67.9155 138.253 68.1345 135.86 70.5771 134.923C72.9087 134.028 74.1976 135.858 75.4621 137.452C81.3626 144.889 84.8778 152.805 80.076 162.189C76.8549 168.483 71.3904 170.267 65.0302 167.327C51.145 160.91 48.1312 148.681 47.7411 135.035C47.5566 128.58 49.4734 122.533 51.3346 116.485C52.1527 113.826 54.0068 111.803 56.3529 110.459C59.3512 108.742 60.1127 106.471 59.9387 103.047C59.2446 89.3791 60.0236 75.7774 63.037 62.3757C64.8849 54.1575 70.1291 48.1985 76.2997 42.9231C77.5496 41.8546 79.2154 40.6724 80.6978 42.3774C82.3643 44.2943 80.4211 45.3958 79.2056 46.3681C69.4453 54.1759 66.2801 64.8473 65.4102 76.762C64.8033 85.0749 64.1395 93.3663 64.4085 101.703C64.4655 103.468 64.0195 105.719 66.3589 106.348C75.0488 108.687 78.2838 115.58 80.7928 123.24C78.7395 124.261 77.6541 122.812 76.6554 121.552C75.7313 120.387 75.0082 119.05 74.2817 117.742C72.3489 114.261 69.9717 110.87 65.5918 111.373C60.9496 111.905 56.9331 114.417 55.2738 119.056C51.2708 130.249 51.0087 141.517 55.6926 153.037Z" fill="#0057C8"/>
<path d="M182.356 12.6441C179.723 14.134 177.486 15.6294 175.056 16.6745C172.722 17.6778 170.584 17.2706 169.153 14.1062C176.414 12.5093 181.699 7.73042 188.011 4.88311C207.674 -3.98679 225.818 -0.257636 242.559 11.9045C256.912 22.332 265.915 36.6643 271.07 53.6399C275.272 67.4782 278.285 81.6997 284.079 95.0398C284.672 96.4041 284.724 97.8181 283.107 98.371C281.198 99.0237 280.485 97.4134 279.839 96.0679C276.726 89.5792 275.201 82.5556 273.006 75.7543C268.267 61.0725 265.539 45.577 256.484 32.585C246.931 18.8782 234.523 8.7634 217.917 5.17591C205.317 2.45374 193.512 5.63053 182.356 12.6441Z" fill="#0057C8"/>
<path d="M168.568 99.8441C159.958 98.9633 153.175 96.1466 150.799 87.0758C142.633 89.4565 135.433 93.4933 127.215 94.3668C121.076 95.0193 114.982 95.6781 108.837 94.796C97.4389 93.1598 91.296 80.4508 96.9815 70.344C97.5686 69.3003 98.194 68.3708 99.6911 68.4181C99.6911 72.0581 99.634 75.5868 99.7031 79.1129C99.842 86.2043 102.117 89.1616 109.141 90.402C123.576 92.9514 136.808 88.971 149.467 82.3827C150.177 82.0133 150.841 81.4001 151.303 80.7433C152.249 79.3971 152.914 77.4717 155.065 78.5475C157.112 79.5712 156.762 81.5254 156.457 83.3954C155.373 90.0397 157.858 94.1517 164.53 95.0287C175.544 96.4765 186.431 96.1891 196.237 89.7329C199.102 87.8465 200.19 89.6714 200.381 92.2784C201.111 102.276 201.691 103.271 211.397 104.475C216.129 105.062 219.894 107.994 224.653 108.46C222.246 111.369 220.638 111.177 207.792 108.368C201.006 106.885 197.05 102.836 195.133 95.9811C186.416 98.0872 177.891 100.277 168.568 99.8441Z" fill="#0057C8"/>
<path d="M287.271 530.532C287.566 532.706 290.309 532.454 291.034 534.337C290.107 537.221 288.079 537.005 285.909 536.013C283.448 534.887 282.265 532.791 281.674 530.204C280.496 525.052 279.757 519.855 277.655 514.849C275.654 510.084 278.112 505.38 280.456 501.116C281.905 498.48 282.47 496.733 279.399 494.491C275.527 491.666 276.337 487.424 278.176 483.613C279.891 480.06 281.925 476.66 284.377 472.169C277.153 473.793 273.387 471.124 272.05 464.89C270.816 459.139 272.206 453.971 275.645 449.421C277.036 447.58 279.096 448.042 281.285 449.562C278.734 452.959 276.598 456.264 276.619 460.388C276.633 463.065 276.536 465.998 278.952 467.665C281.457 469.394 283.145 466.703 285.14 465.764C285.567 465.562 286.084 465.55 286.329 465.499C288.46 465.941 286.772 467.968 288.203 468.869C291.368 464.182 290.667 460.524 285.317 458.214C288.808 454.386 291.743 454.661 293.735 458.476C296.22 463.233 295.378 469.589 291.009 472.978C286.67 476.344 284.701 481.057 282.429 485.614C280.509 489.466 281.745 491.51 285.872 491.452C288.362 491.417 290.091 491.868 290.97 494.291C292.012 497.166 289.255 497.41 287.929 498.629C284.036 502.21 282.327 506.916 281.841 511.924C281.462 515.824 284.25 517.415 287.987 515.987C289.914 515.251 289.914 515.251 293.319 515.787C289.437 519.981 281.792 522.516 287.096 530.285C287.303 530.564 287.271 530.532 287.271 530.532Z" fill="#0057C8"/>
<path d="M248.628 503.504C248.223 500.785 246.577 497.733 249.394 496.373C252.18 495.029 254.746 497.436 256.707 499.337C259.641 502.181 259.793 507.713 256.711 510.706C250.972 516.278 249.61 523.278 249.398 530.702C249.342 532.7 248.441 536.421 251.92 535.906C254.775 535.484 257.735 533.221 257.482 529.352C257.35 527.331 256.556 525.498 254.765 524.229C253.94 523.645 253.263 522.796 253.833 521.683C254.485 520.407 255.679 520.427 256.873 520.665C259.2 521.127 260.577 522.624 261.566 524.727C263.737 529.341 263.62 534.048 262.554 538.881C262.185 540.55 262.165 542.44 259.793 542.191C257.373 541.938 256.78 540.467 257.656 538.262C257.797 537.909 257.625 537.432 257.581 536.752C256.291 537.978 255.344 539.159 254.145 539.965C250.076 542.698 244.85 540.841 244.889 536.061C244.959 527.457 243.996 518.35 250.718 511.169C251.695 510.125 252.743 508.959 252.843 506.785C248.838 510.362 244.751 511.917 240.363 508.262C236.826 505.316 235.853 498.795 238.372 493.401C239.606 490.759 240.673 487.291 245.784 488.509C243.483 492.692 241.606 496.765 242.538 501.361C243.338 505.305 245.077 506.007 248.628 503.504Z" fill="#0057C8"/>
<path d="M311.692 471.288C313.036 479.759 313.55 487.932 316.018 495.762C316.619 497.671 316.66 499.666 314.289 500.174C311.89 500.688 311.185 498.692 310.833 496.825C309.663 490.617 308.478 484.41 307.473 478.174C305.866 468.196 303.472 458.335 301.805 448.431C299.302 433.548 295.578 418.885 293.772 403.886C293.554 402.078 292.708 399.897 295.432 399.575C297.868 399.287 298.233 401.545 298.578 403.313C300.902 415.22 303.153 427.142 305.452 439.055C307.498 449.658 309.576 460.254 311.692 471.288Z" fill="#0057C8"/>
<path d="M170.293 29.6431C167.017 30.7458 166.326 28.3896 165.715 26.3947C164.645 22.9035 163.843 19.3285 162.984 15.7753C160.619 5.99942 154.449 2.09372 144.431 4.29486C128.536 7.7872 115.879 16.55 105.395 28.7117C102.143 32.4834 99.4422 36.791 95.128 39.5179C90.3922 42.5111 87.6203 42.1342 84.4265 38.2934C84.5799 38.0119 84.7536 37.481 84.8933 37.4898C91.9265 37.9333 96.0714 33.5448 100.048 28.673C107.165 19.9529 115.508 12.6046 125.35 7.07869C133.761 2.35614 142.627 -0.723987 152.499 0.266644C157.831 0.801556 162.197 3.05888 164.505 7.99266C167.669 14.759 168.626 22.2137 170.293 29.6431Z" fill="#0057C8"/>
<path d="M245.24 455.883C241.996 458.074 238.772 460.166 235.328 457.941C231.769 455.641 231.267 451.723 231.724 447.718C232.158 443.924 232.554 440.125 232.999 436.333C233.618 431.053 236.184 429.963 241.43 433.03C236.145 437.68 237.193 444.136 236.684 450.082C236.376 453.679 238.424 454.829 241.821 453.261C248.209 450.312 248.879 447.63 244.541 441.773C243.673 440.6 242.081 439.55 243.613 438.003C244.83 436.773 246.387 437.233 247.762 438.014C253.444 441.245 256.549 458.146 252.355 463.193C251.306 464.455 250.152 465.758 247.878 464.898C246.974 461.188 251.78 457.745 248.827 453.838C247.182 453.515 246.592 455.031 245.24 455.883Z" fill="#0057C8"/>
<path d="M166.604 173.919C171.125 171.453 175.872 169.91 178.126 165.084C178.71 163.832 179.854 163.584 181.081 164.217C182.904 165.158 183.345 167.004 183.864 168.747C184.285 170.159 183.419 171.201 182.228 171.365C176.184 172.201 171.978 176.675 166.709 179.065C157.854 183.082 149.989 182.432 142.735 175.832C141.628 174.826 140.462 173.884 139.309 172.93C138.072 171.906 136.263 171.269 136.714 169.115C136.928 168.094 137.391 167.201 138.502 166.937C140.578 166.445 141.419 168.015 142.439 169.327C143.047 170.108 143.743 170.832 144.462 171.514C151.085 177.793 158.335 178.849 166.604 173.919Z" fill="#0057C8"/>
<path d="M34.7651 437.402C37.3779 439.637 35.6301 441.534 34.7404 443.375C31.1987 450.703 26.6923 457.519 23.4378 465.018C22.0948 468.113 21.6549 471.417 20.4132 474.472C19.2495 477.335 17.6702 480.04 14.7461 481.277C13.2803 480.675 13.054 479.748 13.3182 478.692C16.9065 464.34 24.1191 451.623 31.309 438.899C31.9828 437.706 32.7825 436.605 34.7651 437.402Z" fill="#0057C8"/>
<path d="M287.319 530.579C286.805 528.293 288.103 527.192 290.031 526.54C291.597 526.011 293.285 525.7 294.321 523.656C288.378 519.122 297.628 516.73 295.853 512.099C294.674 511.248 291.455 513.264 291.291 509.866C291.19 507.784 292.542 506.831 294.258 506.448C296.87 505.865 299.259 506.258 300.757 508.84C302.698 512.187 300.204 526.1 297.138 528.354C294.479 530.31 291.289 530.55 287.687 530.569C287.271 530.532 287.303 530.563 287.319 530.579Z" fill="#0057C8"/>
<path d="M247.98 482.349C239.906 487.606 235.369 485.637 233.722 476.583C232.916 472.152 233.868 467.919 235.422 463.878C236.953 459.898 240.449 458.831 244.623 460.594C244.962 461.827 244.099 462.391 243.283 462.973C238.92 466.087 237.053 472.983 239.123 477.987C240.151 480.471 241.738 481.201 244.264 480.249C245.613 479.741 246.773 478.483 248.431 479.014C249.638 480.133 248.904 481.106 247.98 482.349Z" fill="#0057C8"/>
<path d="M329.067 460.576C332.192 461.908 332.822 464.681 333.858 467.064C336.309 472.704 338.518 478.448 340.929 484.106C341.703 485.921 342.503 487.731 340.18 488.754C338.177 489.636 337.152 488.096 336.454 486.452C333.27 478.951 330.1 471.444 326.918 463.943C326.121 462.065 326.186 460.655 329.067 460.576Z" fill="#0057C8"/>
<path d="M253.256 468.4C259.025 474.217 259.829 481.623 255.643 487.647C253.157 491.226 250.722 491.018 248.371 487.025C255.226 481.74 254.772 475.02 247.216 470.951C245.958 470.273 244.644 469.704 245.1 468.093C245.617 466.265 247.333 466.156 248.813 466.497C250.242 466.827 251.567 467.607 253.256 468.4Z" fill="#0057C8"/>
<path d="M83.2988 517.58C84.4052 517.536 85.5879 517.027 86.5823 518.006C85.0403 522.342 80.9937 524.587 76.6222 523.541C71.6282 522.346 68.4047 517.186 69.1909 510.99C69.6178 507.625 70.271 503.955 75.8089 504.304C74.1583 509.399 72.2844 514.51 76.7614 518.602C78.5301 520.219 80.8694 519.167 83.0778 517.763C83.3597 517.543 83.3175 517.565 83.2988 517.58Z" fill="#0057C8"/>
<path d="M293.768 495.262C293.972 491.006 292.003 488.282 289.025 486.11C288.057 485.404 287.049 484.657 287.797 483.279C288.45 482.074 289.661 482.026 290.861 482.154C294.38 482.531 297.696 486.931 298.477 492.243C299.19 497.095 297.001 502.852 293.945 504.117C292.6 504.674 291.359 504.731 290.368 502.988C291.301 500.577 293.734 498.622 293.768 495.262Z" fill="#0057C8"/>
<path d="M90.3889 241.243C90.3826 243.091 90.1861 244.46 88.3538 244.421C86.7948 244.387 85.8287 243.273 85.744 241.885C85.3037 234.666 85.024 227.43 85.6553 220.215C85.7983 218.581 87.2723 218.198 88.6795 219.165C90.0162 220.084 90.7383 221.534 90.3153 223.06C88.6685 229.002 90.5684 234.895 90.3889 241.243Z" fill="#0057C8"/>
<path d="M125.607 42.8936C128.026 42.1717 130.626 41.163 131.161 44.2614C131.624 46.9505 129.304 47.5868 126.915 47.8508C121.011 48.5032 117.104 53.0724 112.179 55.6638C110.847 56.3652 109.81 58.3159 107.387 55.9902C111.711 49.4181 118.426 46.1436 125.607 42.8936Z" fill="#0057C8"/>
<path d="M116.227 396.027C123.871 392.289 124.626 389.906 120.177 383.463C119.468 382.436 118.743 381.491 119.708 380.383C120.784 379.147 122.115 379.65 123.381 380.162C126.484 381.417 127.139 384.229 127.513 387.043C128.023 390.881 127.359 394.48 123.612 396.529C121.168 397.865 118.418 401.185 116.227 396.027Z" fill="#0057C8"/>
<path d="M133.298 509.566C138.843 511.232 138.545 515.838 138.408 520.156C138.261 524.769 136.289 528.544 131.964 530.611C130.68 531.225 128.89 531.577 127.998 529.836C127.296 528.464 127.826 527.145 129.301 526.574C135.313 524.245 134.343 519.544 133.266 514.883C132.901 513.302 131.727 511.854 133.116 509.868C133.313 509.556 133.302 509.563 133.298 509.566Z" fill="#0057C8"/>
<path d="M128.032 124.661C131.669 127.978 132.422 131.529 130.057 135.574C128.213 138.728 125.172 138.88 122.912 135.916C119.814 131.853 122.231 126.06 128.032 124.661Z" fill="#0057C8"/>
<path d="M229.444 530.599C230.12 538.708 226.74 542.917 220.427 541.338C226.631 536.832 225.641 531.887 221.724 526.79C220.791 525.577 220.652 524.295 222.081 523.362C223.343 522.539 224.675 522.769 225.747 523.772C227.623 525.528 228.497 527.882 229.444 530.599Z" fill="#0057C8"/>
<path d="M201.308 128.639C202.474 132.06 202.01 134.835 199.713 137.185C198.356 138.573 196.715 139.305 194.808 138.513C192.947 137.741 192.191 136.126 192.054 134.189C191.811 130.721 194.14 128.789 196.539 127.027C198.429 125.639 199.92 126.701 201.308 128.639Z" fill="#0057C8"/>
<path d="M225.368 50.7106C225.61 53.1737 224.413 54.794 222.625 53.5049C217.917 50.1089 212.525 47.9228 207.826 44.5756C207.149 44.0933 206.81 43.2857 207.382 41.4155C214.746 41.3886 219.834 46.235 225.368 50.7106Z" fill="#0057C8"/>
<path d="M125.117 59.3544C121.999 60.8684 120.436 64.0261 117.058 65.0118C115.519 62.6782 116.311 60.9023 117.764 59.1627C120.519 55.8633 124.369 54.2678 128.122 52.5625C129.358 52.0011 130.903 51.9914 131.64 53.3972C132.609 55.2453 131.09 56.037 129.769 56.7779C128.328 57.5855 126.873 58.3682 125.117 59.3544Z" fill="#0057C8"/>
<path d="M227.334 247.016C227.252 243.783 227.083 240.965 227.318 238.182C227.454 236.573 228.15 234.591 230.246 234.884C232.183 235.155 231.772 237.042 231.771 238.531C231.768 242.295 231.063 246.096 232.84 249.75C233.53 251.17 233.065 252.853 231.317 253.367C229.732 253.834 228.906 252.552 228.435 251.271C227.981 250.038 227.748 248.724 227.334 247.016Z" fill="#0057C8"/>
<path d="M80.784 345.878C79.5256 347.721 78.4832 349.278 75.8336 348.267C75.681 345.519 78.368 343.358 77.8559 340.472C77.3126 337.41 74.4662 336.663 72.2536 335.045C73.9691 331.705 76.2775 332.432 78.4811 333.71C82.1891 335.862 83.0667 340.346 80.784 345.878Z" fill="#0057C8"/>
<path d="M267.34 159.849C268.362 157.477 269.782 156.172 272.105 156.729C273.922 157.165 275.577 158.094 275.982 160.139C276.489 162.696 276.625 165.62 273.404 166.145C269.242 166.824 267.566 164.018 267.34 159.849Z" fill="#0057C8"/>
<path d="M102.484 240.745C99.8203 242.27 99.231 240.688 99.1723 238.862C99.0617 235.417 99.0923 231.964 99.202 228.518C99.2566 226.804 100.419 225.712 102.073 225.701C103.959 225.689 104.41 227.186 104.513 228.796C104.767 232.799 104.272 236.684 102.484 240.745Z" fill="#0057C8"/>
<path d="M63.4321 155.497C61.77 152.629 62.9962 150.87 65.2346 150.001C68.0713 148.9 70.4517 150.716 72.3107 152.444C73.6746 153.713 72.6175 155.572 71.508 156.911C69.6841 159.113 67.5429 159.109 65.3247 157.587C64.6617 157.132 64.1767 156.418 63.4321 155.497Z" fill="#0057C8"/>
<path d="M227.309 46.6534C224.632 44.6775 222.217 42.9532 219.892 41.1162C218.87 40.3084 217.71 39.275 218.731 37.8029C219.507 36.6828 220.792 36.8721 221.894 37.3362C225.961 39.0498 228.744 42.4013 231.861 45.3148C232.518 45.9296 232.586 46.9554 231.964 47.5682C230.279 49.2287 228.997 47.5345 227.309 46.6534Z" fill="#0057C8"/>
<path d="M170.377 215.813C168.304 215.17 166.43 214.819 166.017 212.603C167.232 210.795 169.05 211.164 170.567 211.471C172.945 211.952 175.12 212.051 177.29 210.743C178.633 209.933 180.263 209.475 181.114 211.345C182.016 213.33 180.678 214.417 179.035 215.195C176.363 216.461 173.6 216.614 170.377 215.813Z" fill="#0057C8"/>
<path d="M121.976 105.554C123.981 102.282 127.312 102.367 130.254 101.673C131.41 101.401 132.536 102.113 133.068 103.252C133.549 104.28 133.142 105.491 132.226 105.797C128.859 106.922 125.414 109.114 121.976 105.554Z" fill="#0057C8"/>
<path d="M73.1 344.919C73.4236 345.485 73.7031 345.822 73.6474 346.089C73.0439 348.981 73.5596 353.921 70.0201 353.527C66.1302 353.094 68.6055 348.085 68.2703 345.34C67.9532 342.744 70.9182 342.675 73.1 344.919Z" fill="#0057C8"/>
<path d="M241.29 234.732C245.266 238.679 244.755 243.299 239.679 247.27C238.709 242.65 238.988 238.632 241.29 234.732Z" fill="#0057C8"/>
<path d="M209.753 153.095C208.957 149.125 211.163 148.604 213.984 148.618C217.452 148.636 217.38 150.916 217.283 153.914C214.693 152.727 212.333 158.388 209.753 153.095Z" fill="#0057C8"/>
<path d="M154.555 159.466C153.398 156.782 153.196 155 156.741 156.258C157.345 156.473 158 156.858 158.576 156.776C160.173 156.55 161.915 155.689 162.647 158.014C163.03 159.23 162.436 160.241 161.538 161.075C159.963 162.537 158.252 162.385 156.564 161.382C155.879 160.975 155.355 160.299 154.555 159.466Z" fill="#0057C8"/>
<path d="M175.169 531.284C175.184 530.702 175.177 530.535 175.202 530.374C175.489 528.509 174.668 526.291 176.774 525C177.601 524.493 178.483 524.871 178.854 525.662C179.964 528.026 179.806 530.451 178.724 532.782C178.303 533.689 177.538 534.445 176.392 534.12C175.198 533.781 175.249 532.675 175.169 531.284Z" fill="#0057C8"/>
<path d="M116.292 157.569C117.368 156.351 116.83 153.366 119.574 154.059C121.527 154.552 121.582 156.506 121.31 158.218C121.051 159.849 120.818 161.908 118.751 161.952C116.485 162.001 116.63 159.849 116.351 157.894C116.308 157.546 116.292 157.569 116.292 157.569Z" fill="#0057C8"/>
<path d="M197.768 110.823C195.355 110.694 193.028 111.767 191.475 109.451C192.391 106.734 195.036 107.347 196.872 106.552C198.186 105.983 199.68 106.304 200.32 107.685C201.243 109.679 199.629 110.248 197.768 110.823Z" fill="#0057C8"/>
<path d="M116.314 157.532C114.934 158.93 113.873 162.446 111.526 158.568C110.653 157.125 111.022 155.11 112.776 154.397C114.844 153.555 115.564 155.302 116.192 157.247C116.292 157.569 116.308 157.546 116.314 157.532Z" fill="#0057C8"/>
<path d="M123.707 157.049C124.126 155.393 124.59 153.983 126.323 154.509C127.781 154.951 128.084 156.407 127.929 157.739C127.768 159.119 126.942 160.342 125.45 160.308C123.668 160.266 123.716 158.702 123.707 157.049Z" fill="#0057C8"/>
<path d="M220.612 148.562C224.536 148.907 223.716 151.283 223.209 153.88C219.596 153.365 219.837 151.166 220.612 148.562Z" fill="#0057C8"/>
</svg>
