<svg width="420" height="598" viewBox="0 0 420 598" fill="none" xmlns="http://www.w3.org/2000/svg">
<path d="M349.14 378.306C366.384 403.638 384.805 427.778 398.3 455.107C404.563 467.79 412.516 479.596 418.056 492.681C419.719 496.611 420.119 498.648 415.304 501.522C378.943 523.222 341.148 542.028 302.735 559.766C285.188 567.868 267.316 575.142 249.585 582.77C238.432 587.569 227.044 591.926 215.501 595.677C209.52 597.621 203.449 597.832 197.023 594.268C180.978 585.369 163.289 580.109 146.32 573.242C135.367 568.809 124.505 564.015 113.261 560.464C85.601 551.729 59.2284 539.634 31.9467 529.914C21.8184 526.306 12.3933 520.714 2.67515 515.97C-0.207372 514.562 -0.701696 512.932 0.909266 509.618C5.07524 501.048 6.37873 491.521 8.83098 482.374C17.1442 451.366 29.146 421.816 43.7533 393.245C51.7644 377.576 60.8402 362.812 73.375 350.266C81.6089 342.025 92.1221 338.435 102.617 334.71C118.216 329.174 134.527 326.611 150.715 323.559C153.805 322.976 156.835 322.155 159.884 320.312C157.85 317.102 158.817 314.919 161.775 312.878C164.205 311.202 166.104 308.762 168.26 306.682C169.493 305.492 170.653 304.193 170.415 302.376C169.068 292.086 170.292 281.568 167.684 270.619C152.725 271.384 137.831 271.228 123.204 267.466C108.504 263.685 95.9359 256.479 85.3759 243.877C88.0769 256.29 86.181 259.78 75.2715 264.089C72.8972 265.027 70.959 266.394 69.0937 268.146C63.8557 273.068 59.4617 272.08 56.3756 265.572C55.9659 264.708 55.3835 263.831 54.6592 263.226C45.92 255.923 43.6442 248.442 48.5221 238.326C50.9765 233.235 50.6063 230.059 47.151 225.557C38.5403 214.338 38.2072 194.906 45.3 183.496C48.0642 179.05 51.6438 176.225 56.9095 175.97C60.2719 175.808 61.7303 174.847 60.7684 171.062C58.0667 160.432 59.8574 149.867 61.9927 139.396C62.5488 136.67 63.5422 133.829 65.0803 131.541C71.7514 121.621 77.3081 110.858 86.3348 102.667C89.5639 99.7373 92.1283 96.4483 93.9421 92.3313C96.2099 87.184 101.393 84.8566 106.05 82.3247C109.381 80.5134 113.034 79.2937 116.544 77.8115C121.941 75.5328 122.677 73.7697 119.732 68.7074C117.272 64.4804 114.97 60.3162 115.183 55.2029C115.361 50.94 116.429 47.4255 120.878 45.5966C123.901 44.3535 125.594 41.4521 127.42 38.9076C129.821 35.5609 132.759 32.8201 136.548 31.3819C139.837 30.1338 140.537 28.069 140.491 24.8523C140.345 14.7335 146.204 9.57699 156.291 10.6491C158.749 10.9103 161.339 11.6004 161.15 14.5381C160.975 17.2711 158.201 16.6573 156.332 16.8261C147.274 17.644 146.323 18.6492 146.718 27.2923C146.995 33.3423 145.724 35.0228 139.784 36.7751C137.356 37.4913 134.239 38.4949 133.817 40.8421C132.942 45.7037 129.461 47.1625 125.972 49.5196C119.815 53.6785 119.749 60.9419 125.032 66.1933C126.478 67.631 128.007 68.1186 129.105 66.1063C133.498 58.063 141.556 55.0016 149.28 52.3113C166.952 46.156 185.136 43.5947 203.817 47.5826C215.731 50.1259 226.504 55.1933 236.619 61.8172C239.708 63.8398 242.505 66.2692 246.314 62.6917C251.644 57.6871 254.236 52.3082 251.371 48.3809C248.379 44.2788 246.315 38.5224 239.745 38.2731C238.678 38.2327 237.971 37.3931 237.575 36.4183C237.327 35.8058 237.247 35.1262 237.013 34.5061C234.026 26.5816 214.376 12.4503 205.934 12.2461C203.687 12.1917 201.643 11.9521 200.01 10.2061C195.568 5.45553 189.956 5.5319 184.229 6.63931C178.461 7.75454 173.032 9.86496 168.03 12.9913C166.425 13.9942 164.742 15.1205 163.225 13.0587C161.793 11.1125 163.198 9.60609 164.43 8.23526C172.278 -0.496829 193.273 -2.88821 202.509 4.00059C204.097 5.18538 205.664 5.5803 207.54 5.74357C214.798 6.37503 221.138 8.9954 225.688 14.9426C227.784 17.6822 230.99 18.9622 233.399 21.2289C240.478 27.89 247.7 34.427 254.392 41.4642C260.946 48.3567 259.842 57.0285 251.966 66.0574C251.201 66.9351 250.216 67.6507 249.579 68.6054C247.59 71.584 248.832 74.496 252.343 74.3511C267.445 73.7281 277.409 82.0489 285.435 93.3736C289.551 99.182 294.339 104.07 300.093 108.171C307.888 113.726 312.838 121.211 314.707 130.649C316.934 141.893 319.847 153.092 317.039 164.685C316.739 165.925 317.215 166.812 318.181 167.731C328.699 177.735 329.208 190.929 319.571 201.703C318.801 202.564 318.074 203.462 317.465 204.18C317.319 205.67 318.319 206.136 319.044 206.773C332.398 218.492 329.33 237.5 312.994 244.162C310.381 245.228 307.875 246.193 306.005 248.665C303.533 251.932 299.903 252.205 296.593 250.137C290.795 246.515 283.183 245.548 279.827 237.66C270.944 246.405 260.977 251.504 249.706 253.907C242.706 255.399 235.646 256.641 228.574 257.748C225.4 258.245 224.471 259.887 224.511 262.833C224.617 270.663 224.659 278.497 224.55 286.327C224.495 290.257 226.313 291.639 230.049 291.543C235.711 291.397 241.379 291.53 247.044 291.473C252.482 291.418 253.215 292.576 250.9 297.682C249.594 300.564 248.237 303.43 247.104 306.381C245.073 311.669 245.679 312.642 251.261 312.466C261.145 312.154 270.824 313.106 280.44 315.578C289.305 317.857 296.405 322.991 303.24 328.581C320.769 342.916 335.023 360.314 349.14 378.306ZM209.65 432.352C209.928 439.67 210.629 447.001 210.398 454.304C209.837 472.117 209.065 489.915 210.502 507.721C210.691 510.057 210.175 512.306 207.272 512.36C204.497 512.412 204.306 510.155 204.291 508.083C204.203 495.775 203.146 483.502 204.03 471.15C205.137 455.69 203.728 440.203 203.397 424.726C202.924 402.601 204.321 380.468 203.341 358.341C202.997 350.565 201.779 349.601 194.275 350.487C192.291 350.722 190.29 350.817 188.31 351.079C184.674 351.56 182.159 350.338 179.812 347.288C175.532 341.728 171.511 336.012 167.967 329.988C166.171 326.934 163.961 325.734 160.607 326.496C143.1 330.476 125.361 333.293 108.044 338.287C88.4756 343.93 73.7818 355.519 62.639 372.129C46.1979 396.636 34.8043 423.602 24.453 451.056C17.0677 470.644 11.8915 490.845 8.0022 511.395C22.775 520.437 39.0224 525.952 54.8077 532.624C85.6705 545.669 117.778 555.29 148.737 567.994C164.432 574.435 181 578.78 196.005 586.798C204.532 591.354 212.29 591.016 221.123 587.79C250.544 577.046 279.417 565.021 307.775 551.779C342.193 535.706 375.975 518.406 408.273 498.31C412.03 495.973 412.264 493.989 410.559 490.327C403.033 474.164 393.986 458.794 385.698 443.042C378.127 428.654 368.058 415.66 359.087 402.053C343.34 378.168 325.549 356.078 304.447 336.674C288.665 322.16 270.244 316.163 248.984 318.089C243.524 318.584 241.15 321.605 241.077 326.466C241 331.558 238.62 336.122 238.433 341.168C238.327 344.027 236.049 344.885 233.416 344.854C226.885 344.776 220.528 346.228 214.091 346.995C209.47 347.546 208.181 349.579 208.838 353.949C209.43 357.882 209.655 361.902 209.663 365.885C209.707 387.709 209.635 409.533 209.65 432.352ZM287.348 212.089C288.529 210.793 289.029 209.173 289.146 207.515C290.037 194.804 287.789 182.296 286.612 169.72C286.327 166.673 284.545 165.862 281.71 166.582C275.188 168.24 268.231 168.429 262.755 164.865C254.016 159.177 248.259 161.468 242.943 169.239C241.653 171.125 239.413 172.173 241.227 175.07C242.33 176.83 241.055 178.463 239.169 178.75C236.559 179.146 233.876 179.171 231.226 179.148C229.983 179.137 229.055 178.274 228.895 176.937C228.76 175.813 229.449 175.142 230.338 174.536C231.221 173.933 232.724 174.28 233.168 172.483C229.412 172.014 228.534 169.375 228.206 166.111C227.363 157.75 223.075 151.562 216.065 147.016C207.208 141.272 197.365 141.79 187.527 142.226C185.089 142.334 185.3 144.262 185.617 145.978C186.653 151.591 188.04 157.073 192.303 161.257C193.341 162.275 194.049 163.258 193.478 164.748C193.021 165.939 192.074 167.024 190.916 166.766C184.914 165.432 179.549 168.689 173.761 168.912C160.284 169.43 142.75 164.893 136.113 147.408C135.727 146.392 135.442 145.108 133.533 144.835C128.135 150.314 122.642 156.198 115.771 160.335C105.995 166.22 96.8866 173.582 85.061 175.24C82.6722 175.575 82.8135 177.413 82.5915 178.965C81.1088 189.334 79.5551 199.647 79.5321 210.218C79.4875 230.621 90.0294 244.723 106.208 254.801C123.578 265.622 143.27 266.919 163.211 265.439C164.349 265.355 165.508 264.966 166.568 264.51C171.339 262.455 173.389 263.61 173.736 268.912C174.203 276.053 174.504 283.205 174.822 290.354C174.968 293.633 175.331 296.845 176.497 300.135C177.453 299.743 178.171 299.635 178.629 299.233C182.257 296.045 184.963 296.613 188.211 300.316C192.769 305.513 198.473 309.651 202.725 316.123C208.363 309.057 213.433 302.729 218.456 296.364C218.841 295.877 219.181 295.081 219.072 294.52C217.711 287.554 219.761 280.595 218.98 273.6C218.372 268.156 218.525 262.628 218.33 257.138C218.226 254.195 219.826 252.764 222.576 252.757C230.968 252.736 239.055 250.615 247.204 249.104C263.941 246 276.247 236.757 284.679 221.848C286.488 218.651 283.869 215.114 287.348 212.089ZM286.656 152.251C291.329 159.099 292.067 167.242 293.686 175.64C297.37 172.671 300.466 170.143 304.237 168.727C310.293 166.452 312.167 163.775 312.168 157.436C312.17 148.901 310.877 140.518 308.979 132.24C307.224 124.584 303.953 117.645 297.116 113.212C290.018 108.61 284.358 102.82 279.523 95.8476C274.952 89.2564 269.317 82.6149 260.91 81.7795C252.102 80.9042 245.834 76.0632 239.467 71.2589C209.448 48.6073 177.379 47.1523 143.852 61.8205C137.063 64.7906 131.076 69.6768 126.753 75.7878C124.858 78.4664 123.154 80.8334 120.224 82.2507C116.185 84.2041 112.057 85.9998 108.144 88.1812C103.502 90.7699 98.6769 93.3186 97.6886 99.4253C97.4087 101.155 96.0373 102.324 94.7285 103.338C84.6151 111.175 78.8563 122.493 71.4224 132.464C69.5201 135.016 68.4904 138.091 67.9292 141.226C66.3743 149.914 64.7569 158.655 66.1205 167.494C67.0223 173.339 68.9109 178.898 75.0291 182.658C77.609 173.293 78.9776 164.482 79.4115 155.507C79.5143 153.381 79.168 150.625 82.2937 150.718C84.9954 150.798 85.6136 153.332 85.5965 155.538C85.576 158.182 85.0144 160.818 84.8124 163.468C84.3179 169.952 85.9216 171.176 91.8232 168.151C98.9292 164.508 106.069 160.805 112.691 156.376C121.152 150.716 128.985 144.134 133.963 134.959C134.999 133.05 135.7 131.167 138.134 131.607C140.992 132.125 140.906 134.58 140.8 136.767C140.604 140.829 141.308 144.637 142.86 148.445C149.053 163.642 171.122 165.652 181.76 162.076C184.623 161.113 183.742 158.928 182.82 157.145C180.325 152.322 179.762 146.963 178.344 141.844C177.372 138.331 178.762 136.294 182.432 136.134C186.257 135.969 190.12 135.658 193.912 136.001C202.526 136.781 211.246 137.433 218.916 142.091C227.349 147.213 232.263 154.894 234.61 164.329C234.942 165.667 235.026 167.043 236.803 167.151C239.975 167.342 248.264 157.125 246.851 154.281C244.817 150.185 243.478 145.503 239.224 142.81C237.473 141.701 235.557 140.166 237.466 138.055C239.213 136.124 242.586 135.103 244.186 136.993C247.263 140.626 252.068 143.419 253.032 148.211C255.22 159.088 263.829 160.142 272.151 161.63C275.888 162.298 279.64 161.409 282.776 159.033C280.565 152.22 281.165 150.992 286.656 152.251ZM196.653 317.28C193.118 312.166 188.275 308.305 183.941 303.955C182.811 302.821 181.82 302.771 180.43 303.589C175.658 306.396 171.429 309.858 167.768 313.979C166.609 315.284 165.388 316.761 166.79 318.853C171.599 326.031 176.405 333.215 181.003 340.529C183.637 344.718 187.021 345.728 191.895 345.377C204.373 344.48 216.492 341.494 228.817 339.764C233.246 339.142 238.402 331.616 236.674 327.648C234.505 322.665 236.352 318.796 238.263 314.48C240.631 309.131 242.447 303.538 244.882 297.031C240.257 297.031 236.928 297.364 233.692 296.96C227.378 296.171 223.061 298.742 219.106 303.507C215.058 308.384 211.686 313.745 207.582 318.543C202.532 324.448 201.385 324.319 196.653 317.28ZM47.5719 212.241C48.583 216.126 50.0486 219.795 52.3248 223.145C54.2477 225.975 56.146 227.261 59.7118 225.231C62.8809 223.427 66.5249 222.867 70.2821 224.303C74.6322 225.965 75.5879 225.039 74.551 220.265C72.977 213.017 72.5992 205.612 74.0479 198.472C75.4415 191.604 70.2339 184.288 63.8282 182.302C57.2167 180.252 53.7577 181.491 49.9688 187.382C45.0685 195.001 45.6439 203.14 47.5719 212.241ZM320.424 217.737C317.579 211.838 313.818 208.842 310.092 210.359C300.767 214.154 289.581 215.703 286.738 228.099C286.702 228.255 286.589 228.395 286.508 228.54C284.232 232.631 285.378 238.018 289.212 240.838C291.56 242.564 293.751 243.434 295.973 240.307C298.175 237.21 301.252 236.864 304.184 239.316C306.042 240.87 307.717 240.6 309.723 239.936C319.317 236.76 322.722 230.158 320.424 217.737ZM78.4064 241.345C81.5612 237.086 79.5359 233.814 76.3379 230.187C72.2718 234.318 67.8401 237.427 62.075 235.66C57.6385 234.3 55.6356 236.331 54.0375 239.928C52.8695 242.556 52.2604 245.329 52.0664 248.106C51.6672 253.82 55.5545 259.169 60.0261 258.847C63.0767 258.628 65.916 259.066 68.8681 259.497C74.3618 260.299 81.1605 256.133 80.6358 252.075C80.2049 248.744 80.1531 245.179 78.4064 241.345ZM318.499 195.101C321.463 189.016 321.173 182.876 318.753 176.725C317.992 174.791 316.724 173.288 314.656 172.624C307.623 170.369 293.821 179.787 294.307 187.225C294.804 194.827 295.111 202.4 294.593 209.784C296.229 210.723 298.156 209.994 298.101 209.512C297.604 205.158 302.018 203.514 303.043 199.984C304.623 194.54 306.329 189.164 306.787 183.462C306.941 181.547 307.799 179.69 310.198 180.048C312.525 180.395 312.998 182.328 312.588 184.265C311.692 188.495 310.581 192.678 309.565 196.882C309.112 198.753 308.052 200.678 310.116 202.561C314.105 201.863 315.926 198.578 318.499 195.101Z" fill="black"/>
<path d="M200.512 15.5479C203.79 16.7387 206.462 18.0519 206.763 21.6361C206.894 23.1974 206.549 24.7122 205.07 25.5047C203.517 26.3366 202.632 25.1128 201.828 24.0479C199.911 21.5102 197.439 20.6659 194.377 21.4914C192.605 21.969 190.471 22.7515 189.761 20.3245C189.054 17.9056 190.678 16.1919 192.817 15.2944C195.214 14.2891 197.698 14.6934 200.512 15.5479Z" fill="black"/>
<path d="M176.459 32.9525C177.903 34.8301 180.495 36.487 177.421 38.3994C174.823 40.0157 172.242 39.1203 170.512 36.5553C168.571 33.6773 170.044 26.1887 172.827 24.1106C173.884 23.3212 174.938 23.1378 176.018 23.9426C177.172 24.8017 177.681 25.9703 177.45 27.4248C177.169 29.1933 175.678 30.6935 176.459 32.9525Z" fill="black"/>
<path d="M223.758 41.2246C223.669 40.1945 223.599 39.5362 223.598 38.8779C223.595 37.0071 223.7 34.6358 226.049 34.8341C228.824 35.0682 229.45 37.8151 229.362 40.1217C229.287 42.1085 228.307 44.0793 225.79 44.0699C224.359 44.0646 224.084 42.7377 223.758 41.2246Z" fill="black"/>
<path d="M304.765 428.743C311.2 446.652 318.786 463.611 327.734 479.966C329.245 482.728 330.269 485.755 331.727 488.549C332.82 490.644 332.998 492.454 330.707 493.61C328.313 494.817 326.958 493.206 326.017 491.283C322.366 483.82 318.707 476.361 315.159 468.849C307.348 452.314 301.104 435.14 294.452 418.129C292.461 413.038 289.814 408.196 287.341 403.304C286.332 401.307 284.896 399.248 287.49 397.694C290.301 396.01 291.922 398.091 292.795 400.392C296.391 409.87 301.759 418.594 304.765 428.743Z" fill="black"/>
<path d="M72.1483 464.538C77.4586 443.516 85.0434 423.534 88.8781 402.539C89.2916 400.276 89.96 398.009 92.9421 398.798C95.8303 399.562 95.4255 401.834 94.8105 404.075C89.0923 424.912 83.3218 445.735 77.7266 466.605C75.535 474.78 73.8255 483.083 71.7363 491.287C71.0441 494.005 69.9404 496.633 68.8531 499.231C68.1951 500.802 67.0521 502.386 65.0909 501.675C62.9653 500.904 63.6747 499.021 64.076 497.39C66.7384 486.573 69.3883 475.753 72.1483 464.538Z" fill="black"/>
<path d="M225.379 412.915C229.27 410.725 231.959 413.219 234.756 414.683C236.16 415.417 235.729 416.977 235.058 418.207C234.01 420.13 232.769 421.873 230.339 422.126C228.203 422.349 226.372 421.748 225.332 419.753C224.231 417.64 223.723 415.432 225.379 412.915Z" fill="black"/>
<path d="M222.898 376.324C224.283 372.503 226.752 372.073 229.738 373.431C232.079 374.496 233.374 376.469 232.659 379.019C231.858 381.876 229.621 383.477 226.679 382.979C223.325 382.411 222.291 379.916 222.898 376.324Z" fill="black"/>
<path d="M230.645 458.117C226.895 457.159 224.992 455.162 226.286 451.585C227.313 448.747 229.777 448.285 232.412 449.098C234.246 449.664 235.746 450.908 235.472 453.026C235.141 455.583 234.089 457.791 230.645 458.117Z" fill="black"/>
<path d="M235.735 494.184C234.428 496.954 232.76 498.764 229.831 497.542C227.432 496.54 226.591 494.274 226.793 491.85C227.01 489.253 229.151 488.293 231.329 488.107C235.484 487.751 236.289 490.371 235.735 494.184Z" fill="black"/>
<path d="M168.466 243.117C163.544 241.926 158.91 241.059 154.986 238.421C153.193 237.217 150.395 235.735 152.354 232.964C154.084 230.517 155.998 232.513 157.954 233.493C170.273 239.658 183.469 240.67 196.848 239.069C208.666 237.655 219.345 233.312 227.823 224.506C229.199 223.077 231.043 222.279 232.626 224.026C234.337 225.914 232.723 227.427 231.431 228.701C224.386 235.645 215.873 240.151 206.404 242.548C194.006 245.686 181.438 246.326 168.466 243.117Z" fill="black"/>
<path d="M128.873 192.013C132.797 195.954 133.055 198.637 129.93 200.715C127.351 202.43 124.682 202.495 122.105 200.6C120.36 199.316 120.121 197.566 120.968 195.763C122.456 192.596 124.828 190.892 128.873 192.013Z" fill="black"/>
<path d="M235.392 196.959C230.724 196.195 229.658 193.483 230.784 189.644C231.43 187.441 232.73 185.759 235.307 185.684C237.467 185.622 239.248 186.398 240.27 188.375C241.391 190.543 240.849 192.587 239.436 194.419C238.506 195.625 237.257 196.451 235.392 196.959Z" fill="black"/>
<path d="M185.065 213.636C185.991 213.607 186.763 213.646 187.212 213.285C188.623 212.147 190.002 211.371 191.66 212.733C192.662 213.557 192.868 214.701 192.622 215.91C192.25 217.737 191.057 218.767 189.277 219.196C186.908 219.767 184.606 219.525 182.49 218.376C180.675 217.392 177.753 216.597 178.885 213.885C180.207 210.714 182.7 212.427 185.065 213.636Z" fill="black"/>
<path d="M246.195 214.41C247.044 216.793 248.108 218.62 249.533 220.275C250.434 221.321 250.984 222.59 249.875 223.836C248.654 225.208 247.128 224.966 245.839 224.065C242.821 221.957 241.927 218.478 240.627 215.316C240.242 214.38 240.909 213.326 241.831 212.816C243.603 211.836 244.989 212.46 246.195 214.41Z" fill="black"/>
<path d="M131.751 180.723C128.892 183.813 125.041 183.873 121.631 184.847C119.607 185.424 117.74 183.612 118.673 181.552C120.352 177.84 124.552 178.353 127.759 177.402C129.872 176.775 131.724 177.693 131.751 180.723Z" fill="black"/>
<path d="M142.067 221.95C145.944 222.033 146.337 223.784 144.599 226.432C140.843 232.155 137.928 233.256 133.094 229.533C136.053 226.977 138.883 224.532 142.067 221.95Z" fill="black"/>
<path d="M149.009 105.334C147.537 99.8771 151.912 87.3741 156.025 84.3029C157.207 83.4204 158.419 83.0686 159.629 84.0933C160.977 85.2343 161.043 86.6939 160.136 88.111C158.887 90.0625 157.354 91.8467 156.241 93.8671C154.642 96.771 153.25 99.8066 153.965 103.308C154.242 104.667 155.496 106.263 153.517 107.219C151.702 108.096 150.388 106.9 149.009 105.334Z" fill="black"/>
<path d="M212.734 95.0075C207.952 90.1071 203.859 84.9009 197.266 82.6708C196.088 82.2724 195.812 80.8999 196.425 79.6829C197.021 78.4974 198.098 78.2424 199.355 78.2877C204.28 78.4648 214.117 86.5715 215.279 91.4006C215.753 93.3731 215.206 94.6404 212.734 95.0075Z" fill="black"/>
<path d="M177.626 93.9092C177.873 91.8497 178.08 90.2091 178.318 88.5731C178.617 86.5188 178.272 83.5425 181.221 83.7017C184.478 83.8775 183.802 86.9419 183.807 89.1836C183.813 91.3344 183.66 93.4855 183.662 95.6364C183.664 97.296 183.824 98.9324 184.816 100.385C185.729 101.72 187.167 103.213 184.815 104.463C182.712 105.58 180.897 104.805 179.666 102.935C177.96 100.343 178.107 97.2448 177.626 93.9092Z" fill="black"/>
<path d="M234.566 89.8399C237.076 91.7425 238.156 94.1163 238.719 96.7329C239 98.0352 238.974 99.4433 237.607 100.234C236.208 101.043 234.529 100.406 234.208 99.2941C233.261 96.0174 228.513 94.6399 229.621 90.6839C230.194 88.6375 232.4 88.7347 234.566 89.8399Z" fill="black"/>
<path d="M134.847 93.6321C134.835 97.9195 133.94 101.449 129.46 103.5C127.193 99.4916 128.459 95.8834 130.381 92.6745C131.658 90.542 133.503 91.4589 134.847 93.6321Z" fill="black"/>
<path d="M67.1745 213.046C64.3315 215.021 62.9339 213.535 61.8496 211.364C59.5463 206.753 57.2852 202.12 54.9884 197.506C54.279 196.081 53.8077 194.633 55.2361 193.432C56.4599 192.403 58.0248 192.645 58.8127 193.786C62.819 199.586 66.5323 205.558 67.1745 213.046Z" fill="black"/>
</svg>
