<svg width="405" height="577" viewBox="0 0 405 577" fill="none" xmlns="http://www.w3.org/2000/svg">
<path d="M221.97 333.907C221.316 328.271 226.169 328.79 229.262 327.603C233.312 326.048 235.504 328.419 236.753 332.416C243.485 329.351 248.865 324.508 255.476 321.797C273.546 314.385 291.781 307.684 311.46 305.997C317.662 305.465 322.898 306.91 326.931 312.076C334.41 321.654 337.725 333.022 340.966 344.377C344.078 355.279 345.813 366.463 346.349 377.808C346.547 382.004 348.111 385.894 348.95 389.926C355.407 420.956 366.697 450.564 375.428 480.92C380.223 497.592 387.335 513.382 395.539 528.673C396.95 531.302 398.991 532.566 401.844 532.911C403.197 533.075 404.523 533.591 404.891 535.101C405.293 536.75 403.891 537.362 402.873 538.192C395.787 543.967 387.939 544.884 379.554 541.694C374.371 539.722 368.866 538.342 364.206 534.648C366.251 531.582 368.396 532.661 370.551 533.481C376.44 535.719 382.068 538.923 388.625 538.795C391.363 538.741 394.361 539.134 396.318 536.365C387.533 529.55 386.155 518.682 381.457 509.698C376.663 500.53 373.724 490.561 370.719 480.692C363.158 455.862 355.842 430.958 348.334 406.112C346.572 400.282 345.141 394.397 342.843 388.644C341.093 384.262 342.335 378.271 341.816 372.996C340.16 356.155 336.614 339.801 329.808 324.233C324.243 311.501 320.042 308.855 306.444 310.269C301.83 310.749 297.301 312.002 292.707 312.739C288.062 313.485 285.057 315.549 283.79 320.504C278.293 341.992 264.112 357.769 248.968 372.943C235.994 385.941 222.024 397.757 207.475 408.911C196.3 417.479 189.077 417.816 177.586 409.378C163.016 398.679 150.552 385.721 139.234 371.643C136.753 368.558 134.395 365.459 132.867 361.763C132.096 359.901 131.185 358.218 131.989 356.064C133.094 353.099 131.723 351.717 128.83 352.552C109.909 358.014 91.7892 365.237 78.3015 380.33C63.293 397.125 52.4406 416.548 44.3946 437.54C33.129 466.931 22.8845 496.662 14.9087 527.137C13.8899 531.03 14.0709 535.053 14.2717 538.991C14.5872 545.177 12.9987 550.593 8.57385 554.902C6.41999 556.999 6.11671 558.549 8.39886 560.628C12.5025 564.367 15.2135 570.419 21.5348 570.539C25.158 570.608 27.4112 572.136 29.8372 574.073C30.1769 574.344 30.2771 574.916 30.4972 575.367C29.5252 577.105 28.2083 576.613 27.1519 575.778C26.036 574.895 25.0594 574.344 23.5543 574.725C18.7593 575.937 15.1412 573.578 11.9091 570.501C8.05005 566.828 4.32487 563.015 0.270849 559.07C0 558.129 0 557.379 0 556.254C9.71969 549.809 11.3141 546.181 9.48602 534.994C9.0524 532.341 9.77823 529.691 10.4428 527.109C16.7556 502.578 25.0393 478.677 33.4218 454.799C41.3427 432.236 51.1719 410.709 64.6551 390.814C77.8801 371.3 96.1395 359.078 118.032 351.691C123.962 349.69 129.753 346.673 136.376 347.639C140.522 348.244 141.232 348.922 141.343 352.452C139.817 353.61 138.546 351.702 136.308 352.297C137.418 357.1 137.543 362.222 140.634 366.456C151.512 381.36 164.531 394.252 179.041 405.535C189.315 413.524 193.791 413.697 204.175 406.091C228.321 388.404 250.607 368.602 268.531 344.448C274.464 336.451 277.875 326.947 280.822 316.101C272.897 319.159 265.848 321.844 258.834 324.618C257.533 325.132 256.738 326.338 256.555 327.724C254.231 345.266 243.539 358.483 233.292 371.752C224.417 383.245 213.768 393.153 202.36 402.155C195.576 407.508 191.535 407.746 184.11 403.158C173.507 396.606 165.891 386.649 156.68 378.5C154.075 376.195 151.816 373.464 149.597 370.765C144.923 365.076 141.396 359.04 143.586 351.131C144.095 349.294 143.469 347.16 143.472 345.163C143.477 342.032 144.077 339.326 148.715 339.969C146.952 328.554 145.252 317.592 143.571 306.627C143.309 304.921 142.01 302.678 144.477 301.858C147.179 300.961 150.138 298.816 153.025 301.589C152.871 302.169 152.842 302.722 152.7 302.753C147.347 303.913 147.473 307.574 148.496 311.732C150.803 321.105 150.423 330.887 152.972 340.262C154.213 344.826 156.808 346.633 161.153 346.44C164.303 346.299 167.479 346.079 170.577 345.527C185.792 342.815 200.985 339.979 216.424 337.144C214.486 328.931 213.919 320.946 215.185 312.766C216.385 305.014 216.136 297.18 214.942 289.378C214.494 286.455 213.41 285.22 210.352 285.843C207.421 286.44 204.433 286.771 201.46 287.146C199.88 287.346 198.087 287.825 197.824 289.328C197.082 293.557 193.598 295.537 191.163 298.403C186.665 303.698 185.05 310.119 184.323 316.846C184.02 319.654 183.708 322.461 183.339 325.261C183.088 327.158 183.572 329.863 180.925 330.087C178.174 330.319 178.349 327.468 177.927 325.69C175.962 317.424 173.843 309.22 170.802 301.26C168.368 294.891 167.131 294.555 162.58 299.579C158.264 304.343 158.264 304.343 155.246 304.963C154.702 301.145 157.642 299.178 159.769 297.344C167.76 290.453 165.585 281.327 165.677 272.696C165.7 270.498 163.851 270.185 162.063 270.21C144.934 270.447 128.689 266.77 113.359 259.132C111.474 258.193 110.417 258.695 109.19 260.293C107.046 263.083 104.094 262.463 101.489 261.197C98.7126 259.846 96.6892 257.745 97.6776 254.103C101.342 253.251 102.349 261.506 107.261 256.479C74.6901 236.671 73.3294 206.372 79.6638 173.763C76.9352 173.509 76.8792 175.168 76.5126 176.302C75.7451 178.674 75.0379 181.083 74.5487 183.526C71.6509 197.995 62.6581 206.507 48.7116 210.342C46.8351 210.858 44.776 211.155 42.9584 212.869C47.9187 222.156 51.9513 232.056 60.0289 239.449C67.2281 246.039 75.4609 245.948 83.8185 242.682C87.5934 241.206 88.7705 242.269 89.0106 245.718C89.2673 249.405 89.6183 252.933 94.7766 252.938C94.083 256.772 91.9318 256.539 89.6136 255.583C87.2653 254.616 86.1842 252.484 85.4113 250.247C84.5718 247.818 83.1096 246.71 80.5057 247.39C66.6951 250.996 57.4237 244.403 50.1143 233.685C48.0567 230.667 46.4286 227.356 44.6244 224.168C41.8547 219.273 39.8686 213.865 35.0467 210.351C33.8345 209.468 32.9161 207.864 34.0542 206.42C35.2759 204.869 36.8339 205.638 37.9222 206.797C39.4493 208.423 41.2334 209.091 43.3273 208.526C55.57 205.217 66.1976 199.957 69.8161 186.327C70.585 183.43 71.4376 180.554 72.3308 177.694C73.4999 173.95 73.0675 170.582 72.0105 166.646C69.3419 156.709 68.6358 146.708 76.2562 137.897C79.9431 133.634 78.8164 127.713 79.5317 122.539C83.0632 96.9938 91.4157 73.4285 110 55.0169C128.22 36.9672 150.318 25.2294 175.591 19.9089C177.04 19.604 178.583 19.579 180.069 19.6625C182.747 19.8129 184.143 18.9105 185.149 16.1467C187.383 10.0084 193.844 7.75133 199.362 11.0264C201.435 12.2563 202.803 12.3998 204.609 10.755C219.047 -2.39299 235.165 -1.81246 252.733 3.63659C283.493 13.1777 301.336 35.7717 314.533 63.0315C319.437 73.1613 321.684 84.4649 324.315 95.4787C327.714 109.71 330.766 123.995 336.877 137.474C343.923 153.016 355.447 163.163 371.45 168.48C373.28 169.089 375.108 169.575 377.232 168.601C380.74 166.994 381.717 169.176 380.534 171.965C374.925 185.188 371.289 199.826 356.644 206.894C356.393 207.015 356.283 207.426 355.961 207.931C356.661 209.267 357.493 210.687 358.17 212.177C360.473 217.242 359.946 223.618 355.66 226.93C338.322 240.324 319.645 250.936 297.014 252.04C292.194 252.275 287.922 250.92 284.594 246.931C282.779 244.755 282.616 243.309 285.237 241.386C292.284 252.798 302.675 248.855 311.885 246.223C324.711 242.558 336.564 236.256 347.754 228.894C350.126 227.333 352.361 225.554 353.916 223.122C357.544 217.445 355.254 211.791 348.566 209.83C347.718 209.581 347.038 209.213 346.693 207.553C353.006 203.771 360.786 201.5 365.366 194.798C369.7 188.456 372.955 181.662 374.864 173.889C366.328 171.181 358.898 167.305 351.838 162.494C343.354 156.712 338.187 148.569 333.691 139.723C326.275 125.134 323.181 109.233 319.788 93.4702C313.723 65.2964 301.483 40.5565 279.165 21.8772C265.13 10.1312 248.311 4.34563 229.917 3.82518C220.245 3.55155 212.689 8.58487 206.079 14.8681C203.49 17.3297 201.905 18.1207 199.127 15.6042C197.137 13.8006 194.842 12.3865 191.901 14.0595C188.793 15.8278 188.815 18.469 189.469 21.4271C189.942 23.5724 189.502 25.6193 186.837 24.5515C178.598 21.2501 170.843 24.2919 163.551 26.9168C140.514 35.2091 119.454 46.9921 104.574 67.1499C92.2719 83.8158 85.5871 102.904 83.2571 123.49C83.0513 125.309 83.1201 127.175 82.756 128.957C82.1171 132.085 81.7706 134.797 85.603 136.331C87.0588 136.914 88.0717 138.592 87.0173 140.501C79.0796 139.137 75.9753 141.34 74.8378 149.798C73.9614 156.316 72.9291 163.01 77.5644 169.217C80.5031 167.177 82.789 165.425 79.3336 162.219C77.1445 160.189 77.9379 157.984 78.965 155.815C79.9623 153.708 80.9028 151.206 83.9426 151.934C87.1013 152.691 87.1636 150.23 87.73 148.519C91.8762 135.994 97.0917 123.949 103.283 112.293C108.32 102.811 114.819 94.3915 121.557 86.1276C122.617 84.828 124.098 82.6497 125.984 84.6021C127.78 86.4604 125.141 87.3517 124.277 88.5359C118.782 96.0646 112.638 103.137 108.234 111.427C107.325 113.137 106.02 114.724 106.24 117.339C108.857 115.656 111.318 114.827 114.207 116.265C115.759 117.039 116.976 115.474 117.886 114.296C120.46 110.961 122.558 107.381 122.787 103.027C122.908 100.713 123.507 98.7111 126.318 99.9392C129.84 101.478 133.203 100.789 136.566 99.8327C150.214 95.9521 162.697 89.818 173.151 80.0687C179.33 74.3068 184.301 67.7086 185.515 58.9816C186.052 55.1181 190.372 56.8022 191.531 53.6354C194.38 57.1577 192.644 59.9476 191.863 62.3737C188.282 73.5009 187.225 84.814 188.298 96.413C189.569 110.156 196.2 119.583 208.294 122.801C216.246 124.917 224.475 124.348 232.43 121.773C241.027 118.991 249.082 115.014 257.05 110.813C259.023 109.772 261.219 107.8 263.489 109.494C266.019 111.381 264.382 114.121 263.924 116.457C262.195 125.272 260.155 134.03 258.603 142.875C256.477 154.997 263.134 162.55 275.444 162.627C279.624 162.653 284.139 161.163 287.727 164.887C294.014 159.536 300.697 155.687 309.179 155.396C317.464 155.111 323.38 158.652 327.323 165.519C335.431 179.644 335.349 194.22 328.105 208.521C321.994 220.582 311.989 221.978 302.851 209.61C296.645 201.211 299.302 187.063 307.602 180.737C311.711 177.606 314.8 178.03 317.654 182.416C320.339 186.542 321.203 191.064 319.173 195.729C317.529 199.507 314.766 200.026 312.508 196.709C311.135 194.691 309.165 194.362 306.724 193.264C310.14 191.563 312.784 189.535 315.998 192.16C316.181 191.894 316.348 191.763 316.358 191.621C316.591 188.12 316.018 184.142 312.647 183.178C309.236 182.202 307.323 185.979 305.84 188.693C300.905 197.725 303.079 207.5 310.819 212.627C314.393 214.994 317.469 214.977 320.655 211.872C328.257 204.463 329.566 194.994 329.347 185.167C329.228 179.839 327.886 174.622 325.516 169.747C321.651 161.799 316.072 158.484 307.572 159.141C297.626 159.91 290.117 166.639 287.491 176.035C286.641 179.076 283.426 181.171 283.058 184.956C282.102 194.776 284.576 203.884 288.568 212.548C293.338 222.902 293.385 222.557 286.048 230.956C274.461 244.218 260.938 255.246 247.098 265.959C239.871 271.552 232.111 275.999 222.737 276.538C215.77 276.939 208.755 277.211 202.348 272.757C200.691 275.854 200.432 279.125 199.53 282.631C203.247 283.076 206.588 282.602 209.956 282.012C216.522 280.862 218.912 282.742 219.361 289.464C219.96 298.432 220.271 307.456 218.952 316.342C218.047 322.438 219.131 327.872 221.786 333.926C221.854 338.883 219.501 340.352 215.442 341.174C201.102 344.08 186.553 345.719 172.228 348.793C164.037 350.55 154.691 353.858 148.893 343.11C146.22 346.569 148.119 349.66 148.001 352.629C147.83 356.904 149.882 357.746 153.754 357.948C165.095 358.541 175.901 355.153 186.998 353.996C198.262 352.822 209.165 349.582 220.23 347.264C224.489 346.372 228.356 344.946 231.254 341.408C233.617 338.523 233.322 335.317 231.895 332.576C230.472 329.842 228.051 332.066 226.212 332.766C224.814 333.299 223.555 334.135 221.97 333.907ZM176.172 304.354C177.359 308.126 178.546 311.898 180.006 316.54C181.21 306.883 184.232 299.003 190.966 292.895C192.337 291.652 193.038 289.925 193.599 288.142C195.698 281.477 197.636 274.776 198.785 267.869C199.055 266.251 199.22 264.453 201.89 264.421C203.813 268.195 206.295 271.846 211.034 272.405C220.821 273.559 230.397 273.065 238.82 267.078C254.181 256.162 268.614 244.221 281.525 230.377C286.811 224.708 287.144 219.769 284.37 212.902C279.529 200.914 276.33 188.545 281.556 175.579C284.73 167.703 283.494 166.006 275.278 166.152C266.684 166.304 259.983 163.245 256.149 155.238C253.804 150.339 254.321 145.11 255.222 140.028C256.75 131.413 258.616 122.858 260.442 113.77C256.901 114.216 254.644 115.97 252.198 117.228C242.85 122.036 233.417 126.465 222.692 127.408C205.41 128.927 189.488 121.921 185.551 102.196C183.564 92.2368 183.314 82.3896 185.438 71.3622C172.666 89.1941 155.64 98.6106 136.129 103.416C129.703 104.999 125.518 106.897 123.043 113.336C121.313 117.837 117.935 120.881 111.614 119.605C107.432 118.761 102.915 121.084 100.723 125.804C94.7474 138.672 90.1893 152.064 86.0372 165.595C81.5565 180.197 79.1402 195.054 81.1833 210.39C83.2774 226.11 89.5843 239.647 102.931 248.717C121.031 261.018 141.207 267.092 163.222 266.573C169.67 266.422 169.934 266.922 170.252 273.556C170.475 278.184 168.718 282.618 169.917 287.405C171.338 293.076 174.328 298.066 176.172 304.354ZM238.452 336.965C234.72 339.828 237.162 343.176 238.101 346.749C208.461 353.827 179.107 360.72 148.033 362.444C159.9 376.695 172.518 389.318 186.856 400.191C191.467 403.687 195.756 402.657 199.951 399.12C220.376 381.894 238.414 362.718 249.79 338.13C251.121 335.253 252.146 332.106 252.05 328.22C246.961 330.554 243.227 333.914 238.452 336.965Z" fill="#0057C8"/>
<path d="M300.475 519.289C300.882 522.342 299.309 524.455 298.44 526.76C297.945 528.075 297.028 529.207 295.456 528.828C293.808 528.431 293.499 526.866 293.984 525.607C295.098 522.712 294.276 520.581 290.698 518.496C296.359 518.054 296.615 514.676 297.261 511.173C299.673 498.099 302.864 485.182 304.169 471.892C305.475 458.58 305.284 445.27 304.234 432.016C303.376 421.182 301.765 410.381 298.868 399.826C297.814 395.985 296.067 392.438 294.356 388.578C298.296 386.988 299.326 389.574 300.334 391.968C303.783 400.164 305.603 408.873 306.632 417.571C308.152 430.416 309.364 443.302 309.384 456.326C309.408 472.462 306.64 488.104 303.296 503.724C302.216 508.767 301.01 513.773 300.475 519.289Z" fill="#0057C8"/>
<path d="M66.2507 530.279C65.0091 524.173 63.8811 518.458 62.7963 512.735C62.5182 511.268 62.0791 509.504 64.1794 509.093C66.1507 508.707 66.7326 510.365 67.0443 511.851C68.0689 516.737 68.9603 521.649 69.9644 526.539C70.8052 530.634 71.7392 534.685 75.0131 537.719C76.1744 538.796 76.9527 540.303 75.5111 541.626C74.0024 543.009 72.7969 541.695 71.65 540.707C68.5686 538.052 67.6672 534.26 66.2507 530.279Z" fill="#0057C8"/>
<path d="M73.0159 451.023C74.7466 445.056 76.3097 439.459 77.9971 433.901C78.4739 432.33 79.1954 430.8 80.0255 429.38C80.702 428.223 81.8996 428.019 83.0478 428.786C84.0124 429.43 84.2117 430.436 83.6256 431.406C79.9191 437.535 79.9638 444.809 77.5059 451.317C76.566 453.806 75.6833 456.31 76.4198 459.073C76.8899 460.837 76.1281 462.097 74.2963 462.283C72.1627 462.498 71.11 461.022 71.2987 459.198C71.57 456.575 72.3388 454.003 73.0159 451.023Z" fill="#0057C8"/>
<path d="M231.479 65.3686C229.438 63.6472 226.307 63.8017 225.634 60.8933C227.052 59.0402 229.004 59.2419 230.241 60.0122C234.025 62.3674 237.734 64.9505 240.27 68.7526C241.451 70.5237 242.016 72.8949 239.826 73.979C237.08 75.3391 237.295 72.5439 236.732 70.959C235.854 68.4822 233.801 67.0245 231.479 65.3686Z" fill="#0057C8"/>
<path d="M139.286 64.2267C141.462 62.3065 142.922 57.617 145.766 60.3141C148.404 62.8158 143.65 64.2216 142.281 66.1212C140.446 68.6674 138.16 70.8811 136.86 73.8205C136.355 74.9629 135.535 75.8857 134.153 75.1077C132.915 74.4106 132.936 73.2096 133.426 72.0475C134.679 69.0708 137.302 67.1046 139.286 64.2267Z" fill="#0057C8"/>
<path d="M149.519 70.322C147.845 72.9464 147.788 76.011 145.331 78.3475C141.812 74.2812 147.973 70.3105 144.587 66.9924C146.548 65.3605 148.406 65.045 149.999 66.1C151.784 67.2817 150.235 68.7058 149.519 70.322Z" fill="#0057C8"/>
<path d="M245.819 67.783C243.687 65.4355 241.909 63.1049 240.122 60.7819C239.586 60.0858 239.257 59.304 239.759 58.525C240.382 57.5606 241.408 57.5357 242.408 57.7941C245.521 58.5985 247.687 64.3903 245.819 67.783Z" fill="#0057C8"/>
<path d="M182.731 231.605C189.372 226.993 197.088 224.436 201.572 217.521C202.352 216.317 203.626 216.588 204.648 217.38C206.141 218.538 207.375 219.903 206.949 222.007C206.68 223.331 206.102 225.218 204.709 224.862C198.991 223.404 195.969 227.929 192.069 230.275C180.895 236.995 169.39 242.812 156.481 245.433C153.975 245.942 151.54 246.083 149.101 245.309C146.208 244.392 143.378 243.781 140.996 246.95C139.536 244.432 140.567 242.29 140.455 240.277C140.374 238.832 141.04 237.236 142.802 236.851C144.52 236.475 144.876 237.907 145.605 239.05C147.855 242.575 151.484 242.441 154.943 241.919C164.778 240.436 173.681 236.32 182.731 231.605Z" fill="#0057C8"/>
<path d="M110.335 182.365C110.413 176.534 113.394 172.358 116.796 168.462C118.731 166.247 121.37 165.406 123.911 167.247C125.558 168.439 127.04 167.61 128.569 167.69C129.681 169.212 129.266 170.615 128.29 171.833C126.526 174.032 126.044 176.498 126.045 179.261C126.047 183.874 123.941 187.1 119.235 188.203C114.498 189.313 112.206 186.448 110.335 182.365Z" fill="#0057C8"/>
<path d="M206.952 186.387C207.135 181.337 207.918 176.803 209.944 172.547C211.662 168.938 214.816 167.82 218.218 168.864C221.595 169.9 221.38 173.23 220.837 176.036C220.141 179.629 218.813 183.062 216.867 186.185C213.937 190.888 211.212 191.022 206.952 186.387Z" fill="#0057C8"/>
<path d="M202.634 136.211C204.858 132.663 207.712 131.166 211.557 132.393C213.594 133.043 214.879 134.486 215.107 136.678C215.195 137.523 214.954 138.361 214.073 138.715C211.972 139.559 211.492 137.041 209.962 136.672C205.455 140.961 204.719 140.95 202.634 136.211Z" fill="#0057C8"/>
<path d="M119.461 143.545C119.928 143.026 120.139 142.769 120.392 142.563C122.994 140.43 125.296 141.369 127.359 143.387C128.413 144.417 128.735 146.042 127.403 146.814C124.999 148.208 122.968 151.485 119.653 149.763C116.878 148.322 117.926 145.928 119.461 143.545Z" fill="#0057C8"/>
<path d="M168.558 210.947C169.644 215.86 165.754 216.377 162.887 216.733C159.781 217.118 158.849 214.282 158.983 211.631C159.087 209.569 159.363 207.379 161.176 205.69C164.897 207.165 161.786 210.399 162.961 212.476C165.24 213.504 166.154 210.235 168.558 210.947Z" fill="#0057C8"/>
<path d="M96.6461 211.377C97.2122 208.527 96.8656 205.739 99.8869 203.295C101.637 207.303 101.809 210.939 101.028 214.608C100.757 215.882 99.502 216.951 97.9807 216.411C95.5686 215.553 96.4842 213.5 96.6461 211.377Z" fill="#0057C8"/>
<path d="M114.704 215.988C114.424 217.597 114.502 219.266 112.63 219.138C110.846 219.016 110.845 217.423 110.83 216.123C110.796 213.067 110.457 209.955 111.8 206.589C116.627 208.791 114.24 212.656 114.704 215.988Z" fill="#0057C8"/>
<path d="M104.183 207.371C105.987 204.881 107.435 205.69 107.593 207.783C107.802 210.542 107.308 213.372 106.94 216.148C106.781 217.345 105.954 218.415 104.573 218.199C102.85 217.93 102.751 216.47 102.93 215.104C103.252 212.651 103.682 210.211 104.183 207.371Z" fill="#0057C8"/>
<path d="M251.38 196.364C250.518 194.819 248.999 193.453 250.713 192.235C252.295 191.111 253.368 192.655 254.301 193.772C256.16 196.001 256.535 197.788 255.807 200.791C253.042 200.808 252.817 198.213 251.38 196.364Z" fill="#0057C8"/>
<path d="M246.387 198.423C248.097 200.435 249.381 202.298 249.56 204.769C246.41 204.706 242.811 200.948 243.587 198.746C244.011 197.542 245.125 197.77 246.387 198.423Z" fill="#0057C8"/>
<path d="M241.07 204.537C242.01 206.09 243.115 207.381 241.636 208.773C241.275 209.113 240.219 209.219 239.83 208.943C237.59 207.351 237.248 205.015 237.347 202.564C239.672 201.302 240.063 203.18 241.07 204.537Z" fill="#0057C8"/>
</svg>
