<svg width="364" height="541" viewBox="0 0 364 541" fill="none" xmlns="http://www.w3.org/2000/svg">
<path d="M312.851 285.669C309.282 289.28 305.265 291.632 301.205 293.953C292.163 299.12 283.187 297.677 274.389 293.533C271.273 292.066 269.414 292.439 267.085 295.002C262.887 299.62 257.737 302.967 251.393 303.733C251.067 305.656 252.386 306.402 253.28 307.228C263.677 316.826 273.232 327.3 284.253 336.261C310.419 357.538 330.87 383.647 348.164 412.425C352.79 420.124 356.896 428.163 362.41 435.319C364.403 437.905 364.649 440.405 361.916 442.782C360.797 443.755 359.526 444.871 359.034 446.187C357.794 449.507 355.373 450.001 352.336 449.804C349.815 449.641 347.453 450.323 345.187 451.48C313.589 467.623 282.899 485.41 252.059 502.922C232.656 513.94 213.431 525.276 192.839 534.028C189.166 535.589 185.901 537.931 182.122 539.372C177.744 541.042 173.707 540.667 169.563 538.864C147.746 529.369 126.192 519.287 104.505 509.516C82.777 499.726 61.6898 488.684 40.1153 478.627C32.5874 475.118 24.1606 473.686 17.1025 469.053C12.3741 465.95 7.71839 462.725 3.15077 459.39C-0.284746 456.881 -0.522832 453.438 0.604189 449.55C6.60258 428.86 15.1178 409.152 23.7786 389.49C29.6182 376.232 35.3259 362.915 40.9677 349.572C45.2341 339.482 51.5612 330.736 58.2956 322.232C59.3626 320.884 60.8503 320.206 62.4235 319.553C84.5971 310.339 107.285 302.705 130.664 297.169C136.382 295.815 136.873 294.758 134.881 287.61C129.94 289.293 124.906 291.413 119.565 289.866C113.864 288.216 111.867 283.484 110.901 277.754C105.388 281.407 100.522 284.843 95.4529 287.949C83.7136 295.141 71.3142 300.754 57.4634 302.345C44.0083 303.891 33.2237 297.939 23.4321 289.616C21.235 287.748 21.4927 285.645 24.376 284.714C42.3158 278.927 47.1993 263.714 49.673 247.831C53.2036 225.163 51.4682 202.36 48.5588 179.669C48.102 176.107 46.9132 173.95 43.1152 173.168C39.2725 172.378 36.5605 169.47 35.2671 165.998C30.4464 153.058 29.8313 139.683 32.1375 126.148C32.4402 124.372 32.86 122.216 34.0341 121.051C42.1565 112.994 41.3231 102.191 42.6937 92.2892C45.9965 68.4274 57.752 49.4305 75.4707 33.9748C81.0255 29.1296 88.2214 26.3288 95.5108 24.1626C103.11 21.9046 103.477 20.4562 99.6903 13.5287C98.8836 12.0529 97.7684 10.5846 99.0508 8.94792C100.536 7.05228 102.397 8.02303 104.069 8.69405C106.83 9.80219 109.538 11.0408 112.475 12.314C116.014 9.1021 118.083 4.44229 122.305 1.87143C123.963 0.862031 125.518 -0.967009 127.645 0.627092C129.632 2.11649 128.948 4.07974 128.295 6.07759C126.686 11.0065 127.66 12.319 132.683 11.5266C144.036 9.73537 155.239 10.8011 166.471 12.6357C177.138 14.3778 188.051 14.0709 198.644 16.6644C236.809 26.0076 262.218 48.8234 268.692 89.8402C269.743 96.5025 269.439 103.419 271.601 109.63C272.208 109.882 272.374 110.022 272.506 109.996C289.882 106.489 298.876 123.139 291.36 138.815C288.016 145.788 283.796 152.177 277.118 156.494C275.282 157.681 274.373 159.131 274.234 161.365C273.34 175.822 271.489 190.289 272.441 204.759C273.928 227.375 281.628 247.377 299.975 261.936C305.179 266.065 311.075 269.374 317.533 271.267C321.875 272.539 321.968 274.644 319.454 277.722C317.35 280.298 315.221 282.854 312.851 285.669ZM167.178 334.317C167.11 332.653 167.044 330.988 166.975 329.324C166.803 325.125 165.459 322.97 160.466 323.888C156.101 324.69 151.498 324.152 147.004 324.306C143.612 324.422 141.761 323.012 141.254 319.546C140.606 315.104 139.56 310.72 138.908 306.278C138.358 302.533 137.234 300.728 132.746 301.786C112.462 306.568 92.567 312.396 73.256 320.382C65.4243 323.62 59.7535 328.653 55.1065 335.313C53.681 337.356 52.4358 339.531 51.1954 341.695C44.805 352.847 39.8556 364.666 34.8962 376.497C25.5717 398.741 14.5903 420.312 7.85501 443.601C5.12208 453.051 5.22455 452.886 12.7415 459.15C23.3911 468.025 36.7116 470.749 49.4087 476.308C50.835 465.023 51.9344 454.46 53.5464 443.976C56.524 424.61 62.57 405.687 61.8348 385.788C61.7774 384.234 62.0426 382.606 64.0415 382.485C66.1383 382.358 67.0904 383.922 67.1911 385.655C67.3448 388.297 67.2336 390.977 66.9857 393.618C64.4351 420.786 56.9128 447.265 55.8024 474.656C55.6497 478.422 56.251 480.383 59.7103 482.027C76.0983 489.815 92.3593 497.854 108.893 505.355C129.207 514.57 149.126 524.624 170.159 532.238C175.391 534.132 179.903 533.534 184.602 531.57C204.922 523.078 224.248 512.617 243.382 501.778C259.177 492.83 274.928 483.802 290.814 475.018C294.384 473.044 295.675 470.889 294.87 466.752C293.377 459.082 292.587 451.279 291.262 443.573C288.359 426.693 285.318 409.838 282.292 392.98C281.963 391.15 282.004 389.514 284.05 388.938C286.217 388.328 287.548 389.533 288.159 391.539C288.397 392.324 288.402 393.181 288.501 394.006C291.271 417.147 296.153 439.928 300.255 462.841C301.233 468.308 302.238 468.685 307.155 465.917C313.831 462.16 320.599 458.555 327.15 454.592C335.524 449.524 344.92 446.289 352.543 439.802C355.288 437.467 355.313 435.86 353.703 433.209C347.134 422.395 341.22 411.131 334.005 400.771C317.305 376.793 298.824 354.386 275.615 336.134C262.404 325.745 251.593 312.594 238.498 301.98C233.679 298.075 228.414 296.697 222.207 297.644C215.477 298.67 208.842 300.448 201.974 300.525C196.717 300.584 193.884 302.987 193.387 308.486C193.044 312.283 192.03 316.02 192.504 319.882C193.06 324.417 190.975 325.435 186.846 324.544C183.287 323.776 179.684 323.083 175.972 323.172C173.435 323.233 172.018 324.18 172.59 326.754C173.738 331.927 172.525 337.035 172.488 342.171C172.268 372.307 171.995 402.432 168.486 432.429C166.92 445.814 165.602 459.234 165.446 472.734C165.421 474.956 164.668 476.958 162.116 476.758C159.738 476.573 159.648 474.492 159.761 472.539C160.222 464.565 160.242 456.541 161.177 448.624C163.241 431.144 164.905 413.619 165.771 396.064C166.77 375.808 166.758 355.503 167.178 334.317ZM251.448 99.7165C243.344 98.6189 240.055 91.9797 236.008 85.6852C228.975 94.2892 220.276 99.5301 210.032 102.303C203.053 104.192 196.255 104.713 189.976 100.15C185.885 97.1773 184.455 92.4593 182.23 87.806C176.702 92.6383 170.637 95.5671 163.621 96.0486C156.197 96.5582 150.717 92.7713 146.312 87.2583C143.29 89.2022 141.855 91.9126 139.919 94.1534C131.733 103.628 122.04 110.995 110.409 115.807C97.8616 120.997 80.0075 114.076 76.1335 101.753C75.6836 100.322 75.3876 98.4342 73.3197 97.8295C70.7385 99.5325 68.8935 102.357 65.754 103.31C62.2714 104.366 61.3487 106.918 61.3682 110.244C61.4662 126.88 60.7068 143.514 62.2644 160.144C64.2532 181.375 75.6264 195.977 94.0622 205.29C113.039 214.876 133.688 216.036 154.459 215.411C158.259 215.297 159.29 216.443 159.007 219.81C158.534 225.444 157.875 231.075 157.698 236.719C157.471 243.971 157.643 251.236 157.643 258.58C164.036 257.222 164.524 257.583 165.438 263.562C166.618 271.282 167.845 278.994 169.218 287.77C173.206 280.921 176.798 275.143 181.43 270.097C182.16 269.302 182.597 268.059 182.773 266.96C186 246.79 191.568 226.925 190.78 206.23C190.708 204.344 191.139 202.88 193.244 202.563C204.795 200.827 214.087 193.907 224.086 188.773C236.931 182.176 246.841 172.179 251.29 158.177C256.953 140.354 258.271 121.974 255.743 103.387C255.467 101.361 255.072 99.2619 251.448 99.7165ZM237.991 73.3465C239.58 72.9689 240.788 73.7321 241.108 75.1127C241.707 77.6906 241.981 80.348 242.321 82.9812C243.24 90.1007 248.954 94.5086 255.469 92.9945C258.225 92.354 259.688 93.5659 260.099 96.0947C260.686 99.704 260.845 103.392 261.58 106.965C262.17 109.839 261.081 113.11 263.269 115.914C265.298 114.305 265 112.381 264.835 110.624C264.229 104.167 263.786 97.6776 262.779 91.2793C259.538 70.6937 251.192 52.8261 234.402 39.6532C225.515 32.6801 215.455 27.9523 204.805 24.4022C191.379 19.9268 177.24 20.1333 163.433 18.1441C151.671 16.4494 139.952 15.8058 128.189 18.0416C126.544 18.3543 124.747 18.3085 123.529 19.5486C119.973 23.1703 116.222 21.4195 112.458 20.1479C111.304 19.7577 110.48 18.1965 108.66 19.2835C109.291 22.726 109.691 25.9711 104.714 27.0621C82.0681 32.0253 67.1312 46.3687 56.4794 66.3614C49.122 80.1708 48.4835 95.4076 45.5423 110.181C45.2387 111.706 45.388 113.224 47.2055 113.896C50.3426 115.055 52.8183 117.212 55.6215 120.364C55.9881 114.071 56.6349 108.807 56.4925 103.564C56.3786 99.371 57.7052 97.3196 61.8882 98.2804C64.5111 98.8829 66.0009 97.7347 67.4948 96.0605C69.3612 93.9686 70.25 91.5611 70.0088 88.7252C69.8393 86.7316 69.507 84.2981 72.0815 83.7771C74.954 83.1957 75.4779 85.8796 76.2472 87.8308C77.7123 91.547 78.9453 95.3574 80.4814 99.0425C84.9352 109.727 97.4748 115.722 108.105 111.266C124.532 104.38 138.061 94.0601 144.02 76.2283C144.536 74.6833 145.346 73.5017 147.151 73.5536C148.744 73.5994 149.5 74.7808 149.901 76.0762C150.342 77.4971 150.553 78.9938 150.807 80.4671C151.821 86.3324 155.316 89.4914 161.189 90.2293C170.438 91.3914 176.842 87.1592 181.532 79.6347C182.331 78.3526 182.962 76.7518 184.795 77.0762C186.751 77.4222 187.18 79.1158 187.483 80.8411C188 83.7854 188.349 86.7967 189.244 89.6293C191.209 95.8452 196.703 99.3583 203.095 98.4902C212.906 97.1579 221.651 93.4834 228.94 86.528C232.781 82.8621 234.57 77.982 237.991 73.3465ZM211.168 270.381C205.403 277.868 200.62 285.865 197.581 295.419C205.53 296.092 212.536 294.418 219.508 293.199C227.719 291.764 235.443 290.517 242.585 296.837C245.411 299.338 249.664 299.1 253.598 297.902C259.05 296.242 262.804 292.519 265.81 288.089C268.299 284.42 270.212 284.318 273.804 286.912C279.978 291.372 286.862 294.437 294.75 291.299C300.218 289.124 305.088 285.909 309.275 281.777C310.856 280.216 312.813 278.659 312.505 275.791C309.756 274.273 306.975 272.795 304.249 271.223C293.188 264.846 284.27 256.314 278.31 244.93C270.851 230.686 266.734 215.578 267.073 199.403C267.299 188.592 267.704 177.784 267.847 166.972C267.876 164.806 269.212 161.058 265.174 161.335C261.564 161.583 256.784 156.96 254.32 163.865C251.101 172.888 244.812 179.792 237.419 185.705C226.514 194.426 213.721 199.725 201.164 205.392C198.059 206.793 196.553 208.343 196.29 211.919C195.413 223.845 194.655 235.797 191.699 247.483C190.548 252.037 189.47 256.696 189.637 262.319C192.364 259.676 194.789 260.18 197.485 260.893C200.994 261.82 204.653 262.221 208.269 262.678C210.202 262.923 212.498 262.221 213.565 264.495C214.64 266.787 212.446 268.082 211.168 270.381ZM153.014 227.809C154.46 218.77 154.27 218.919 145.43 219.292C131.091 219.897 116.956 218.697 103.077 214.321C85.0269 208.631 71.0723 198.312 62.5384 181.201C61.0006 178.117 59.7867 174.872 58.4213 171.698C52.5871 172.567 53.1301 176.557 53.6462 180.421C56.5194 201.937 57.7909 223.531 55.184 245.128C53.1532 261.952 47.6549 277.24 32.4976 287.151C32.1662 287.368 32.0915 287.977 31.916 288.362C38.355 295.162 50.8709 299.196 60.4424 297.238C77.5801 293.733 92.7582 285.974 106.304 275.063C114.276 268.642 114.125 268.456 116.712 278.602C118.201 284.439 122.861 287.171 127.924 284.581C131.064 282.974 135.304 281.969 135.468 277.037C135.494 276.247 136.463 275.347 137.198 274.746C140.796 271.808 144.349 268.792 148.145 266.125C150.678 264.346 151.824 262.258 152.216 259.18C153.505 249.044 152.426 238.875 153.014 227.809ZM151.979 269.308C149.4 271.408 146.805 273.491 144.245 275.614C141.916 277.545 140.932 279.982 141.028 283.071C141.364 293.89 143.094 304.505 145.383 315.052C145.995 317.874 147.438 319.28 150.578 319.185C160.353 318.889 170.135 318.677 179.914 318.707C187.326 318.729 187.293 318.913 188.007 311.354C188.136 309.985 187.812 308.807 187.517 307.504C186.768 304.197 187.241 300.426 189.085 298.014C195.903 289.095 197.739 277.549 205.525 269.27C198.472 265.042 189.346 266.942 187.478 274.225C187.153 275.493 186.413 276.434 185.221 276.628C181.438 277.241 179.686 280.157 177.984 282.981C175.41 287.25 173.089 291.672 170.663 296.03C169.677 297.8 168.73 299.779 166.205 299.175C163.812 298.603 164.169 296.442 164.052 294.672C163.92 292.68 164.024 290.667 163.814 288.686C162.968 280.681 162.072 272.678 159.331 264.431C156.673 266.181 154.613 267.539 151.979 269.308ZM37.1405 153.425C37.6555 157.252 38.6328 160.974 40.5079 164.343C42.7356 168.346 47.3517 169.964 51.7785 168.251C55.7956 166.696 58.7343 164.308 57.0823 159.217C56.6851 157.994 56.9873 156.56 56.8217 155.241C55.6058 145.555 57.0253 135.495 52.9026 126.23C51.3435 122.727 49.6136 118.878 44.8442 119.295C40.2374 119.699 38.475 123.467 37.7062 127.282C36.0225 135.636 35.5582 144.1 37.1405 153.425ZM261.389 130.854C261.537 136.73 260.177 142.409 259.175 148.138C258.417 152.477 260.893 155.518 265.251 155.668C267.638 155.75 269.915 155.231 271.936 153.982C280.897 148.445 286.529 140.379 288.673 130.192C290.367 122.141 282.867 114.066 275.498 115.331C269.783 116.313 262.4 124.002 261.389 130.854Z" fill="black"/>
<path d="M183.206 361.269C184.822 357.929 187.28 358.244 189.676 359.237C191.499 359.993 192.306 361.69 192.128 363.681C191.912 366.08 190.507 367.629 188.246 368.268C184.719 369.265 182.89 366.887 183.206 361.269Z" fill="black"/>
<path d="M182.707 433.204C183.633 430.146 185.003 427.886 188.226 427.928C190.07 427.952 190.594 429.588 190.965 431.05C191.645 433.729 192.238 436.421 188.504 437.473C184.989 438.464 183.026 437.238 182.707 433.204Z" fill="black"/>
<path d="M188.659 468.743C185.252 469.371 183.443 467.996 183.128 465.041C182.897 462.878 183.968 461.08 186.143 460.478C188.42 459.848 190.66 460.655 191.753 462.625C193.336 465.48 191.159 467.148 188.659 468.743Z" fill="black"/>
<path d="M192.549 395.26C194.59 398.083 196.958 400.865 192.556 403.021C190.994 403.786 188.906 403.744 187.435 402.36C185.885 400.902 186.186 399.055 186.983 397.326C188.026 395.063 189.74 394.145 192.549 395.26Z" fill="black"/>
<path d="M179.831 190.682C171.326 195.989 163.08 201.016 153.086 201.699C144.873 202.259 137.162 201.144 131.153 194.703C129.863 193.32 128.386 191.916 130.12 190.047C131.691 188.354 133.521 188.965 134.991 190.309C145.671 200.073 156.897 197.422 168.166 191.706C174.085 188.703 179.837 185.364 185.045 181.201C186.721 179.861 188.403 179.368 189.768 181.26C191.127 183.144 190.183 184.719 188.352 185.785C185.626 187.372 182.876 188.918 179.831 190.682Z" fill="black"/>
<path d="M102.855 157.463C99.2723 159.209 97.0502 158.054 95.9971 154.785C94.9553 151.552 95.8923 148.747 99.0285 147.265C102.003 145.858 104.235 147.566 105.632 150.021C107.425 153.17 105.247 155.275 102.855 157.463Z" fill="black"/>
<path d="M199.621 121.394C198.003 120.047 197.635 118.781 198.854 117.326C201.663 113.975 209.71 113.567 213.107 116.565C214.645 117.922 215.523 119.441 214.146 121.297C212.9 122.978 211.093 122.828 209.793 121.558C206.415 118.258 203.215 122.29 199.621 121.394Z" fill="black"/>
<path d="M206.231 158.083C202.665 157.228 200.906 155.191 201.505 151.917C202.005 149.184 203.625 146.666 206.697 146.824C210.014 146.995 211.33 150.091 211.788 152.762C212.394 156.29 209.556 157.469 206.231 158.083Z" fill="black"/>
<path d="M155.973 173.875C151.233 176.013 148.481 173.508 145.99 170.42C145.063 169.269 144.99 168.017 146.048 166.845C147.173 165.599 148.366 165.97 149.596 166.681C150.811 167.383 151.763 169.121 153.445 168.213C155.409 167.154 157.385 165.714 158.843 168.525C160.174 171.094 157.976 172.354 155.973 173.875Z" fill="black"/>
<path d="M86.2761 132.893C88.3101 126.504 91.0651 124.208 95.0565 125.227C96.6956 125.645 98.3671 126.25 98.3959 128.318C98.4216 130.162 97.0494 130.961 95.4525 131.012C93.3845 131.078 92.2146 132.241 90.988 133.685C89.383 135.575 87.6717 135.81 86.2761 132.893Z" fill="black"/>
<path d="M122.12 184.013C126.148 186.002 124.76 188.257 122.615 190.278C120.677 192.102 118.937 194.692 114.767 193.448C116.405 189.463 118.57 186.407 122.12 184.013Z" fill="black"/>
<path d="M193.896 179.98C193.14 177.707 193.104 175.858 195.362 175.092C197.774 174.274 198.533 176.285 199.32 177.918C200.23 179.808 202.095 182.217 199.774 183.739C196.359 185.979 195.4 182.436 193.896 179.98Z" fill="black"/>
<path d="M118.487 61.2065C114.075 61.4167 113.263 59.0649 115.444 56.3575C119.281 51.5944 123.654 47.2547 127.912 42.8433C129.391 41.3107 131.375 40.4149 133.094 42.444C134.792 44.4488 133.642 46.2856 131.907 47.5325C126.717 51.2625 122.94 56.3254 118.487 61.2065Z" fill="black"/>
<path d="M158.26 43.0947C155.543 43.0959 153.173 42.8337 153.263 39.8875C153.343 37.29 155.708 37.079 157.696 36.8841C161.183 36.5421 164.677 36.5313 167.956 37.9982C170.102 38.958 171.702 40.6313 170.822 43.0705C169.822 45.8418 167.514 45.4002 165.449 44.2822C163.297 43.1164 161.022 43.0446 158.26 43.0947Z" fill="black"/>
<path d="M130.159 51.1382C132.175 49.0868 133.942 49.1977 135.403 51.1886C136.853 53.163 135.519 54.5657 134.095 55.8295C131.489 58.1427 129.171 60.6988 127.173 63.566C126.241 64.9037 125.1 66.5485 123.177 65.1822C121.275 63.8306 121.76 61.8743 122.88 60.3349C125.112 57.2671 127.567 54.3615 130.159 51.1382Z" fill="black"/>
<path d="M173.742 39.1664C171.761 38.2992 170.042 37.716 168.436 36.9082C166.784 36.0776 166.039 34.5697 166.635 32.7939C167.266 30.9156 168.946 30.3493 170.644 30.9423C172.949 31.7478 175.209 32.7868 177.32 34.0144C179.002 34.9925 179.953 36.7858 179.051 38.6618C177.883 41.0918 175.915 40.4756 173.742 39.1664Z" fill="black"/>
<path d="M227.602 227.637C229.445 234.969 230.04 242.041 230.416 249.14C230.516 251.011 230.578 253.074 228.007 253.202C225.24 253.339 224.861 251.208 224.895 249.12C225.005 242.286 223.794 235.632 222.323 229.008C221.939 227.276 221.794 225.538 223.843 224.889C225.775 224.277 226.987 225.332 227.602 227.637Z" fill="black"/>
<path d="M252.762 239.247C253.237 240.732 253.742 241.82 253.896 242.956C254.115 244.579 253.578 245.993 251.765 246.354C250.05 246.695 248.75 245.884 248.293 244.246C246.729 238.647 245.2 233.035 243.838 227.385C243.442 225.742 243.677 223.861 245.919 223.543C247.919 223.259 248.937 224.498 249.402 226.337C250.46 230.52 251.555 234.694 252.762 239.247Z" fill="black"/>
<path d="M95.9404 231.154C95.9711 228.773 96.1976 226.789 98.7516 226.966C101.137 227.131 101.125 229.182 101.511 231.02C102.807 237.2 100.095 242.738 98.8761 248.504C98.5029 250.269 97.2374 251.511 95.1887 250.767C93.2935 250.078 92.814 248.52 93.4118 246.712C95.0362 241.8 96.2956 236.838 95.9404 231.154Z" fill="black"/>
<path d="M121.508 233.945C121.694 231.555 122.394 229.774 124.781 230.164C126.998 230.527 127.512 232.462 127.331 234.4C126.933 238.685 126.467 242.969 125.85 247.227C125.599 248.959 124.66 250.51 122.505 250.01C120.52 249.55 120.166 248.042 120.384 246.149C120.837 242.218 122.09 238.361 121.508 233.945Z" fill="black"/>
<path d="M49.1955 140.265C49.3073 146.018 51.7382 151.476 49.2472 156.749C46.7444 156.462 46.2784 155.201 46.0531 153.875C45.3334 149.637 44.6372 145.393 44.0431 141.137C43.8166 139.513 43.5841 137.541 45.7425 137.043C47.7852 136.572 48.668 138.092 49.1955 140.265Z" fill="black"/>
<path d="M272.897 144.153C271.65 145.822 270.368 146.393 268.814 145.469C267.343 144.594 267.138 143.24 267.334 141.605C268.024 135.877 268.812 130.151 268.087 124.347C267.846 122.411 268.308 120.401 270.623 120.261C272.907 120.123 273.81 122.199 273.788 123.998C273.707 130.588 273.333 137.175 272.897 144.153Z" fill="black"/>
</svg>
